<svg xmlns="http://www.w3.org/2000/svg" width="680" height="500" font-family="sans-serif"><rect width="680" height="500" fill="#fff"/><text x="52" y="22" font-size="14" font-weight="bold" fill="#333">Benchmarks auf ADV-DEV-56627</text><g transform="translate(0 40)"><rect x="0" y="0" width="680" height="30" fill="#f5f5f5"/><text x="52" y="22" font-size="12" font-weight="bold" fill="#333">yugioh</text><text x="668" y="22" text-anchor="end" font-size="9" fill="#888">13 Messungen</text><g transform="translate(0 30)"><g transform="translate(0 0)"><rect x="6" y="4" width="328" height="178" fill="none" stroke="#f0f0f0"/><text x="52" y="20" font-size="11" font-weight="bold" fill="#333">parse+check</text><text x="52" y="33" font-size="9" fill="#888">3425.68 ms (-9% seit 2026-09-08)</text><line x1="52" y1="144.0" x2="324" y2="144.0" stroke="#e0e0e0"/><text x="46" y="144.0" text-anchor="end" dominant-baseline="middle" font-size="9" fill="#888">0.00</text><line x1="52" y1="92.0" x2="324" y2="92.0" stroke="#e0e0e0"/><text x="46" y="92.0" text-anchor="end" dominant-baseline="middle" font-size="9" fill="#888">2172.71</text><line x1="52" y1="40.0" x2="324" y2="40.0" stroke="#e0e0e0"/><text x="46" y="40.0" text-anchor="end" dominant-baseline="middle" font-size="9" fill="#888">4345.42</text><text x="52" y="158" font-size="9" fill="#888">2026-09-08</text><text x="324" y="158" text-anchor="end" font-size="9" fill="#888">2026-09-10</text><polyline fill="none" stroke="#2b7bb9" stroke-width="1.5" points="52.0,53.6 74.7,58.5 97.3,60.9 120.0,57.5 142.7,63.1 165.3,55.8 188.0,62.7 210.7,64.6 233.3,62.2 256.0,62.9 278.7,59.2 301.3,61.8 324.0,62.0"/><circle cx="52.0" cy="53.6" r="2.5" fill="#2b7bb9"><title>2026-09-08 11:10:48
78cb717+
3778.63 ms</title></circle><circle cx="74.7" cy="58.5" r="2.5" fill="#2b7bb9"><title>2026-09-08 15:38:38
58b008f+
3574.07 ms</title></circle><circle cx="97.3" cy="60.9" r="2.5" fill="#2b7bb9"><title>2026-09-08 15:55:19
58b008f+
3470.54 ms</title></circle><circle cx="120.0" cy="57.5" r="2.5" fill="#2b7bb9"><title>2026-09-09 10:10:45
4bc1cab+
3612.75 ms</title></circle><circle cx="142.7" cy="63.1" r="2.5" fill="#2b7bb9"><title>2026-09-09 10:32:05
4bc1cab+
3382.16 ms</title></circle><circle cx="165.3" cy="55.8" r="2.5" fill="#2b7bb9"><title>2026-09-09 11:24:34
2f37659+
3684.55 ms</title></circle><circle cx="188.0" cy="62.7" r="2.5" fill="#2b7bb9"><title>2026-09-09 14:23:34
2f37659+
3397.82 ms</title></circle><circle cx="210.7" cy="64.6" r="2.5" fill="#2b7bb9"><title>2026-09-09 18:44:40
2961841
3316.90 ms</title></circle><circle cx="233.3" cy="62.2" r="2.5" fill="#2b7bb9"><title>2026-09-09 19:15:16
2961841+
3419.49 ms</title></circle><circle cx="256.0" cy="62.9" r="2.5" fill="#2b7bb9"><title>2026-09-09 20:10:35
c494862+
3390.08 ms</title></circle><circle cx="278.7" cy="59.2" r="2.5" fill="#2b7bb9"><title>2026-09-09 22:08:08
4f4700e+
3544.51 ms</title></circle><circle cx="301.3" cy="61.8" r="2.5" fill="#2b7bb9"><title>2026-09-10 09:47:53
3dae426+
3433.64 ms</title></circle><circle cx="324.0" cy="62.0" r="2.5" fill="#2b7bb9"><title>2026-09-10 10:06:41
1cb6051+
3425.68 ms</title></circle></g></g></g><g transform="translate(0 260)"><rect x="0" y="0" width="680" height="30" fill="#f5f5f5"/><text x="52" y="22" font-size="12" font-weight="bold" fill="#333">jul-examples</text><text x="668" y="22" text-anchor="end" font-size="9" fill="#888">3 Messungen</text><g transform="translate(0 30)"><g transform="translate(0 0)"><rect x="6" y="4" width="328" height="178" fill="none" stroke="#f0f0f0"/><text x="52" y="20" font-size="11" font-weight="bold" fill="#333">parse+check</text><text x="52" y="33" font-size="9" fill="#888">19.45 ms (-9% seit 2026-09-09)</text><line x1="52" y1="144.0" x2="324" y2="144.0" stroke="#e0e0e0"/><text x="46" y="144.0" text-anchor="end" dominant-baseline="middle" font-size="9" fill="#888">0.00</text><line x1="52" y1="92.0" x2="324" y2="92.0" stroke="#e0e0e0"/><text x="46" y="92.0" text-anchor="end" dominant-baseline="middle" font-size="9" fill="#888">12.23</text><line x1="52" y1="40.0" x2="324" y2="40.0" stroke="#e0e0e0"/><text x="46" y="40.0" text-anchor="end" dominant-baseline="middle" font-size="9" fill="#888">24.46</text><text x="52" y="158" font-size="9" fill="#888">2026-09-09</text><text x="324" y="158" text-anchor="end" font-size="9" fill="#888">2026-09-10</text><polyline fill="none" stroke="#2b7bb9" stroke-width="1.5" points="52.0,53.6 188.0,58.1 324.0,61.3"/><circle cx="52.0" cy="53.6" r="2.5" fill="#2b7bb9"><title>2026-09-09 22:08:42
4f4700e+
21.27 ms</title></circle><circle cx="188.0" cy="58.1" r="2.5" fill="#2b7bb9"><title>2026-09-09 22:28:47
4f4700e+
20.20 ms</title></circle><circle cx="324.0" cy="61.3" r="2.5" fill="#2b7bb9"><title>2026-09-10 09:43:20
3dae426+
19.45 ms</title></circle></g></g></g></svg>