<svg xmlns="http://www.w3.org/2000/svg" width="680" height="500" font-family="sans-serif"><rect width="680" height="500" fill="#1e1e1e"/><text x="52" y="22" font-size="14" font-weight="bold" fill="#e8e8e8">Benchmarks auf ADV-DEV-56627</text><g transform="translate(0 40)"><rect x="0" y="0" width="680" height="30" fill="#252525"/><text x="52" y="22" font-size="12" font-weight="bold" fill="#e8e8e8">yugioh</text><text x="668" y="22" text-anchor="end" font-size="9" fill="#999">125 Messungen</text><g transform="translate(0 30)"><g transform="translate(0 0)"><rect x="6" y="4" width="668" height="178" fill="none" stroke="#333"/><text x="52" y="20" font-size="11" font-weight="bold" fill="#e8e8e8">parse+check</text><text x="52" y="33" font-size="9" fill="#999">2042.38 ms (-46% seit 2026-09-08)</text><line x1="52" y1="144.0" x2="664" y2="144.0" stroke="#3a3a3a"/><text x="46" y="144.0" text-anchor="end" dominant-baseline="middle" font-size="9" fill="#999">0.00</text><line x1="52" y1="92.0" x2="664" y2="92.0" stroke="#3a3a3a"/><text x="46" y="92.0" text-anchor="end" dominant-baseline="middle" font-size="9" fill="#999">7774.42</text><line x1="52" y1="40.0" x2="664" y2="40.0" stroke="#3a3a3a"/><text x="46" y="40.0" text-anchor="end" dominant-baseline="middle" font-size="9" fill="#999">15548.84</text><text x="52" y="158" font-size="9" fill="#999">2026-09-08</text><text x="664" y="158" text-anchor="end" font-size="9" fill="#999">2026-09-25</text><polyline fill="none" stroke="#5aa9e6" stroke-width="1.5" points="52.0,118.7 56.9,120.1 61.9,120.8 66.8,119.8 71.7,121.4 76.7,119.4 81.6,121.3 86.5,121.8 91.5,121.1 96.4,121.3 101.4,120.3 106.3,121.0 111.2,121.1 116.2,120.6 121.1,120.9 126.0,121.2 131.0,119.7 135.9,117.3 140.8,120.8 145.8,119.5 150.7,119.0 155.6,117.6 160.6,75.1 165.5,116.9 170.5,121.4 175.4,120.5 180.3,120.3 185.3,119.9 190.2,120.5 195.1,119.7 200.1,111.2 205.0,115.9 209.9,112.6 214.9,117.8 219.8,120.9 224.7,119.6 229.7,120.3 234.6,101.6 239.5,81.3 244.5,119.9 249.4,118.9 254.4,118.5 259.3,117.4 264.2,119.9 269.2,119.6 274.1,119.4 279.0,119.7 284.0,119.4 288.9,118.6 293.8,118.0 298.8,117.7 303.7,119.3 308.6,119.4 313.6,119.6 318.5,119.6 323.5,118.0 328.4,110.1 333.3,111.0 338.3,119.0 343.2,117.3 348.1,118.8 353.1,119.1 358.0,118.1 362.9,118.6 367.9,118.2 372.8,118.5 377.7,118.2 382.7,118.7 387.6,117.6 392.5,119.0 397.5,118.8 402.4,114.7 407.4,118.8 412.3,118.9 417.2,118.2 422.2,114.5 427.1,115.9 432.0,115.4 437.0,116.1 441.9,116.3 446.8,114.7 451.8,114.4 456.7,117.3 461.6,116.9 466.6,118.4 471.5,116.1 476.5,119.2 481.4,116.6 486.3,119.1 491.3,120.8 496.2,121.8 501.1,119.8 506.1,118.4 511.0,112.1 515.9,119.9 520.9,119.0 525.8,119.3 530.7,120.0 535.7,118.3 540.6,120.0 545.5,118.0 550.5,118.9 555.4,119.4 560.4,118.5 565.3,119.5 570.2,119.3 575.2,53.6 580.1,118.0 585.0,118.1 590.0,119.6 594.9,118.7 599.8,119.5 604.8,120.2 609.7,117.8 614.6,135.9 619.6,72.9 624.5,134.5 629.5,135.1 634.4,134.2 639.3,134.7 644.3,134.9 649.2,135.3 654.1,129.2 659.1,130.1 664.0,130.3"/><circle cx="52.0" cy="118.7" r="2.5" fill="#5aa9e6"><title>2026-09-08 11:10:48
78cb717+
3778.63 ms</title></circle><circle cx="56.9" cy="120.1" r="2.5" fill="#5aa9e6"><title>2026-09-08 15:38:38
58b008f+
3574.07 ms</title></circle><circle cx="61.9" cy="120.8" r="2.5" fill="#5aa9e6"><title>2026-09-08 15:55:19
58b008f+
3470.54 ms</title></circle><circle cx="66.8" cy="119.8" r="2.5" fill="#5aa9e6"><title>2026-09-09 10:10:45
4bc1cab+
3612.75 ms</title></circle><circle cx="71.7" cy="121.4" r="2.5" fill="#5aa9e6"><title>2026-09-09 10:32:05
4bc1cab+
3382.16 ms</title></circle><circle cx="76.7" cy="119.4" r="2.5" fill="#5aa9e6"><title>2026-09-09 11:24:34
2f37659+
3684.55 ms</title></circle><circle cx="81.6" cy="121.3" r="2.5" fill="#5aa9e6"><title>2026-09-09 14:23:34
2f37659+
3397.82 ms</title></circle><circle cx="86.5" cy="121.8" r="2.5" fill="#5aa9e6"><title>2026-09-09 18:44:40
2961841
3316.90 ms</title></circle><circle cx="91.5" cy="121.1" r="2.5" fill="#5aa9e6"><title>2026-09-09 19:15:16
2961841+
3419.49 ms</title></circle><circle cx="96.4" cy="121.3" r="2.5" fill="#5aa9e6"><title>2026-09-09 20:10:35
c494862+
3390.08 ms</title></circle><circle cx="101.4" cy="120.3" r="2.5" fill="#5aa9e6"><title>2026-09-09 22:08:08
4f4700e+
3544.51 ms</title></circle><circle cx="106.3" cy="121.0" r="2.5" fill="#5aa9e6"><title>2026-09-10 09:47:53
3dae426+
3433.64 ms</title></circle><circle cx="111.2" cy="121.1" r="2.5" fill="#5aa9e6"><title>2026-09-10 10:06:41
1cb6051+
3425.68 ms</title></circle><circle cx="116.2" cy="120.6" r="2.5" fill="#5aa9e6"><title>2026-09-10 10:35:04
bd049c8+
3495.44 ms</title></circle><circle cx="121.1" cy="120.9" r="2.5" fill="#5aa9e6"><title>2026-09-10 12:19:19
139fbde+
3460.11 ms</title></circle><circle cx="126.0" cy="121.2" r="2.5" fill="#5aa9e6"><title>2026-09-10 12:22:12
139fbde+
3402.61 ms</title></circle><circle cx="131.0" cy="119.7" r="2.5" fill="#5aa9e6"><title>2026-09-10 12:38:01
9d05a26+
3627.45 ms</title></circle><circle cx="135.9" cy="117.3" r="2.5" fill="#5aa9e6"><title>2026-09-10 12:41:04
9d05a26+
3993.20 ms</title></circle><circle cx="140.8" cy="120.8" r="2.5" fill="#5aa9e6"><title>2026-09-10 14:12:55
0dbc86b
3469.60 ms</title></circle><circle cx="145.8" cy="119.5" r="2.5" fill="#5aa9e6"><title>2026-09-10 14:31:07
66641a8+
3665.74 ms</title></circle><circle cx="150.7" cy="119.0" r="2.5" fill="#5aa9e6"><title>2026-09-10 14:35:56
977056a+
3744.47 ms</title></circle><circle cx="155.6" cy="117.6" r="2.5" fill="#5aa9e6"><title>2026-09-10 14:45:03
9fb37a0+
3942.61 ms</title></circle><circle cx="160.6" cy="75.1" r="2.5" fill="#5aa9e6"><title>2026-09-10 14:59:54
9c22e50+
10294.39 ms</title></circle><circle cx="165.5" cy="116.9" r="2.5" fill="#5aa9e6"><title>2026-09-10 15:03:38
9c22e50+
4046.82 ms</title></circle><circle cx="170.5" cy="121.4" r="2.5" fill="#5aa9e6"><title>2026-09-10 15:23:19
7db6623+
3383.02 ms</title></circle><circle cx="175.4" cy="120.5" r="2.5" fill="#5aa9e6"><title>2026-09-10 15:37:09
16c5e89+
3515.81 ms</title></circle><circle cx="180.3" cy="120.3" r="2.5" fill="#5aa9e6"><title>2026-09-10 15:48:06
2277f04+
3550.16 ms</title></circle><circle cx="185.3" cy="119.9" r="2.5" fill="#5aa9e6"><title>2026-09-10 16:01:55
733e44d+
3601.40 ms</title></circle><circle cx="190.2" cy="120.5" r="2.5" fill="#5aa9e6"><title>2026-09-10 16:08:43
a35c8ba+
3512.89 ms</title></circle><circle cx="195.1" cy="119.7" r="2.5" fill="#5aa9e6"><title>2026-09-10 16:15:52
dca69d5+
3629.24 ms</title></circle><circle cx="200.1" cy="111.2" r="2.5" fill="#5aa9e6"><title>2026-09-10 16:22:14
dca69d5+
4898.61 ms</title></circle><circle cx="205.0" cy="115.9" r="2.5" fill="#5aa9e6"><title>2026-09-10 16:45:12
dca69d5+
4208.41 ms</title></circle><circle cx="209.9" cy="112.6" r="2.5" fill="#5aa9e6"><title>2026-09-10 17:12:56
ea2a1f3+
4697.28 ms</title></circle><circle cx="214.9" cy="117.8" r="2.5" fill="#5aa9e6"><title>2026-09-10 17:25:13
7ed9a84+
3913.62 ms</title></circle><circle cx="219.8" cy="120.9" r="2.5" fill="#5aa9e6"><title>2026-09-10 17:45:18
7ed9a84+
3453.40 ms</title></circle><circle cx="224.7" cy="119.6" r="2.5" fill="#5aa9e6"><title>2026-09-10 17:55:59
398e670+
3652.58 ms</title></circle><circle cx="229.7" cy="120.3" r="2.5" fill="#5aa9e6"><title>2026-09-10 18:11:17
a1efc13+
3543.16 ms</title></circle><circle cx="234.6" cy="101.6" r="2.5" fill="#5aa9e6"><title>2026-09-11 08:37:52
67e9c86+
6333.85 ms</title></circle><circle cx="239.5" cy="81.3" r="2.5" fill="#5aa9e6"><title>2026-09-11 09:11:59
837efef+
9368.46 ms</title></circle><circle cx="244.5" cy="119.9" r="2.5" fill="#5aa9e6"><title>2026-09-11 09:23:39
837efef+
3601.33 ms</title></circle><circle cx="249.4" cy="118.9" r="2.5" fill="#5aa9e6"><title>2026-09-11 09:42:05
9e714a1+
3753.73 ms</title></circle><circle cx="254.4" cy="118.5" r="2.5" fill="#5aa9e6"><title>2026-09-11 15:40:30
549a23b+
3807.36 ms</title></circle><circle cx="259.3" cy="117.4" r="2.5" fill="#5aa9e6"><title>2026-09-11 17:04:23
d8bb361+
3972.56 ms</title></circle><circle cx="264.2" cy="119.9" r="2.5" fill="#5aa9e6"><title>2026-09-11 19:30:11
2a27a92+
3607.67 ms</title></circle><circle cx="269.2" cy="119.6" r="2.5" fill="#5aa9e6"><title>2026-09-11 23:25:44
e0beea7
3655.47 ms</title></circle><circle cx="274.1" cy="119.4" r="2.5" fill="#5aa9e6"><title>2026-09-11 23:29:37
e0beea7+
3674.17 ms</title></circle><circle cx="279.0" cy="119.7" r="2.5" fill="#5aa9e6"><title>2026-09-11 23:34:05
dfd708d+
3638.65 ms</title></circle><circle cx="284.0" cy="119.4" r="2.5" fill="#5aa9e6"><title>2026-09-11 23:55:53
8899bc6+
3677.67 ms</title></circle><circle cx="288.9" cy="118.6" r="2.5" fill="#5aa9e6"><title>2026-09-12 00:01:20
8899bc6+
3800.17 ms</title></circle><circle cx="293.8" cy="118.0" r="2.5" fill="#5aa9e6"><title>2026-09-12 00:14:24
6b05802+
3884.05 ms</title></circle><circle cx="298.8" cy="117.7" r="2.5" fill="#5aa9e6"><title>2026-09-12 00:29:43
6b05802+
3927.75 ms</title></circle><circle cx="303.7" cy="119.3" r="2.5" fill="#5aa9e6"><title>2026-09-12 01:02:44
49d047c+
3696.56 ms</title></circle><circle cx="308.6" cy="119.4" r="2.5" fill="#5aa9e6"><title>2026-09-12 01:20:50
49d047c+
3679.63 ms</title></circle><circle cx="313.6" cy="119.6" r="2.5" fill="#5aa9e6"><title>2026-09-12 01:48:53
06da68e+
3645.90 ms</title></circle><circle cx="318.5" cy="119.6" r="2.5" fill="#5aa9e6"><title>2026-09-12 13:24:06
68c1f99+
3652.50 ms</title></circle><circle cx="323.5" cy="118.0" r="2.5" fill="#5aa9e6"><title>2026-09-12 14:28:22
6a2fb8d+
3888.90 ms</title></circle><circle cx="328.4" cy="110.1" r="2.5" fill="#5aa9e6"><title>2026-09-12 14:31:18
6a2fb8d+
5070.34 ms</title></circle><circle cx="333.3" cy="111.0" r="2.5" fill="#5aa9e6"><title>2026-09-12 14:34:45
6a2fb8d+
4939.52 ms</title></circle><circle cx="338.3" cy="119.0" r="2.5" fill="#5aa9e6"><title>2026-09-12 19:38:50
e4ac2d6+
3733.65 ms</title></circle><circle cx="343.2" cy="117.3" r="2.5" fill="#5aa9e6"><title>2026-09-12 20:01:53
4dc8177+
3985.65 ms</title></circle><circle cx="348.1" cy="118.8" r="2.5" fill="#5aa9e6"><title>2026-09-12 20:06:48
c30feb6
3774.58 ms</title></circle><circle cx="353.1" cy="119.1" r="2.5" fill="#5aa9e6"><title>2026-09-12 20:13:48
c30feb6+
3726.04 ms</title></circle><circle cx="358.0" cy="118.1" r="2.5" fill="#5aa9e6"><title>2026-09-12 20:26:20
71ccc28+
3867.61 ms</title></circle><circle cx="362.9" cy="118.6" r="2.5" fill="#5aa9e6"><title>2026-09-12 20:34:32
71ccc28+
3792.08 ms</title></circle><circle cx="367.9" cy="118.2" r="2.5" fill="#5aa9e6"><title>2026-09-12 21:14:50
1b9aaf6+
3863.89 ms</title></circle><circle cx="372.8" cy="118.5" r="2.5" fill="#5aa9e6"><title>2026-09-12 21:20:47
fe73419+
3806.14 ms</title></circle><circle cx="377.7" cy="118.2" r="2.5" fill="#5aa9e6"><title>2026-09-13 06:57:26
b985b0b+
3862.21 ms</title></circle><circle cx="382.7" cy="118.7" r="2.5" fill="#5aa9e6"><title>2026-09-13 07:18:34
1c92171
3775.60 ms</title></circle><circle cx="387.6" cy="117.6" r="2.5" fill="#5aa9e6"><title>2026-09-13 07:19:05
1c92171+
3946.74 ms</title></circle><circle cx="392.5" cy="119.0" r="2.5" fill="#5aa9e6"><title>2026-09-13 07:19:59
1c92171+
3737.96 ms</title></circle><circle cx="397.5" cy="118.8" r="2.5" fill="#5aa9e6"><title>2026-09-13 07:20:55
1c92171+
3774.32 ms</title></circle><circle cx="402.4" cy="114.7" r="2.5" fill="#5aa9e6"><title>2026-09-13 07:34:23
b3c389c+
4382.56 ms</title></circle><circle cx="407.4" cy="118.8" r="2.5" fill="#5aa9e6"><title>2026-09-13 07:35:50
b3c389c+
3770.70 ms</title></circle><circle cx="412.3" cy="118.9" r="2.5" fill="#5aa9e6"><title>2026-09-13 07:41:50
b3c389c+
3753.91 ms</title></circle><circle cx="417.2" cy="118.2" r="2.5" fill="#5aa9e6"><title>2026-09-13 08:19:36
0fe302e+
3854.47 ms</title></circle><circle cx="422.2" cy="114.5" r="2.5" fill="#5aa9e6"><title>2026-09-13 09:05:03
5726ca5+
4403.79 ms</title></circle><circle cx="427.1" cy="115.9" r="2.5" fill="#5aa9e6"><title>2026-09-13 09:11:00
5726ca5+
4199.44 ms</title></circle><circle cx="432.0" cy="115.4" r="2.5" fill="#5aa9e6"><title>2026-09-13 10:40:52
020b631
4270.42 ms</title></circle><circle cx="437.0" cy="116.1" r="2.5" fill="#5aa9e6"><title>2026-09-13 10:41:34
020b631+
4163.98 ms</title></circle><circle cx="441.9" cy="116.3" r="2.5" fill="#5aa9e6"><title>2026-09-13 10:48:48
730a947
4137.05 ms</title></circle><circle cx="446.8" cy="114.7" r="2.5" fill="#5aa9e6"><title>2026-09-13 11:59:24
0fd01d0+
4387.37 ms</title></circle><circle cx="451.8" cy="114.4" r="2.5" fill="#5aa9e6"><title>2026-09-13 12:04:27
0fd01d0+
4421.66 ms</title></circle><circle cx="456.7" cy="117.3" r="2.5" fill="#5aa9e6"><title>2026-09-13 12:16:31
bef9732
3991.98 ms</title></circle><circle cx="461.6" cy="116.9" r="2.5" fill="#5aa9e6"><title>2026-09-13 12:27:13
7046c1e+
4046.44 ms</title></circle><circle cx="466.6" cy="118.4" r="2.5" fill="#5aa9e6"><title>2026-09-13 12:36:33
e115c97+
3828.26 ms</title></circle><circle cx="471.5" cy="116.1" r="2.5" fill="#5aa9e6"><title>2026-09-13 13:22:29
a6856e4
4176.43 ms</title></circle><circle cx="476.5" cy="119.2" r="2.5" fill="#5aa9e6"><title>2026-09-16 11:37:47
8509628
3701.78 ms</title></circle><circle cx="481.4" cy="116.6" r="2.5" fill="#5aa9e6"><title>2026-09-16 11:57:32
8509628+
4090.96 ms</title></circle><circle cx="486.3" cy="119.1" r="2.5" fill="#5aa9e6"><title>2026-09-16 16:45:48
5038bbd
3721.21 ms</title></circle><circle cx="491.3" cy="120.8" r="2.5" fill="#5aa9e6"><title>2026-09-17 12:21:19
0fbf0cf
3473.96 ms</title></circle><circle cx="496.2" cy="121.8" r="2.5" fill="#5aa9e6"><title>2026-09-21 09:35:00
eedaa94
3312.24 ms</title></circle><circle cx="501.1" cy="119.8" r="2.5" fill="#5aa9e6"><title>2026-09-21 09:35:25
2836862+
3613.71 ms</title></circle><circle cx="506.1" cy="118.4" r="2.5" fill="#5aa9e6"><title>2026-09-22 10:13:01
546656d+
3824.12 ms</title></circle><circle cx="511.0" cy="112.1" r="2.5" fill="#5aa9e6"><title>2026-09-22 10:29:51
546656d+
4775.74 ms</title></circle><circle cx="515.9" cy="119.9" r="2.5" fill="#5aa9e6"><title>2026-09-22 17:39:19
d4ec271+
3610.47 ms</title></circle><circle cx="520.9" cy="119.0" r="2.5" fill="#5aa9e6"><title>2026-09-22 17:50:22
2452abf+
3737.80 ms</title></circle><circle cx="525.8" cy="119.3" r="2.5" fill="#5aa9e6"><title>2026-09-22 17:52:57
2452abf+
3698.49 ms</title></circle><circle cx="530.7" cy="120.0" r="2.5" fill="#5aa9e6"><title>2026-09-23 09:08:01
b7693a9
3584.53 ms</title></circle><circle cx="535.7" cy="118.3" r="2.5" fill="#5aa9e6"><title>2026-09-23 09:45:27
fc0dbc8+
3846.65 ms</title></circle><circle cx="540.6" cy="120.0" r="2.5" fill="#5aa9e6"><title>2026-09-23 11:02:21
2635535
3589.39 ms</title></circle><circle cx="545.5" cy="118.0" r="2.5" fill="#5aa9e6"><title>2026-09-23 11:40:46
ba86e2f+
3882.63 ms</title></circle><circle cx="550.5" cy="118.9" r="2.5" fill="#5aa9e6"><title>2026-09-23 12:01:27
1e7f2d7+
3752.40 ms</title></circle><circle cx="555.4" cy="119.4" r="2.5" fill="#5aa9e6"><title>2026-09-23 12:06:46
1e7f2d7+
3681.27 ms</title></circle><circle cx="560.4" cy="118.5" r="2.5" fill="#5aa9e6"><title>2026-09-23 12:29:29
1e7f2d7+
3817.61 ms</title></circle><circle cx="565.3" cy="119.5" r="2.5" fill="#5aa9e6"><title>2026-09-23 13:01:29
a814359+
3670.00 ms</title></circle><circle cx="570.2" cy="119.3" r="2.5" fill="#5aa9e6"><title>2026-09-24 08:45:53
177a7bd+
3693.47 ms</title></circle><circle cx="575.2" cy="53.6" r="2.5" fill="#5aa9e6"><title>2026-09-24 08:58:37
17cd907
13520.73 ms</title></circle><circle cx="580.1" cy="118.0" r="2.5" fill="#5aa9e6"><title>2026-09-24 09:01:24
17cd907+
3885.73 ms</title></circle><circle cx="585.0" cy="118.1" r="2.5" fill="#5aa9e6"><title>2026-09-24 15:33:51
a744a34+
3868.64 ms</title></circle><circle cx="590.0" cy="119.6" r="2.5" fill="#5aa9e6"><title>2026-09-24 18:38:03
3a09593
3643.33 ms</title></circle><circle cx="594.9" cy="118.7" r="2.5" fill="#5aa9e6"><title>2026-09-24 18:55:49
a859d87+
3778.63 ms</title></circle><circle cx="599.8" cy="119.5" r="2.5" fill="#5aa9e6"><title>2026-09-24 19:32:57
aa873a6+
3668.01 ms</title></circle><circle cx="604.8" cy="120.2" r="2.5" fill="#5aa9e6"><title>2026-09-24 19:35:14
aa873a6+
3561.63 ms</title></circle><circle cx="609.7" cy="117.8" r="2.5" fill="#5aa9e6"><title>2026-09-24 19:45:43
4d0d742+
3919.89 ms</title></circle><circle cx="614.6" cy="135.9" r="2.5" fill="#5aa9e6"><title>2026-09-24 20:34:09
4d0d742+
1204.95 ms</title></circle><circle cx="619.6" cy="72.9" r="2.5" fill="#5aa9e6"><title>2026-09-25 08:31:25
600ec3f+
10635.22 ms</title></circle><circle cx="624.5" cy="134.5" r="2.5" fill="#5aa9e6"><title>2026-09-25 08:48:47
600ec3f+
1418.32 ms</title></circle><circle cx="629.5" cy="135.1" r="2.5" fill="#5aa9e6"><title>2026-09-25 10:16:23
c68184a+
1336.54 ms</title></circle><circle cx="634.4" cy="134.2" r="2.5" fill="#5aa9e6"><title>2026-09-25 10:30:14
7e26875+
1464.30 ms</title></circle><circle cx="639.3" cy="134.7" r="2.5" fill="#5aa9e6"><title>2026-09-25 10:50:18
ef8cdeb+
1387.12 ms</title></circle><circle cx="644.3" cy="134.9" r="2.5" fill="#5aa9e6"><title>2026-09-25 10:56:22
ef8cdeb+
1361.24 ms</title></circle><circle cx="649.2" cy="135.3" r="2.5" fill="#5aa9e6"><title>2026-09-25 11:05:24
c01e970+
1305.46 ms</title></circle><circle cx="654.1" cy="129.2" r="2.5" fill="#5aa9e6"><title>2026-09-25 11:31:43
cd3399c+
2217.95 ms</title></circle><circle cx="659.1" cy="130.1" r="2.5" fill="#5aa9e6"><title>2026-09-25 11:46:47
72972ac
2083.42 ms</title></circle><circle cx="664.0" cy="130.3" r="2.5" fill="#5aa9e6"><title>2026-09-25 11:54:38
72972ac+
2042.38 ms</title></circle></g></g></g><g transform="translate(0 260)"><rect x="0" y="0" width="680" height="30" fill="#252525"/><text x="52" y="22" font-size="12" font-weight="bold" fill="#e8e8e8">jul-examples</text><text x="668" y="22" text-anchor="end" font-size="9" fill="#999">3 Messungen</text><g transform="translate(0 30)"><g transform="translate(0 0)"><rect x="6" y="4" width="668" height="178" fill="none" stroke="#333"/><text x="52" y="20" font-size="11" font-weight="bold" fill="#e8e8e8">parse+check</text><text x="52" y="33" font-size="9" fill="#999">19.45 ms (-9% seit 2026-09-09)</text><line x1="52" y1="144.0" x2="664" y2="144.0" stroke="#3a3a3a"/><text x="46" y="144.0" text-anchor="end" dominant-baseline="middle" font-size="9" fill="#999">0.00</text><line x1="52" y1="92.0" x2="664" y2="92.0" stroke="#3a3a3a"/><text x="46" y="92.0" text-anchor="end" dominant-baseline="middle" font-size="9" fill="#999">12.23</text><line x1="52" y1="40.0" x2="664" y2="40.0" stroke="#3a3a3a"/><text x="46" y="40.0" text-anchor="end" dominant-baseline="middle" font-size="9" fill="#999">24.46</text><text x="52" y="158" font-size="9" fill="#999">2026-09-09</text><text x="664" y="158" text-anchor="end" font-size="9" fill="#999">2026-09-10</text><polyline fill="none" stroke="#5aa9e6" stroke-width="1.5" points="52.0,53.6 358.0,58.1 664.0,61.3"/><circle cx="52.0" cy="53.6" r="2.5" fill="#5aa9e6"><title>2026-09-09 22:08:42
4f4700e+
21.27 ms</title></circle><circle cx="358.0" cy="58.1" r="2.5" fill="#5aa9e6"><title>2026-09-09 22:28:47
4f4700e+
20.20 ms</title></circle><circle cx="664.0" cy="61.3" r="2.5" fill="#5aa9e6"><title>2026-09-10 09:43:20
3dae426+
19.45 ms</title></circle></g></g></g></svg>