<svg xmlns="http://www.w3.org/2000/svg" width="680" height="1040" font-family="sans-serif"><rect width="680" height="1040" fill="#1e1e1e"/><text x="52" y="22" font-size="14" font-weight="bold" fill="#e8e8e8">Benchmarks auf ADV-DEV-56627</text><g transform="translate(0 40)"><rect x="0" y="0" width="680" height="30" fill="#252525"/><text x="52" y="22" font-size="12" font-weight="bold" fill="#e8e8e8">bench-runtime</text><text x="668" y="22" text-anchor="end" font-size="9" fill="#999">19 Messungen</text><g transform="translate(0 30)"><g transform="translate(0 0)"><rect x="6" y="4" width="328" height="178" fill="none" stroke="#333"/><text x="52" y="20" font-size="11" font-weight="bold" fill="#e8e8e8">branching/emptyOrComplex</text><text x="52" y="33" font-size="9" fill="#999">4.24 ms (-100% seit 2026-09-25)</text><line x1="52" y1="144.0" x2="324" y2="144.0" stroke="#3a3a3a"/><text x="46" y="144.0" text-anchor="end" dominant-baseline="middle" font-size="9" fill="#999">0.00</text><line x1="52" y1="92.0" x2="324" y2="92.0" stroke="#3a3a3a"/><text x="46" y="92.0" text-anchor="end" dominant-baseline="middle" font-size="9" fill="#999">2175.09</text><line x1="52" y1="40.0" x2="324" y2="40.0" stroke="#3a3a3a"/><text x="46" y="40.0" text-anchor="end" dominant-baseline="middle" font-size="9" fill="#999">4350.17</text><text x="52" y="158" font-size="9" fill="#999">2026-09-25</text><text x="324" y="158" text-anchor="end" font-size="9" fill="#999">2026-09-28</text><polyline fill="none" stroke="#5aa9e6" stroke-width="1.5" points="52.0,53.6 65.0,143.9 77.9,143.9 90.9,143.9 103.8,143.9 116.8,143.9 129.7,143.9 142.7,143.9 155.6,143.9 168.6,143.9 181.5,143.9 194.5,143.9 207.4,143.9 220.4,143.9 233.3,143.9 246.3,143.9 259.2,143.9 272.2,143.9 285.1,143.9 298.1,143.9 311.0,143.9 324.0,143.9"/><circle cx="52.0" cy="53.6" r="2.5" fill="#5aa9e6"><title>2026-09-25 15:03:30
7820997+
3782.76 ms</title></circle><circle cx="65.0" cy="143.9" r="2.5" fill="#5aa9e6"><title>2026-09-25 15:03:33
7820997+
4.78 ms</title></circle><circle cx="77.9" cy="143.9" r="2.5" fill="#5aa9e6"><title>2026-09-25 15:48:25
7e773f9+
3.81 ms</title></circle><circle cx="90.9" cy="143.9" r="2.5" fill="#5aa9e6"><title>2026-09-26 10:06:47
17c9c34+
4.16 ms</title></circle><circle cx="103.8" cy="143.9" r="2.5" fill="#5aa9e6"><title>2026-09-26 10:18:42
17c9c34+
3.78 ms</title></circle><circle cx="116.8" cy="143.9" r="2.5" fill="#5aa9e6"><title>2026-09-26 10:27:27
17c9c34+
4.05 ms</title></circle><circle cx="129.7" cy="143.9" r="2.5" fill="#5aa9e6"><title>2026-09-26 14:05:30
e54a9b8
4.04 ms</title></circle><circle cx="142.7" cy="143.9" r="2.5" fill="#5aa9e6"><title>2026-09-26 14:16:44
e54a9b8+
4.76 ms</title></circle><circle cx="155.6" cy="143.9" r="2.5" fill="#5aa9e6"><title>2026-09-26 15:11:30
83ef5b6+
4.01 ms</title></circle><circle cx="168.6" cy="143.9" r="2.5" fill="#5aa9e6"><title>2026-09-26 15:12:59
83ef5b6+
4.37 ms</title></circle><circle cx="181.5" cy="143.9" r="2.5" fill="#5aa9e6"><title>2026-09-26 15:39:45
83ef5b6+
4.06 ms</title></circle><circle cx="194.5" cy="143.9" r="2.5" fill="#5aa9e6"><title>2026-09-26 15:40:51
83ef5b6+
4.23 ms</title></circle><circle cx="207.4" cy="143.9" r="2.5" fill="#5aa9e6"><title>2026-09-27 06:32:21
d96f7e4+
4.18 ms</title></circle><circle cx="220.4" cy="143.9" r="2.5" fill="#5aa9e6"><title>2026-09-27 06:52:35
d96f7e4+
3.96 ms</title></circle><circle cx="233.3" cy="143.9" r="2.5" fill="#5aa9e6"><title>2026-09-27 10:04:44
e0f4ecf+
4.94 ms</title></circle><circle cx="246.3" cy="143.9" r="2.5" fill="#5aa9e6"><title>2026-09-27 10:53:32
e0f4ecf+
4.75 ms</title></circle><circle cx="259.2" cy="143.9" r="2.5" fill="#5aa9e6"><title>2026-09-27 13:20:23
4eeadb1+
3.74 ms</title></circle><circle cx="272.2" cy="143.9" r="2.5" fill="#5aa9e6"><title>2026-09-27 13:35:28
68321d7+
4.13 ms</title></circle><circle cx="285.1" cy="143.9" r="2.5" fill="#5aa9e6"><title>2026-09-28 10:06:11
9bf4348+
4.03 ms</title></circle><circle cx="298.1" cy="143.9" r="2.5" fill="#5aa9e6"><title>2026-09-28 10:15:55
9bf4348+
4.27 ms</title></circle><circle cx="311.0" cy="143.9" r="2.5" fill="#5aa9e6"><title>2026-09-28 11:57:07
8a53e5e
4.43 ms</title></circle><circle cx="324.0" cy="143.9" r="2.5" fill="#5aa9e6"><title>2026-09-28 12:07:43
97fbf6f
4.24 ms</title></circle></g><g transform="translate(340 0)"><rect x="6" y="4" width="328" height="178" fill="none" stroke="#333"/><text x="52" y="20" font-size="11" font-weight="bold" fill="#e8e8e8">branching/textListOrDictionary</text><text x="52" y="33" font-size="9" fill="#999">8.42 ms (-100% seit 2026-09-25)</text><line x1="52" y1="144.0" x2="324" y2="144.0" stroke="#3a3a3a"/><text x="46" y="144.0" text-anchor="end" dominant-baseline="middle" font-size="9" fill="#999">0.00</text><line x1="52" y1="92.0" x2="324" y2="92.0" stroke="#3a3a3a"/><text x="46" y="92.0" text-anchor="end" dominant-baseline="middle" font-size="9" fill="#999">5130.42</text><line x1="52" y1="40.0" x2="324" y2="40.0" stroke="#3a3a3a"/><text x="46" y="40.0" text-anchor="end" dominant-baseline="middle" font-size="9" fill="#999">10260.84</text><text x="52" y="158" font-size="9" fill="#999">2026-09-25</text><text x="324" y="158" text-anchor="end" font-size="9" fill="#999">2026-09-28</text><polyline fill="none" stroke="#5aa9e6" stroke-width="1.5" points="52.0,53.6 65.0,143.9 77.9,143.9 90.9,143.9 103.8,143.9 116.8,143.9 129.7,143.9 142.7,143.9 155.6,143.9 168.6,143.9 181.5,143.9 194.5,143.9 207.4,143.9 220.4,143.9 233.3,143.9 246.3,143.9 259.2,143.9 272.2,143.9 285.1,143.9 298.1,143.9 311.0,143.9 324.0,143.9"/><circle cx="52.0" cy="53.6" r="2.5" fill="#5aa9e6"><title>2026-09-25 15:03:30
7820997+
8922.47 ms</title></circle><circle cx="65.0" cy="143.9" r="2.5" fill="#5aa9e6"><title>2026-09-25 15:03:33
7820997+
7.79 ms</title></circle><circle cx="77.9" cy="143.9" r="2.5" fill="#5aa9e6"><title>2026-09-25 15:48:25
7e773f9+
6.75 ms</title></circle><circle cx="90.9" cy="143.9" r="2.5" fill="#5aa9e6"><title>2026-09-26 10:06:47
17c9c34+
7.74 ms</title></circle><circle cx="103.8" cy="143.9" r="2.5" fill="#5aa9e6"><title>2026-09-26 10:18:42
17c9c34+
7.35 ms</title></circle><circle cx="116.8" cy="143.9" r="2.5" fill="#5aa9e6"><title>2026-09-26 10:27:27
17c9c34+
7.55 ms</title></circle><circle cx="129.7" cy="143.9" r="2.5" fill="#5aa9e6"><title>2026-09-26 14:05:30
e54a9b8
7.45 ms</title></circle><circle cx="142.7" cy="143.9" r="2.5" fill="#5aa9e6"><title>2026-09-26 14:16:44
e54a9b8+
7.59 ms</title></circle><circle cx="155.6" cy="143.9" r="2.5" fill="#5aa9e6"><title>2026-09-26 15:11:30
83ef5b6+
8.00 ms</title></circle><circle cx="168.6" cy="143.9" r="2.5" fill="#5aa9e6"><title>2026-09-26 15:12:59
83ef5b6+
7.32 ms</title></circle><circle cx="181.5" cy="143.9" r="2.5" fill="#5aa9e6"><title>2026-09-26 15:39:45
83ef5b6+
7.57 ms</title></circle><circle cx="194.5" cy="143.9" r="2.5" fill="#5aa9e6"><title>2026-09-26 15:40:51
83ef5b6+
7.37 ms</title></circle><circle cx="207.4" cy="143.9" r="2.5" fill="#5aa9e6"><title>2026-09-27 06:32:21
d96f7e4+
7.87 ms</title></circle><circle cx="220.4" cy="143.9" r="2.5" fill="#5aa9e6"><title>2026-09-27 06:52:35
d96f7e4+
7.14 ms</title></circle><circle cx="233.3" cy="143.9" r="2.5" fill="#5aa9e6"><title>2026-09-27 10:04:44
e0f4ecf+
7.59 ms</title></circle><circle cx="246.3" cy="143.9" r="2.5" fill="#5aa9e6"><title>2026-09-27 10:53:32
e0f4ecf+
7.52 ms</title></circle><circle cx="259.2" cy="143.9" r="2.5" fill="#5aa9e6"><title>2026-09-27 13:20:23
4eeadb1+
7.92 ms</title></circle><circle cx="272.2" cy="143.9" r="2.5" fill="#5aa9e6"><title>2026-09-27 13:35:28
68321d7+
7.92 ms</title></circle><circle cx="285.1" cy="143.9" r="2.5" fill="#5aa9e6"><title>2026-09-28 10:06:11
9bf4348+
6.82 ms</title></circle><circle cx="298.1" cy="143.9" r="2.5" fill="#5aa9e6"><title>2026-09-28 10:15:55
9bf4348+
7.35 ms</title></circle><circle cx="311.0" cy="143.9" r="2.5" fill="#5aa9e6"><title>2026-09-28 11:57:07
8a53e5e
7.47 ms</title></circle><circle cx="324.0" cy="143.9" r="2.5" fill="#5aa9e6"><title>2026-09-28 12:07:43
97fbf6f
8.42 ms</title></circle></g><g transform="translate(0 190)"><rect x="6" y="4" width="328" height="178" fill="none" stroke="#333"/><text x="52" y="20" font-size="11" font-weight="bold" fill="#e8e8e8">branching/tagField</text><text x="52" y="33" font-size="9" fill="#999">7.94 ms (-100% seit 2026-09-25)</text><line x1="52" y1="144.0" x2="324" y2="144.0" stroke="#3a3a3a"/><text x="46" y="144.0" text-anchor="end" dominant-baseline="middle" font-size="9" fill="#999">0.00</text><line x1="52" y1="92.0" x2="324" y2="92.0" stroke="#3a3a3a"/><text x="46" y="92.0" text-anchor="end" dominant-baseline="middle" font-size="9" fill="#999">2565.54</text><line x1="52" y1="40.0" x2="324" y2="40.0" stroke="#3a3a3a"/><text x="46" y="40.0" text-anchor="end" dominant-baseline="middle" font-size="9" fill="#999">5131.08</text><text x="52" y="158" font-size="9" fill="#999">2026-09-25</text><text x="324" y="158" text-anchor="end" font-size="9" fill="#999">2026-09-28</text><polyline fill="none" stroke="#5aa9e6" stroke-width="1.5" points="52.0,53.6 65.0,143.8 77.9,143.8 90.9,143.8 103.8,143.8 116.8,143.8 129.7,143.9 142.7,143.8 155.6,143.8 168.6,143.8 181.5,143.8 194.5,143.8 207.4,143.8 220.4,143.8 233.3,143.8 246.3,143.8 259.2,143.9 272.2,143.8 285.1,143.8 298.1,143.9 311.0,143.8 324.0,143.8"/><circle cx="52.0" cy="53.6" r="2.5" fill="#5aa9e6"><title>2026-09-25 15:03:30
7820997+
4461.81 ms</title></circle><circle cx="65.0" cy="143.8" r="2.5" fill="#5aa9e6"><title>2026-09-25 15:03:33
7820997+
8.27 ms</title></circle><circle cx="77.9" cy="143.8" r="2.5" fill="#5aa9e6"><title>2026-09-25 15:48:25
7e773f9+
7.68 ms</title></circle><circle cx="90.9" cy="143.8" r="2.5" fill="#5aa9e6"><title>2026-09-26 10:06:47
17c9c34+
8.19 ms</title></circle><circle cx="103.8" cy="143.8" r="2.5" fill="#5aa9e6"><title>2026-09-26 10:18:42
17c9c34+
7.73 ms</title></circle><circle cx="116.8" cy="143.8" r="2.5" fill="#5aa9e6"><title>2026-09-26 10:27:27
17c9c34+
7.70 ms</title></circle><circle cx="129.7" cy="143.9" r="2.5" fill="#5aa9e6"><title>2026-09-26 14:05:30
e54a9b8
7.22 ms</title></circle><circle cx="142.7" cy="143.8" r="2.5" fill="#5aa9e6"><title>2026-09-26 14:16:44
e54a9b8+
7.47 ms</title></circle><circle cx="155.6" cy="143.8" r="2.5" fill="#5aa9e6"><title>2026-09-26 15:11:30
83ef5b6+
7.53 ms</title></circle><circle cx="168.6" cy="143.8" r="2.5" fill="#5aa9e6"><title>2026-09-26 15:12:59
83ef5b6+
7.63 ms</title></circle><circle cx="181.5" cy="143.8" r="2.5" fill="#5aa9e6"><title>2026-09-26 15:39:45
83ef5b6+
7.41 ms</title></circle><circle cx="194.5" cy="143.8" r="2.5" fill="#5aa9e6"><title>2026-09-26 15:40:51
83ef5b6+
7.75 ms</title></circle><circle cx="207.4" cy="143.8" r="2.5" fill="#5aa9e6"><title>2026-09-27 06:32:21
d96f7e4+
7.60 ms</title></circle><circle cx="220.4" cy="143.8" r="2.5" fill="#5aa9e6"><title>2026-09-27 06:52:35
d96f7e4+
7.70 ms</title></circle><circle cx="233.3" cy="143.8" r="2.5" fill="#5aa9e6"><title>2026-09-27 10:04:44
e0f4ecf+
8.13 ms</title></circle><circle cx="246.3" cy="143.8" r="2.5" fill="#5aa9e6"><title>2026-09-27 10:53:32
e0f4ecf+
7.59 ms</title></circle><circle cx="259.2" cy="143.9" r="2.5" fill="#5aa9e6"><title>2026-09-27 13:20:23
4eeadb1+
7.06 ms</title></circle><circle cx="272.2" cy="143.8" r="2.5" fill="#5aa9e6"><title>2026-09-27 13:35:28
68321d7+
7.87 ms</title></circle><circle cx="285.1" cy="143.8" r="2.5" fill="#5aa9e6"><title>2026-09-28 10:06:11
9bf4348+
7.75 ms</title></circle><circle cx="298.1" cy="143.9" r="2.5" fill="#5aa9e6"><title>2026-09-28 10:15:55
9bf4348+
7.40 ms</title></circle><circle cx="311.0" cy="143.8" r="2.5" fill="#5aa9e6"><title>2026-09-28 11:57:07
8a53e5e
8.24 ms</title></circle><circle cx="324.0" cy="143.8" r="2.5" fill="#5aa9e6"><title>2026-09-28 12:07:43
97fbf6f
7.94 ms</title></circle></g><g transform="translate(340 190)"><rect x="6" y="4" width="328" height="178" fill="none" stroke="#333"/><text x="52" y="20" font-size="11" font-weight="bold" fill="#e8e8e8">named-arguments/positional</text><text x="52" y="33" font-size="9" fill="#999">7.00 ms (-14% seit 2026-09-25)</text><line x1="52" y1="144.0" x2="324" y2="144.0" stroke="#3a3a3a"/><text x="46" y="144.0" text-anchor="end" dominant-baseline="middle" font-size="9" fill="#999">0.00</text><line x1="52" y1="92.0" x2="324" y2="92.0" stroke="#3a3a3a"/><text x="46" y="92.0" text-anchor="end" dominant-baseline="middle" font-size="9" fill="#999">4.66</text><line x1="52" y1="40.0" x2="324" y2="40.0" stroke="#3a3a3a"/><text x="46" y="40.0" text-anchor="end" dominant-baseline="middle" font-size="9" fill="#999">9.33</text><text x="52" y="158" font-size="9" fill="#999">2026-09-25</text><text x="324" y="158" text-anchor="end" font-size="9" fill="#999">2026-09-28</text><polyline fill="none" stroke="#5aa9e6" stroke-width="1.5" points="52.0,53.6 65.0,56.0 77.9,71.5 90.9,67.1 103.8,69.4 116.8,66.2 129.7,72.2 142.7,64.0 155.6,63.5 168.6,72.9 181.5,67.3 194.5,66.2 207.4,69.3 220.4,72.5 233.3,68.2 246.3,69.8 259.2,71.7 272.2,63.7 285.1,66.1 298.1,69.8 311.0,66.8 324.0,65.9"/><circle cx="52.0" cy="53.6" r="2.5" fill="#5aa9e6"><title>2026-09-25 15:03:30
7820997+
8.11 ms</title></circle><circle cx="65.0" cy="56.0" r="2.5" fill="#5aa9e6"><title>2026-09-25 15:03:33
7820997+
7.89 ms</title></circle><circle cx="77.9" cy="71.5" r="2.5" fill="#5aa9e6"><title>2026-09-25 15:48:25
7e773f9+
6.50 ms</title></circle><circle cx="90.9" cy="67.1" r="2.5" fill="#5aa9e6"><title>2026-09-26 10:06:47
17c9c34+
6.90 ms</title></circle><circle cx="103.8" cy="69.4" r="2.5" fill="#5aa9e6"><title>2026-09-26 10:18:42
17c9c34+
6.69 ms</title></circle><circle cx="116.8" cy="66.2" r="2.5" fill="#5aa9e6"><title>2026-09-26 10:27:27
17c9c34+
6.98 ms</title></circle><circle cx="129.7" cy="72.2" r="2.5" fill="#5aa9e6"><title>2026-09-26 14:05:30
e54a9b8
6.44 ms</title></circle><circle cx="142.7" cy="64.0" r="2.5" fill="#5aa9e6"><title>2026-09-26 14:16:44
e54a9b8+
7.17 ms</title></circle><circle cx="155.6" cy="63.5" r="2.5" fill="#5aa9e6"><title>2026-09-26 15:11:30
83ef5b6+
7.22 ms</title></circle><circle cx="168.6" cy="72.9" r="2.5" fill="#5aa9e6"><title>2026-09-26 15:12:59
83ef5b6+
6.38 ms</title></circle><circle cx="181.5" cy="67.3" r="2.5" fill="#5aa9e6"><title>2026-09-26 15:39:45
83ef5b6+
6.88 ms</title></circle><circle cx="194.5" cy="66.2" r="2.5" fill="#5aa9e6"><title>2026-09-26 15:40:51
83ef5b6+
6.98 ms</title></circle><circle cx="207.4" cy="69.3" r="2.5" fill="#5aa9e6"><title>2026-09-27 06:32:21
d96f7e4+
6.70 ms</title></circle><circle cx="220.4" cy="72.5" r="2.5" fill="#5aa9e6"><title>2026-09-27 06:52:35
d96f7e4+
6.41 ms</title></circle><circle cx="233.3" cy="68.2" r="2.5" fill="#5aa9e6"><title>2026-09-27 10:04:44
e0f4ecf+
6.80 ms</title></circle><circle cx="246.3" cy="69.8" r="2.5" fill="#5aa9e6"><title>2026-09-27 10:53:32
e0f4ecf+
6.65 ms</title></circle><circle cx="259.2" cy="71.7" r="2.5" fill="#5aa9e6"><title>2026-09-27 13:20:23
4eeadb1+
6.48 ms</title></circle><circle cx="272.2" cy="63.7" r="2.5" fill="#5aa9e6"><title>2026-09-27 13:35:28
68321d7+
7.20 ms</title></circle><circle cx="285.1" cy="66.1" r="2.5" fill="#5aa9e6"><title>2026-09-28 10:06:11
9bf4348+
6.99 ms</title></circle><circle cx="298.1" cy="69.8" r="2.5" fill="#5aa9e6"><title>2026-09-28 10:15:55
9bf4348+
6.65 ms</title></circle><circle cx="311.0" cy="66.8" r="2.5" fill="#5aa9e6"><title>2026-09-28 11:57:07
8a53e5e
6.92 ms</title></circle><circle cx="324.0" cy="65.9" r="2.5" fill="#5aa9e6"><title>2026-09-28 12:07:43
97fbf6f
7.00 ms</title></circle></g><g transform="translate(0 380)"><rect x="6" y="4" width="328" height="178" fill="none" stroke="#333"/><text x="52" y="20" font-size="11" font-weight="bold" fill="#e8e8e8">named-arguments/namedInOrder</text><text x="52" y="33" font-size="9" fill="#999">7.25 ms (-81% seit 2026-09-25)</text><line x1="52" y1="144.0" x2="324" y2="144.0" stroke="#3a3a3a"/><text x="46" y="144.0" text-anchor="end" dominant-baseline="middle" font-size="9" fill="#999">0.00</text><line x1="52" y1="92.0" x2="324" y2="92.0" stroke="#3a3a3a"/><text x="46" y="92.0" text-anchor="end" dominant-baseline="middle" font-size="9" fill="#999">22.24</text><line x1="52" y1="40.0" x2="324" y2="40.0" stroke="#3a3a3a"/><text x="46" y="40.0" text-anchor="end" dominant-baseline="middle" font-size="9" fill="#999">44.47</text><text x="52" y="158" font-size="9" fill="#999">2026-09-25</text><text x="324" y="158" text-anchor="end" font-size="9" fill="#999">2026-09-28</text><polyline fill="none" stroke="#5aa9e6" stroke-width="1.5" points="52.0,53.6 65.0,62.8 77.9,129.9 90.9,127.6 103.8,127.8 116.8,128.8 129.7,128.3 142.7,127.9 155.6,127.9 168.6,127.1 181.5,128.2 194.5,128.5 207.4,128.4 220.4,128.8 233.3,125.6 246.3,128.6 259.2,128.6 272.2,128.6 285.1,128.6 298.1,128.4 311.0,127.6 324.0,127.0"/><circle cx="52.0" cy="53.6" r="2.5" fill="#5aa9e6"><title>2026-09-25 15:03:30
7820997+
38.67 ms</title></circle><circle cx="65.0" cy="62.8" r="2.5" fill="#5aa9e6"><title>2026-09-25 15:03:33
7820997+
34.73 ms</title></circle><circle cx="77.9" cy="129.9" r="2.5" fill="#5aa9e6"><title>2026-09-25 15:48:25
7e773f9+
6.03 ms</title></circle><circle cx="90.9" cy="127.6" r="2.5" fill="#5aa9e6"><title>2026-09-26 10:06:47
17c9c34+
7.02 ms</title></circle><circle cx="103.8" cy="127.8" r="2.5" fill="#5aa9e6"><title>2026-09-26 10:18:42
17c9c34+
6.94 ms</title></circle><circle cx="116.8" cy="128.8" r="2.5" fill="#5aa9e6"><title>2026-09-26 10:27:27
17c9c34+
6.48 ms</title></circle><circle cx="129.7" cy="128.3" r="2.5" fill="#5aa9e6"><title>2026-09-26 14:05:30
e54a9b8
6.71 ms</title></circle><circle cx="142.7" cy="127.9" r="2.5" fill="#5aa9e6"><title>2026-09-26 14:16:44
e54a9b8+
6.87 ms</title></circle><circle cx="155.6" cy="127.9" r="2.5" fill="#5aa9e6"><title>2026-09-26 15:11:30
83ef5b6+
6.89 ms</title></circle><circle cx="168.6" cy="127.1" r="2.5" fill="#5aa9e6"><title>2026-09-26 15:12:59
83ef5b6+
7.21 ms</title></circle><circle cx="181.5" cy="128.2" r="2.5" fill="#5aa9e6"><title>2026-09-26 15:39:45
83ef5b6+
6.76 ms</title></circle><circle cx="194.5" cy="128.5" r="2.5" fill="#5aa9e6"><title>2026-09-26 15:40:51
83ef5b6+
6.64 ms</title></circle><circle cx="207.4" cy="128.4" r="2.5" fill="#5aa9e6"><title>2026-09-27 06:32:21
d96f7e4+
6.67 ms</title></circle><circle cx="220.4" cy="128.8" r="2.5" fill="#5aa9e6"><title>2026-09-27 06:52:35
d96f7e4+
6.51 ms</title></circle><circle cx="233.3" cy="125.6" r="2.5" fill="#5aa9e6"><title>2026-09-27 10:04:44
e0f4ecf+
7.88 ms</title></circle><circle cx="246.3" cy="128.6" r="2.5" fill="#5aa9e6"><title>2026-09-27 10:53:32
e0f4ecf+
6.58 ms</title></circle><circle cx="259.2" cy="128.6" r="2.5" fill="#5aa9e6"><title>2026-09-27 13:20:23
4eeadb1+
6.58 ms</title></circle><circle cx="272.2" cy="128.6" r="2.5" fill="#5aa9e6"><title>2026-09-27 13:35:28
68321d7+
6.59 ms</title></circle><circle cx="285.1" cy="128.6" r="2.5" fill="#5aa9e6"><title>2026-09-28 10:06:11
9bf4348+
6.60 ms</title></circle><circle cx="298.1" cy="128.4" r="2.5" fill="#5aa9e6"><title>2026-09-28 10:15:55
9bf4348+
6.66 ms</title></circle><circle cx="311.0" cy="127.6" r="2.5" fill="#5aa9e6"><title>2026-09-28 11:57:07
8a53e5e
7.00 ms</title></circle><circle cx="324.0" cy="127.0" r="2.5" fill="#5aa9e6"><title>2026-09-28 12:07:43
97fbf6f
7.25 ms</title></circle></g><g transform="translate(340 380)"><rect x="6" y="4" width="328" height="178" fill="none" stroke="#333"/><text x="52" y="20" font-size="11" font-weight="bold" fill="#e8e8e8">named-arguments/namedSwapped</text><text x="52" y="33" font-size="9" fill="#999">7.24 ms (-81% seit 2026-09-25)</text><line x1="52" y1="144.0" x2="324" y2="144.0" stroke="#3a3a3a"/><text x="46" y="144.0" text-anchor="end" dominant-baseline="middle" font-size="9" fill="#999">0.00</text><line x1="52" y1="92.0" x2="324" y2="92.0" stroke="#3a3a3a"/><text x="46" y="92.0" text-anchor="end" dominant-baseline="middle" font-size="9" fill="#999">22.47</text><line x1="52" y1="40.0" x2="324" y2="40.0" stroke="#3a3a3a"/><text x="46" y="40.0" text-anchor="end" dominant-baseline="middle" font-size="9" fill="#999">44.94</text><text x="52" y="158" font-size="9" fill="#999">2026-09-25</text><text x="324" y="158" text-anchor="end" font-size="9" fill="#999">2026-09-28</text><polyline fill="none" stroke="#5aa9e6" stroke-width="1.5" points="52.0,53.6 65.0,61.6 77.9,129.6 90.9,128.6 103.8,129.0 116.8,128.3 129.7,129.3 142.7,127.6 155.6,128.2 168.6,128.4 181.5,128.4 194.5,127.4 207.4,128.6 220.4,128.8 233.3,128.1 246.3,127.5 259.2,128.7 272.2,128.8 285.1,128.4 298.1,128.9 311.0,127.5 324.0,127.2"/><circle cx="52.0" cy="53.6" r="2.5" fill="#5aa9e6"><title>2026-09-25 15:03:30
7820997+
39.08 ms</title></circle><circle cx="65.0" cy="61.6" r="2.5" fill="#5aa9e6"><title>2026-09-25 15:03:33
7820997+
35.59 ms</title></circle><circle cx="77.9" cy="129.6" r="2.5" fill="#5aa9e6"><title>2026-09-25 15:48:25
7e773f9+
6.23 ms</title></circle><circle cx="90.9" cy="128.6" r="2.5" fill="#5aa9e6"><title>2026-09-26 10:06:47
17c9c34+
6.64 ms</title></circle><circle cx="103.8" cy="129.0" r="2.5" fill="#5aa9e6"><title>2026-09-26 10:18:42
17c9c34+
6.50 ms</title></circle><circle cx="116.8" cy="128.3" r="2.5" fill="#5aa9e6"><title>2026-09-26 10:27:27
17c9c34+
6.77 ms</title></circle><circle cx="129.7" cy="129.3" r="2.5" fill="#5aa9e6"><title>2026-09-26 14:05:30
e54a9b8
6.34 ms</title></circle><circle cx="142.7" cy="127.6" r="2.5" fill="#5aa9e6"><title>2026-09-26 14:16:44
e54a9b8+
7.07 ms</title></circle><circle cx="155.6" cy="128.2" r="2.5" fill="#5aa9e6"><title>2026-09-26 15:11:30
83ef5b6+
6.84 ms</title></circle><circle cx="168.6" cy="128.4" r="2.5" fill="#5aa9e6"><title>2026-09-26 15:12:59
83ef5b6+
6.75 ms</title></circle><circle cx="181.5" cy="128.4" r="2.5" fill="#5aa9e6"><title>2026-09-26 15:39:45
83ef5b6+
6.73 ms</title></circle><circle cx="194.5" cy="127.4" r="2.5" fill="#5aa9e6"><title>2026-09-26 15:40:51
83ef5b6+
7.16 ms</title></circle><circle cx="207.4" cy="128.6" r="2.5" fill="#5aa9e6"><title>2026-09-27 06:32:21
d96f7e4+
6.65 ms</title></circle><circle cx="220.4" cy="128.8" r="2.5" fill="#5aa9e6"><title>2026-09-27 06:52:35
d96f7e4+
6.59 ms</title></circle><circle cx="233.3" cy="128.1" r="2.5" fill="#5aa9e6"><title>2026-09-27 10:04:44
e0f4ecf+
6.89 ms</title></circle><circle cx="246.3" cy="127.5" r="2.5" fill="#5aa9e6"><title>2026-09-27 10:53:32
e0f4ecf+
7.12 ms</title></circle><circle cx="259.2" cy="128.7" r="2.5" fill="#5aa9e6"><title>2026-09-27 13:20:23
4eeadb1+
6.61 ms</title></circle><circle cx="272.2" cy="128.8" r="2.5" fill="#5aa9e6"><title>2026-09-27 13:35:28
68321d7+
6.57 ms</title></circle><circle cx="285.1" cy="128.4" r="2.5" fill="#5aa9e6"><title>2026-09-28 10:06:11
9bf4348+
6.74 ms</title></circle><circle cx="298.1" cy="128.9" r="2.5" fill="#5aa9e6"><title>2026-09-28 10:15:55
9bf4348+
6.51 ms</title></circle><circle cx="311.0" cy="127.5" r="2.5" fill="#5aa9e6"><title>2026-09-28 11:57:07
8a53e5e
7.14 ms</title></circle><circle cx="324.0" cy="127.2" r="2.5" fill="#5aa9e6"><title>2026-09-28 12:07:43
97fbf6f
7.24 ms</title></circle></g><g transform="translate(0 570)"><rect x="6" y="4" width="328" height="178" fill="none" stroke="#333"/><text x="52" y="20" font-size="11" font-weight="bold" fill="#e8e8e8">json/small</text><text x="52" y="33" font-size="9" fill="#999">3952.26 ms (-0% seit 2026-09-26)</text><line x1="52" y1="144.0" x2="324" y2="144.0" stroke="#3a3a3a"/><text x="46" y="144.0" text-anchor="end" dominant-baseline="middle" font-size="9" fill="#999">0.00</text><line x1="52" y1="92.0" x2="324" y2="92.0" stroke="#3a3a3a"/><text x="46" y="92.0" text-anchor="end" dominant-baseline="middle" font-size="9" fill="#999">3994.54</text><line x1="52" y1="40.0" x2="324" y2="40.0" stroke="#3a3a3a"/><text x="46" y="40.0" text-anchor="end" dominant-baseline="middle" font-size="9" fill="#999">7989.07</text><text x="52" y="158" font-size="9" fill="#999">2026-09-26</text><text x="324" y="158" text-anchor="end" font-size="9" fill="#999">2026-09-28</text><polyline fill="none" stroke="#5aa9e6" stroke-width="1.5" points="52.0,92.4 72.9,53.6 93.8,89.7 114.8,93.8 135.7,94.5 156.6,94.9 177.5,95.1 198.5,95.7 219.4,95.2 240.3,94.0 261.2,91.5 282.2,95.2 303.1,92.4 324.0,92.6"/><circle cx="52.0" cy="92.4" r="2.5" fill="#5aa9e6"><title>2026-09-26 15:11:30
83ef5b6+
3965.55 ms</title></circle><circle cx="72.9" cy="53.6" r="2.5" fill="#5aa9e6"><title>2026-09-26 15:12:59
83ef5b6+
6947.02 ms</title></circle><circle cx="93.8" cy="89.7" r="2.5" fill="#5aa9e6"><title>2026-09-26 15:39:45
83ef5b6+
4170.79 ms</title></circle><circle cx="114.8" cy="93.8" r="2.5" fill="#5aa9e6"><title>2026-09-26 15:40:51
83ef5b6+
3853.81 ms</title></circle><circle cx="135.7" cy="94.5" r="2.5" fill="#5aa9e6"><title>2026-09-27 06:32:21
d96f7e4+
3801.94 ms</title></circle><circle cx="156.6" cy="94.9" r="2.5" fill="#5aa9e6"><title>2026-09-27 06:52:35
d96f7e4+
3773.71 ms</title></circle><circle cx="177.5" cy="95.1" r="2.5" fill="#5aa9e6"><title>2026-09-27 10:04:44
e0f4ecf+
3752.74 ms</title></circle><circle cx="198.5" cy="95.7" r="2.5" fill="#5aa9e6"><title>2026-09-27 10:53:32
e0f4ecf+
3712.72 ms</title></circle><circle cx="219.4" cy="95.2" r="2.5" fill="#5aa9e6"><title>2026-09-27 13:20:23
4eeadb1+
3749.44 ms</title></circle><circle cx="240.3" cy="94.0" r="2.5" fill="#5aa9e6"><title>2026-09-27 13:35:28
68321d7+
3840.58 ms</title></circle><circle cx="261.2" cy="91.5" r="2.5" fill="#5aa9e6"><title>2026-09-28 10:06:11
9bf4348+
4030.71 ms</title></circle><circle cx="282.2" cy="95.2" r="2.5" fill="#5aa9e6"><title>2026-09-28 10:15:55
9bf4348+
3751.23 ms</title></circle><circle cx="303.1" cy="92.4" r="2.5" fill="#5aa9e6"><title>2026-09-28 11:57:07
8a53e5e
3960.22 ms</title></circle><circle cx="324.0" cy="92.6" r="2.5" fill="#5aa9e6"><title>2026-09-28 12:07:43
97fbf6f
3952.26 ms</title></circle></g><g transform="translate(340 570)"><rect x="6" y="4" width="328" height="178" fill="none" stroke="#333"/><text x="52" y="20" font-size="11" font-weight="bold" fill="#e8e8e8">json/large</text><text x="52" y="33" font-size="9" fill="#999">4061506.00 ms (+12% seit 2026-09-26)</text><line x1="52" y1="144.0" x2="324" y2="144.0" stroke="#3a3a3a"/><text x="46" y="144.0" text-anchor="end" dominant-baseline="middle" font-size="9" fill="#999">0.00</text><line x1="52" y1="92.0" x2="324" y2="92.0" stroke="#3a3a3a"/><text x="46" y="92.0" text-anchor="end" dominant-baseline="middle" font-size="9" fill="#999">2846596.15</text><line x1="52" y1="40.0" x2="324" y2="40.0" stroke="#3a3a3a"/><text x="46" y="40.0" text-anchor="end" dominant-baseline="middle" font-size="9" fill="#999">5693192.30</text><text x="52" y="158" font-size="9" fill="#999">2026-09-26</text><text x="324" y="158" text-anchor="end" font-size="9" fill="#999">2026-09-28</text><polyline fill="none" stroke="#5aa9e6" stroke-width="1.5" points="52.0,77.7 72.9,53.6 93.8,73.5 114.8,66.2 135.7,77.2 156.6,77.1 177.5,76.2 198.5,77.1 219.4,77.0 240.3,76.5 261.2,75.1 282.2,76.2 303.1,74.4 324.0,69.8"/><circle cx="52.0" cy="77.7" r="2.5" fill="#5aa9e6"><title>2026-09-26 15:11:30
83ef5b6+
3627718.00 ms</title></circle><circle cx="72.9" cy="53.6" r="2.5" fill="#5aa9e6"><title>2026-09-26 15:12:59
83ef5b6+
4950602.00 ms</title></circle><circle cx="93.8" cy="73.5" r="2.5" fill="#5aa9e6"><title>2026-09-26 15:39:45
83ef5b6+
3860526.00 ms</title></circle><circle cx="114.8" cy="66.2" r="2.5" fill="#5aa9e6"><title>2026-09-26 15:40:51
83ef5b6+
4256344.00 ms</title></circle><circle cx="135.7" cy="77.2" r="2.5" fill="#5aa9e6"><title>2026-09-27 06:32:21
d96f7e4+
3655976.00 ms</title></circle><circle cx="156.6" cy="77.1" r="2.5" fill="#5aa9e6"><title>2026-09-27 06:52:35
d96f7e4+
3662708.00 ms</title></circle><circle cx="177.5" cy="76.2" r="2.5" fill="#5aa9e6"><title>2026-09-27 10:04:44
e0f4ecf+
3711258.00 ms</title></circle><circle cx="198.5" cy="77.1" r="2.5" fill="#5aa9e6"><title>2026-09-27 10:53:32
e0f4ecf+
3662914.00 ms</title></circle><circle cx="219.4" cy="77.0" r="2.5" fill="#5aa9e6"><title>2026-09-27 13:20:23
4eeadb1+
3667842.00 ms</title></circle><circle cx="240.3" cy="76.5" r="2.5" fill="#5aa9e6"><title>2026-09-27 13:35:28
68321d7+
3693146.00 ms</title></circle><circle cx="261.2" cy="75.1" r="2.5" fill="#5aa9e6"><title>2026-09-28 10:06:11
9bf4348+
3772944.00 ms</title></circle><circle cx="282.2" cy="76.2" r="2.5" fill="#5aa9e6"><title>2026-09-28 10:15:55
9bf4348+
3711256.00 ms</title></circle><circle cx="303.1" cy="74.4" r="2.5" fill="#5aa9e6"><title>2026-09-28 11:57:07
8a53e5e
3811382.00 ms</title></circle><circle cx="324.0" cy="69.8" r="2.5" fill="#5aa9e6"><title>2026-09-28 12:07:43
97fbf6f
4061506.00 ms</title></circle></g><g transform="translate(0 760)"><rect x="6" y="4" width="328" height="178" fill="none" stroke="#333"/><text x="52" y="20" font-size="11" font-weight="bold" fill="#e8e8e8">json/texts</text><text x="52" y="33" font-size="9" fill="#999">464027.00 ms (-2% seit 2026-09-26)</text><line x1="52" y1="144.0" x2="324" y2="144.0" stroke="#3a3a3a"/><text x="46" y="144.0" text-anchor="end" dominant-baseline="middle" font-size="9" fill="#999">0.00</text><line x1="52" y1="92.0" x2="324" y2="92.0" stroke="#3a3a3a"/><text x="46" y="92.0" text-anchor="end" dominant-baseline="middle" font-size="9" fill="#999">274795.38</text><line x1="52" y1="40.0" x2="324" y2="40.0" stroke="#3a3a3a"/><text x="46" y="40.0" text-anchor="end" dominant-baseline="middle" font-size="9" fill="#999">549590.75</text><text x="52" y="158" font-size="9" fill="#999">2026-09-26</text><text x="324" y="158" text-anchor="end" font-size="9" fill="#999">2026-09-28</text><polyline fill="none" stroke="#5aa9e6" stroke-width="1.5" points="52.0,54.2 79.2,60.1 106.4,60.6 133.6,59.5 160.8,63.8 188.0,63.1 215.2,60.2 242.4,59.0 269.6,59.9 296.8,53.6 324.0,56.2"/><circle cx="52.0" cy="54.2" r="2.5" fill="#5aa9e6"><title>2026-09-26 15:40:51
83ef5b6+
474541.50 ms</title></circle><circle cx="79.2" cy="60.1" r="2.5" fill="#5aa9e6"><title>2026-09-27 06:32:21
d96f7e4+
443277.00 ms</title></circle><circle cx="106.4" cy="60.6" r="2.5" fill="#5aa9e6"><title>2026-09-27 06:52:35
d96f7e4+
440690.50 ms</title></circle><circle cx="133.6" cy="59.5" r="2.5" fill="#5aa9e6"><title>2026-09-27 10:04:44
e0f4ecf+
446597.50 ms</title></circle><circle cx="160.8" cy="63.8" r="2.5" fill="#5aa9e6"><title>2026-09-27 10:53:32
e0f4ecf+
423873.50 ms</title></circle><circle cx="188.0" cy="63.1" r="2.5" fill="#5aa9e6"><title>2026-09-27 13:20:23
4eeadb1+
427364.00 ms</title></circle><circle cx="215.2" cy="60.2" r="2.5" fill="#5aa9e6"><title>2026-09-27 13:35:28
68321d7+
443074.50 ms</title></circle><circle cx="242.4" cy="59.0" r="2.5" fill="#5aa9e6"><title>2026-09-28 10:06:11
9bf4348+
449361.00 ms</title></circle><circle cx="269.6" cy="59.9" r="2.5" fill="#5aa9e6"><title>2026-09-28 10:15:55
9bf4348+
444430.00 ms</title></circle><circle cx="296.8" cy="53.6" r="2.5" fill="#5aa9e6"><title>2026-09-28 11:57:07
8a53e5e
477905.00 ms</title></circle><circle cx="324.0" cy="56.2" r="2.5" fill="#5aa9e6"><title>2026-09-28 12:07:43
97fbf6f
464027.00 ms</title></circle></g></g></g></svg>