<svg xmlns="http://www.w3.org/2000/svg" width="680" height="500" font-family="sans-serif"><rect width="680" height="500" fill="#1e1e1e"/><text x="52" y="22" font-size="14" font-weight="bold" fill="#e8e8e8">Benchmarks auf ADV-DEV-56627</text><g transform="translate(0 40)"><rect x="0" y="0" width="680" height="30" fill="#252525"/><text x="52" y="22" font-size="12" font-weight="bold" fill="#e8e8e8">yugioh</text><text x="668" y="22" text-anchor="end" font-size="9" fill="#999">192 Messungen</text><g transform="translate(0 30)"><g transform="translate(0 0)"><rect x="6" y="4" width="668" height="178" fill="none" stroke="#333"/><text x="52" y="20" font-size="11" font-weight="bold" fill="#e8e8e8">parse+check</text><text x="52" y="33" font-size="9" fill="#999">1287.54 ms (-66% seit 2026-09-08)</text><line x1="52" y1="144.0" x2="664" y2="144.0" stroke="#3a3a3a"/><text x="46" y="144.0" text-anchor="end" dominant-baseline="middle" font-size="9" fill="#999">0.00</text><line x1="52" y1="92.0" x2="664" y2="92.0" stroke="#3a3a3a"/><text x="46" y="92.0" text-anchor="end" dominant-baseline="middle" font-size="9" fill="#999">7774.42</text><line x1="52" y1="40.0" x2="664" y2="40.0" stroke="#3a3a3a"/><text x="46" y="40.0" text-anchor="end" dominant-baseline="middle" font-size="9" fill="#999">15548.84</text><text x="52" y="158" font-size="9" fill="#999">2026-09-08</text><text x="664" y="158" text-anchor="end" font-size="9" fill="#999">2026-10-04</text><polyline fill="none" stroke="#5aa9e6" stroke-width="1.5" points="52.0,118.7 55.2,120.1 58.4,120.8 61.6,119.8 64.8,121.4 68.0,119.4 71.2,121.3 74.4,121.8 77.6,121.1 80.8,121.3 84.0,120.3 87.2,121.0 90.5,121.1 93.7,120.6 96.9,120.9 100.1,121.2 103.3,119.7 106.5,117.3 109.7,120.8 112.9,119.5 116.1,119.0 119.3,117.6 122.5,75.1 125.7,116.9 128.9,121.4 132.1,120.5 135.3,120.3 138.5,119.9 141.7,120.5 144.9,119.7 148.1,111.2 151.3,115.9 154.5,112.6 157.7,117.8 160.9,120.9 164.1,119.6 167.4,120.3 170.6,101.6 173.8,81.3 177.0,119.9 180.2,118.9 183.4,118.5 186.6,117.4 189.8,119.9 193.0,119.6 196.2,119.4 199.4,119.7 202.6,119.4 205.8,118.6 209.0,118.0 212.2,117.7 215.4,119.3 218.6,119.4 221.8,119.6 225.0,119.6 228.2,118.0 231.4,110.1 234.6,111.0 237.8,119.0 241.0,117.3 244.3,118.8 247.5,119.1 250.7,118.1 253.9,118.6 257.1,118.2 260.3,118.5 263.5,118.2 266.7,118.7 269.9,117.6 273.1,119.0 276.3,118.8 279.5,114.7 282.7,118.8 285.9,118.9 289.1,118.2 292.3,114.5 295.5,115.9 298.7,115.4 301.9,116.1 305.1,116.3 308.3,114.7 311.5,114.4 314.7,117.3 317.9,116.9 321.2,118.4 324.4,116.1 327.6,119.2 330.8,116.6 334.0,119.1 337.2,120.8 340.4,121.8 343.6,119.8 346.8,118.4 350.0,112.1 353.2,119.9 356.4,119.0 359.6,119.3 362.8,120.0 366.0,118.3 369.2,120.0 372.4,118.0 375.6,118.9 378.8,119.4 382.0,118.5 385.2,119.5 388.4,119.3 391.6,53.6 394.8,118.0 398.1,118.1 401.3,119.6 404.5,118.7 407.7,119.5 410.9,120.2 414.1,117.8 417.3,135.9 420.5,72.9 423.7,134.5 426.9,135.1 430.1,134.2 433.3,134.7 436.5,134.9 439.7,135.3 442.9,129.2 446.1,130.1 449.3,130.3 452.5,134.7 455.7,135.0 458.9,135.0 462.1,135.2 465.3,135.4 468.5,133.9 471.7,133.3 475.0,133.6 478.2,134.3 481.4,134.8 484.6,134.2 487.8,134.7 491.0,134.8 494.2,133.7 497.4,134.7 500.6,134.0 503.8,134.7 507.0,134.0 510.2,134.8 513.4,134.8 516.6,134.4 519.8,134.7 523.0,133.6 526.2,133.6 529.4,134.2 532.6,130.9 535.8,134.2 539.0,131.9 542.2,133.6 545.4,133.2 548.6,132.8 551.9,133.1 555.1,133.1 558.3,133.1 561.5,133.9 564.7,133.9 567.9,133.3 571.1,131.6 574.3,133.1 577.5,133.4 580.7,133.1 583.9,131.3 587.1,133.5 590.3,128.0 593.5,128.1 596.7,133.1 599.9,119.0 603.1,132.4 606.3,132.7 609.5,132.9 612.7,133.6 615.9,132.5 619.1,133.8 622.3,133.0 625.5,133.5 628.8,131.5 632.0,132.8 635.2,133.3 638.4,133.2 641.6,132.1 644.8,132.5 648.0,132.4 651.2,132.0 654.4,132.9 657.6,133.0 660.8,133.4 664.0,135.4"/><circle cx="52.0" cy="118.7" r="2.5" fill="#5aa9e6"><title>2026-09-08 11:10:48
78cb717+
3778.63 ms</title></circle><circle cx="55.2" cy="120.1" r="2.5" fill="#5aa9e6"><title>2026-09-08 15:38:38
58b008f+
3574.07 ms</title></circle><circle cx="58.4" cy="120.8" r="2.5" fill="#5aa9e6"><title>2026-09-08 15:55:19
58b008f+
3470.54 ms</title></circle><circle cx="61.6" cy="119.8" r="2.5" fill="#5aa9e6"><title>2026-09-09 10:10:45
4bc1cab+
3612.75 ms</title></circle><circle cx="64.8" cy="121.4" r="2.5" fill="#5aa9e6"><title>2026-09-09 10:32:05
4bc1cab+
3382.16 ms</title></circle><circle cx="68.0" cy="119.4" r="2.5" fill="#5aa9e6"><title>2026-09-09 11:24:34
2f37659+
3684.55 ms</title></circle><circle cx="71.2" cy="121.3" r="2.5" fill="#5aa9e6"><title>2026-09-09 14:23:34
2f37659+
3397.82 ms</title></circle><circle cx="74.4" cy="121.8" r="2.5" fill="#5aa9e6"><title>2026-09-09 18:44:40
2961841
3316.90 ms</title></circle><circle cx="77.6" cy="121.1" r="2.5" fill="#5aa9e6"><title>2026-09-09 19:15:16
2961841+
3419.49 ms</title></circle><circle cx="80.8" cy="121.3" r="2.5" fill="#5aa9e6"><title>2026-09-09 20:10:35
c494862+
3390.08 ms</title></circle><circle cx="84.0" cy="120.3" r="2.5" fill="#5aa9e6"><title>2026-09-09 22:08:08
4f4700e+
3544.51 ms</title></circle><circle cx="87.2" cy="121.0" r="2.5" fill="#5aa9e6"><title>2026-09-10 09:47:53
3dae426+
3433.64 ms</title></circle><circle cx="90.5" cy="121.1" r="2.5" fill="#5aa9e6"><title>2026-09-10 10:06:41
1cb6051+
3425.68 ms</title></circle><circle cx="93.7" cy="120.6" r="2.5" fill="#5aa9e6"><title>2026-09-10 10:35:04
bd049c8+
3495.44 ms</title></circle><circle cx="96.9" cy="120.9" r="2.5" fill="#5aa9e6"><title>2026-09-10 12:19:19
139fbde+
3460.11 ms</title></circle><circle cx="100.1" cy="121.2" r="2.5" fill="#5aa9e6"><title>2026-09-10 12:22:12
139fbde+
3402.61 ms</title></circle><circle cx="103.3" cy="119.7" r="2.5" fill="#5aa9e6"><title>2026-09-10 12:38:01
9d05a26+
3627.45 ms</title></circle><circle cx="106.5" cy="117.3" r="2.5" fill="#5aa9e6"><title>2026-09-10 12:41:04
9d05a26+
3993.20 ms</title></circle><circle cx="109.7" cy="120.8" r="2.5" fill="#5aa9e6"><title>2026-09-10 14:12:55
0dbc86b
3469.60 ms</title></circle><circle cx="112.9" cy="119.5" r="2.5" fill="#5aa9e6"><title>2026-09-10 14:31:07
66641a8+
3665.74 ms</title></circle><circle cx="116.1" cy="119.0" r="2.5" fill="#5aa9e6"><title>2026-09-10 14:35:56
977056a+
3744.47 ms</title></circle><circle cx="119.3" cy="117.6" r="2.5" fill="#5aa9e6"><title>2026-09-10 14:45:03
9fb37a0+
3942.61 ms</title></circle><circle cx="122.5" cy="75.1" r="2.5" fill="#5aa9e6"><title>2026-09-10 14:59:54
9c22e50+
10294.39 ms</title></circle><circle cx="125.7" cy="116.9" r="2.5" fill="#5aa9e6"><title>2026-09-10 15:03:38
9c22e50+
4046.82 ms</title></circle><circle cx="128.9" cy="121.4" r="2.5" fill="#5aa9e6"><title>2026-09-10 15:23:19
7db6623+
3383.02 ms</title></circle><circle cx="132.1" cy="120.5" r="2.5" fill="#5aa9e6"><title>2026-09-10 15:37:09
16c5e89+
3515.81 ms</title></circle><circle cx="135.3" cy="120.3" r="2.5" fill="#5aa9e6"><title>2026-09-10 15:48:06
2277f04+
3550.16 ms</title></circle><circle cx="138.5" cy="119.9" r="2.5" fill="#5aa9e6"><title>2026-09-10 16:01:55
733e44d+
3601.40 ms</title></circle><circle cx="141.7" cy="120.5" r="2.5" fill="#5aa9e6"><title>2026-09-10 16:08:43
a35c8ba+
3512.89 ms</title></circle><circle cx="144.9" cy="119.7" r="2.5" fill="#5aa9e6"><title>2026-09-10 16:15:52
dca69d5+
3629.24 ms</title></circle><circle cx="148.1" cy="111.2" r="2.5" fill="#5aa9e6"><title>2026-09-10 16:22:14
dca69d5+
4898.61 ms</title></circle><circle cx="151.3" cy="115.9" r="2.5" fill="#5aa9e6"><title>2026-09-10 16:45:12
dca69d5+
4208.41 ms</title></circle><circle cx="154.5" cy="112.6" r="2.5" fill="#5aa9e6"><title>2026-09-10 17:12:56
ea2a1f3+
4697.28 ms</title></circle><circle cx="157.7" cy="117.8" r="2.5" fill="#5aa9e6"><title>2026-09-10 17:25:13
7ed9a84+
3913.62 ms</title></circle><circle cx="160.9" cy="120.9" r="2.5" fill="#5aa9e6"><title>2026-09-10 17:45:18
7ed9a84+
3453.40 ms</title></circle><circle cx="164.1" cy="119.6" r="2.5" fill="#5aa9e6"><title>2026-09-10 17:55:59
398e670+
3652.58 ms</title></circle><circle cx="167.4" cy="120.3" r="2.5" fill="#5aa9e6"><title>2026-09-10 18:11:17
a1efc13+
3543.16 ms</title></circle><circle cx="170.6" cy="101.6" r="2.5" fill="#5aa9e6"><title>2026-09-11 08:37:52
67e9c86+
6333.85 ms</title></circle><circle cx="173.8" cy="81.3" r="2.5" fill="#5aa9e6"><title>2026-09-11 09:11:59
837efef+
9368.46 ms</title></circle><circle cx="177.0" cy="119.9" r="2.5" fill="#5aa9e6"><title>2026-09-11 09:23:39
837efef+
3601.33 ms</title></circle><circle cx="180.2" cy="118.9" r="2.5" fill="#5aa9e6"><title>2026-09-11 09:42:05
9e714a1+
3753.73 ms</title></circle><circle cx="183.4" cy="118.5" r="2.5" fill="#5aa9e6"><title>2026-09-11 15:40:30
549a23b+
3807.36 ms</title></circle><circle cx="186.6" cy="117.4" r="2.5" fill="#5aa9e6"><title>2026-09-11 17:04:23
d8bb361+
3972.56 ms</title></circle><circle cx="189.8" cy="119.9" r="2.5" fill="#5aa9e6"><title>2026-09-11 19:30:11
2a27a92+
3607.67 ms</title></circle><circle cx="193.0" cy="119.6" r="2.5" fill="#5aa9e6"><title>2026-09-11 23:25:44
e0beea7
3655.47 ms</title></circle><circle cx="196.2" cy="119.4" r="2.5" fill="#5aa9e6"><title>2026-09-11 23:29:37
e0beea7+
3674.17 ms</title></circle><circle cx="199.4" cy="119.7" r="2.5" fill="#5aa9e6"><title>2026-09-11 23:34:05
dfd708d+
3638.65 ms</title></circle><circle cx="202.6" cy="119.4" r="2.5" fill="#5aa9e6"><title>2026-09-11 23:55:53
8899bc6+
3677.67 ms</title></circle><circle cx="205.8" cy="118.6" r="2.5" fill="#5aa9e6"><title>2026-09-12 00:01:20
8899bc6+
3800.17 ms</title></circle><circle cx="209.0" cy="118.0" r="2.5" fill="#5aa9e6"><title>2026-09-12 00:14:24
6b05802+
3884.05 ms</title></circle><circle cx="212.2" cy="117.7" r="2.5" fill="#5aa9e6"><title>2026-09-12 00:29:43
6b05802+
3927.75 ms</title></circle><circle cx="215.4" cy="119.3" r="2.5" fill="#5aa9e6"><title>2026-09-12 01:02:44
49d047c+
3696.56 ms</title></circle><circle cx="218.6" cy="119.4" r="2.5" fill="#5aa9e6"><title>2026-09-12 01:20:50
49d047c+
3679.63 ms</title></circle><circle cx="221.8" cy="119.6" r="2.5" fill="#5aa9e6"><title>2026-09-12 01:48:53
06da68e+
3645.90 ms</title></circle><circle cx="225.0" cy="119.6" r="2.5" fill="#5aa9e6"><title>2026-09-12 13:24:06
68c1f99+
3652.50 ms</title></circle><circle cx="228.2" cy="118.0" r="2.5" fill="#5aa9e6"><title>2026-09-12 14:28:22
6a2fb8d+
3888.90 ms</title></circle><circle cx="231.4" cy="110.1" r="2.5" fill="#5aa9e6"><title>2026-09-12 14:31:18
6a2fb8d+
5070.34 ms</title></circle><circle cx="234.6" cy="111.0" r="2.5" fill="#5aa9e6"><title>2026-09-12 14:34:45
6a2fb8d+
4939.52 ms</title></circle><circle cx="237.8" cy="119.0" r="2.5" fill="#5aa9e6"><title>2026-09-12 19:38:50
e4ac2d6+
3733.65 ms</title></circle><circle cx="241.0" cy="117.3" r="2.5" fill="#5aa9e6"><title>2026-09-12 20:01:53
4dc8177+
3985.65 ms</title></circle><circle cx="244.3" cy="118.8" r="2.5" fill="#5aa9e6"><title>2026-09-12 20:06:48
c30feb6
3774.58 ms</title></circle><circle cx="247.5" cy="119.1" r="2.5" fill="#5aa9e6"><title>2026-09-12 20:13:48
c30feb6+
3726.04 ms</title></circle><circle cx="250.7" cy="118.1" r="2.5" fill="#5aa9e6"><title>2026-09-12 20:26:20
71ccc28+
3867.61 ms</title></circle><circle cx="253.9" cy="118.6" r="2.5" fill="#5aa9e6"><title>2026-09-12 20:34:32
71ccc28+
3792.08 ms</title></circle><circle cx="257.1" cy="118.2" r="2.5" fill="#5aa9e6"><title>2026-09-12 21:14:50
1b9aaf6+
3863.89 ms</title></circle><circle cx="260.3" cy="118.5" r="2.5" fill="#5aa9e6"><title>2026-09-12 21:20:47
fe73419+
3806.14 ms</title></circle><circle cx="263.5" cy="118.2" r="2.5" fill="#5aa9e6"><title>2026-09-13 06:57:26
b985b0b+
3862.21 ms</title></circle><circle cx="266.7" cy="118.7" r="2.5" fill="#5aa9e6"><title>2026-09-13 07:18:34
1c92171
3775.60 ms</title></circle><circle cx="269.9" cy="117.6" r="2.5" fill="#5aa9e6"><title>2026-09-13 07:19:05
1c92171+
3946.74 ms</title></circle><circle cx="273.1" cy="119.0" r="2.5" fill="#5aa9e6"><title>2026-09-13 07:19:59
1c92171+
3737.96 ms</title></circle><circle cx="276.3" cy="118.8" r="2.5" fill="#5aa9e6"><title>2026-09-13 07:20:55
1c92171+
3774.32 ms</title></circle><circle cx="279.5" cy="114.7" r="2.5" fill="#5aa9e6"><title>2026-09-13 07:34:23
b3c389c+
4382.56 ms</title></circle><circle cx="282.7" cy="118.8" r="2.5" fill="#5aa9e6"><title>2026-09-13 07:35:50
b3c389c+
3770.70 ms</title></circle><circle cx="285.9" cy="118.9" r="2.5" fill="#5aa9e6"><title>2026-09-13 07:41:50
b3c389c+
3753.91 ms</title></circle><circle cx="289.1" cy="118.2" r="2.5" fill="#5aa9e6"><title>2026-09-13 08:19:36
0fe302e+
3854.47 ms</title></circle><circle cx="292.3" cy="114.5" r="2.5" fill="#5aa9e6"><title>2026-09-13 09:05:03
5726ca5+
4403.79 ms</title></circle><circle cx="295.5" cy="115.9" r="2.5" fill="#5aa9e6"><title>2026-09-13 09:11:00
5726ca5+
4199.44 ms</title></circle><circle cx="298.7" cy="115.4" r="2.5" fill="#5aa9e6"><title>2026-09-13 10:40:52
020b631
4270.42 ms</title></circle><circle cx="301.9" cy="116.1" r="2.5" fill="#5aa9e6"><title>2026-09-13 10:41:34
020b631+
4163.98 ms</title></circle><circle cx="305.1" cy="116.3" r="2.5" fill="#5aa9e6"><title>2026-09-13 10:48:48
730a947
4137.05 ms</title></circle><circle cx="308.3" cy="114.7" r="2.5" fill="#5aa9e6"><title>2026-09-13 11:59:24
0fd01d0+
4387.37 ms</title></circle><circle cx="311.5" cy="114.4" r="2.5" fill="#5aa9e6"><title>2026-09-13 12:04:27
0fd01d0+
4421.66 ms</title></circle><circle cx="314.7" cy="117.3" r="2.5" fill="#5aa9e6"><title>2026-09-13 12:16:31
bef9732
3991.98 ms</title></circle><circle cx="317.9" cy="116.9" r="2.5" fill="#5aa9e6"><title>2026-09-13 12:27:13
7046c1e+
4046.44 ms</title></circle><circle cx="321.2" cy="118.4" r="2.5" fill="#5aa9e6"><title>2026-09-13 12:36:33
e115c97+
3828.26 ms</title></circle><circle cx="324.4" cy="116.1" r="2.5" fill="#5aa9e6"><title>2026-09-13 13:22:29
a6856e4
4176.43 ms</title></circle><circle cx="327.6" cy="119.2" r="2.5" fill="#5aa9e6"><title>2026-09-16 11:37:47
8509628
3701.78 ms</title></circle><circle cx="330.8" cy="116.6" r="2.5" fill="#5aa9e6"><title>2026-09-16 11:57:32
8509628+
4090.96 ms</title></circle><circle cx="334.0" cy="119.1" r="2.5" fill="#5aa9e6"><title>2026-09-16 16:45:48
5038bbd
3721.21 ms</title></circle><circle cx="337.2" cy="120.8" r="2.5" fill="#5aa9e6"><title>2026-09-17 12:21:19
0fbf0cf
3473.96 ms</title></circle><circle cx="340.4" cy="121.8" r="2.5" fill="#5aa9e6"><title>2026-09-21 09:35:00
eedaa94
3312.24 ms</title></circle><circle cx="343.6" cy="119.8" r="2.5" fill="#5aa9e6"><title>2026-09-21 09:35:25
2836862+
3613.71 ms</title></circle><circle cx="346.8" cy="118.4" r="2.5" fill="#5aa9e6"><title>2026-09-22 10:13:01
546656d+
3824.12 ms</title></circle><circle cx="350.0" cy="112.1" r="2.5" fill="#5aa9e6"><title>2026-09-22 10:29:51
546656d+
4775.74 ms</title></circle><circle cx="353.2" cy="119.9" r="2.5" fill="#5aa9e6"><title>2026-09-22 17:39:19
d4ec271+
3610.47 ms</title></circle><circle cx="356.4" cy="119.0" r="2.5" fill="#5aa9e6"><title>2026-09-22 17:50:22
2452abf+
3737.80 ms</title></circle><circle cx="359.6" cy="119.3" r="2.5" fill="#5aa9e6"><title>2026-09-22 17:52:57
2452abf+
3698.49 ms</title></circle><circle cx="362.8" cy="120.0" r="2.5" fill="#5aa9e6"><title>2026-09-23 09:08:01
b7693a9
3584.53 ms</title></circle><circle cx="366.0" cy="118.3" r="2.5" fill="#5aa9e6"><title>2026-09-23 09:45:27
fc0dbc8+
3846.65 ms</title></circle><circle cx="369.2" cy="120.0" r="2.5" fill="#5aa9e6"><title>2026-09-23 11:02:21
2635535
3589.39 ms</title></circle><circle cx="372.4" cy="118.0" r="2.5" fill="#5aa9e6"><title>2026-09-23 11:40:46
ba86e2f+
3882.63 ms</title></circle><circle cx="375.6" cy="118.9" r="2.5" fill="#5aa9e6"><title>2026-09-23 12:01:27
1e7f2d7+
3752.40 ms</title></circle><circle cx="378.8" cy="119.4" r="2.5" fill="#5aa9e6"><title>2026-09-23 12:06:46
1e7f2d7+
3681.27 ms</title></circle><circle cx="382.0" cy="118.5" r="2.5" fill="#5aa9e6"><title>2026-09-23 12:29:29
1e7f2d7+
3817.61 ms</title></circle><circle cx="385.2" cy="119.5" r="2.5" fill="#5aa9e6"><title>2026-09-23 13:01:29
a814359+
3670.00 ms</title></circle><circle cx="388.4" cy="119.3" r="2.5" fill="#5aa9e6"><title>2026-09-24 08:45:53
177a7bd+
3693.47 ms</title></circle><circle cx="391.6" cy="53.6" r="2.5" fill="#5aa9e6"><title>2026-09-24 08:58:37
17cd907
13520.73 ms</title></circle><circle cx="394.8" cy="118.0" r="2.5" fill="#5aa9e6"><title>2026-09-24 09:01:24
17cd907+
3885.73 ms</title></circle><circle cx="398.1" cy="118.1" r="2.5" fill="#5aa9e6"><title>2026-09-24 15:33:51
a744a34+
3868.64 ms</title></circle><circle cx="401.3" cy="119.6" r="2.5" fill="#5aa9e6"><title>2026-09-24 18:38:03
3a09593
3643.33 ms</title></circle><circle cx="404.5" cy="118.7" r="2.5" fill="#5aa9e6"><title>2026-09-24 18:55:49
a859d87+
3778.63 ms</title></circle><circle cx="407.7" cy="119.5" r="2.5" fill="#5aa9e6"><title>2026-09-24 19:32:57
aa873a6+
3668.01 ms</title></circle><circle cx="410.9" cy="120.2" r="2.5" fill="#5aa9e6"><title>2026-09-24 19:35:14
aa873a6+
3561.63 ms</title></circle><circle cx="414.1" cy="117.8" r="2.5" fill="#5aa9e6"><title>2026-09-24 19:45:43
4d0d742+
3919.89 ms</title></circle><circle cx="417.3" cy="135.9" r="2.5" fill="#5aa9e6"><title>2026-09-24 20:34:09
4d0d742+
1204.95 ms</title></circle><circle cx="420.5" cy="72.9" r="2.5" fill="#5aa9e6"><title>2026-09-25 08:31:25
600ec3f+
10635.22 ms</title></circle><circle cx="423.7" cy="134.5" r="2.5" fill="#5aa9e6"><title>2026-09-25 08:48:47
600ec3f+
1418.32 ms</title></circle><circle cx="426.9" cy="135.1" r="2.5" fill="#5aa9e6"><title>2026-09-25 10:16:23
c68184a+
1336.54 ms</title></circle><circle cx="430.1" cy="134.2" r="2.5" fill="#5aa9e6"><title>2026-09-25 10:30:14
7e26875+
1464.30 ms</title></circle><circle cx="433.3" cy="134.7" r="2.5" fill="#5aa9e6"><title>2026-09-25 10:50:18
ef8cdeb+
1387.12 ms</title></circle><circle cx="436.5" cy="134.9" r="2.5" fill="#5aa9e6"><title>2026-09-25 10:56:22
ef8cdeb+
1361.24 ms</title></circle><circle cx="439.7" cy="135.3" r="2.5" fill="#5aa9e6"><title>2026-09-25 11:05:24
c01e970+
1305.46 ms</title></circle><circle cx="442.9" cy="129.2" r="2.5" fill="#5aa9e6"><title>2026-09-25 11:31:43
cd3399c+
2217.95 ms</title></circle><circle cx="446.1" cy="130.1" r="2.5" fill="#5aa9e6"><title>2026-09-25 11:46:47
72972ac
2083.42 ms</title></circle><circle cx="449.3" cy="130.3" r="2.5" fill="#5aa9e6"><title>2026-09-25 11:54:38
72972ac+
2042.38 ms</title></circle><circle cx="452.5" cy="134.7" r="2.5" fill="#5aa9e6"><title>2026-09-25 13:33:13
6fc3cdc+
1384.78 ms</title></circle><circle cx="455.7" cy="135.0" r="2.5" fill="#5aa9e6"><title>2026-09-25 13:52:44
6fc3cdc+
1345.34 ms</title></circle><circle cx="458.9" cy="135.0" r="2.5" fill="#5aa9e6"><title>2026-09-25 14:04:05
b637150+
1345.27 ms</title></circle><circle cx="462.1" cy="135.2" r="2.5" fill="#5aa9e6"><title>2026-09-26 10:06:41
17c9c34
1316.85 ms</title></circle><circle cx="465.3" cy="135.4" r="2.5" fill="#5aa9e6"><title>2026-09-26 10:18:40
17c9c34+
1290.38 ms</title></circle><circle cx="468.5" cy="133.9" r="2.5" fill="#5aa9e6"><title>2026-09-26 10:54:09
595b0b9
1512.24 ms</title></circle><circle cx="471.7" cy="133.3" r="2.5" fill="#5aa9e6"><title>2026-09-26 14:52:46
8084930+
1599.96 ms</title></circle><circle cx="475.0" cy="133.6" r="2.5" fill="#5aa9e6"><title>2026-09-26 15:04:38
8084930+
1551.87 ms</title></circle><circle cx="478.2" cy="134.3" r="2.5" fill="#5aa9e6"><title>2026-09-26 15:11:45
83ef5b6+
1451.85 ms</title></circle><circle cx="481.4" cy="134.8" r="2.5" fill="#5aa9e6"><title>2026-09-26 15:13:08
83ef5b6+
1371.09 ms</title></circle><circle cx="484.6" cy="134.2" r="2.5" fill="#5aa9e6"><title>2026-09-26 15:41:09
83ef5b6+
1466.04 ms</title></circle><circle cx="487.8" cy="134.7" r="2.5" fill="#5aa9e6"><title>2026-09-26 15:58:36
c0e2241+
1397.29 ms</title></circle><circle cx="491.0" cy="134.8" r="2.5" fill="#5aa9e6"><title>2026-09-26 16:00:52
c0e2241+
1378.00 ms</title></circle><circle cx="494.2" cy="133.7" r="2.5" fill="#5aa9e6"><title>2026-09-27 08:42:14
291a43e+
1533.06 ms</title></circle><circle cx="497.4" cy="134.7" r="2.5" fill="#5aa9e6"><title>2026-09-27 08:45:45
291a43e+
1393.71 ms</title></circle><circle cx="500.6" cy="134.0" r="2.5" fill="#5aa9e6"><title>2026-09-27 10:04:37
e0f4ecf+
1497.49 ms</title></circle><circle cx="503.8" cy="134.7" r="2.5" fill="#5aa9e6"><title>2026-09-27 10:21:19
e0f4ecf+
1392.26 ms</title></circle><circle cx="507.0" cy="134.0" r="2.5" fill="#5aa9e6"><title>2026-09-27 10:53:25
e0f4ecf+
1497.74 ms</title></circle><circle cx="510.2" cy="134.8" r="2.5" fill="#5aa9e6"><title>2026-09-27 12:32:13
ef1a297
1378.01 ms</title></circle><circle cx="513.4" cy="134.8" r="2.5" fill="#5aa9e6"><title>2026-09-27 12:36:58
ef1a297+
1374.34 ms</title></circle><circle cx="516.6" cy="134.4" r="2.5" fill="#5aa9e6"><title>2026-09-27 12:45:18
3e6ecd3+
1434.65 ms</title></circle><circle cx="519.8" cy="134.7" r="2.5" fill="#5aa9e6"><title>2026-09-27 12:48:07
3e6ecd3+
1396.82 ms</title></circle><circle cx="523.0" cy="133.6" r="2.5" fill="#5aa9e6"><title>2026-09-27 12:56:35
3e6ecd3+
1557.98 ms</title></circle><circle cx="526.2" cy="133.6" r="2.5" fill="#5aa9e6"><title>2026-09-27 13:00:00
3e6ecd3+
1549.36 ms</title></circle><circle cx="529.4" cy="134.2" r="2.5" fill="#5aa9e6"><title>2026-09-27 13:35:20
68321d7+
1461.89 ms</title></circle><circle cx="532.6" cy="130.9" r="2.5" fill="#5aa9e6"><title>2026-09-27 14:17:04
3d7bf03+
1955.89 ms</title></circle><circle cx="535.8" cy="134.2" r="2.5" fill="#5aa9e6"><title>2026-09-27 14:21:04
3d7bf03+
1459.32 ms</title></circle><circle cx="539.0" cy="131.9" r="2.5" fill="#5aa9e6"><title>2026-09-27 16:02:17
61f2e0a+
1816.20 ms</title></circle><circle cx="542.2" cy="133.6" r="2.5" fill="#5aa9e6"><title>2026-09-27 17:01:36
12d5738+
1560.84 ms</title></circle><circle cx="545.4" cy="133.2" r="2.5" fill="#5aa9e6"><title>2026-09-27 17:12:10
12d5738+
1615.21 ms</title></circle><circle cx="548.6" cy="132.8" r="2.5" fill="#5aa9e6"><title>2026-09-27 17:29:06
56028fa+
1681.10 ms</title></circle><circle cx="551.9" cy="133.1" r="2.5" fill="#5aa9e6"><title>2026-09-27 17:36:13
614d410+
1622.69 ms</title></circle><circle cx="555.1" cy="133.1" r="2.5" fill="#5aa9e6"><title>2026-09-27 17:40:32
614d410+
1635.74 ms</title></circle><circle cx="558.3" cy="133.1" r="2.5" fill="#5aa9e6"><title>2026-09-27 17:42:14
614d410+
1624.30 ms</title></circle><circle cx="561.5" cy="133.9" r="2.5" fill="#5aa9e6"><title>2026-09-27 17:52:11
d407122+
1502.91 ms</title></circle><circle cx="564.7" cy="133.9" r="2.5" fill="#5aa9e6"><title>2026-09-27 17:55:42
d407122+
1505.89 ms</title></circle><circle cx="567.9" cy="133.3" r="2.5" fill="#5aa9e6"><title>2026-09-27 18:03:05
a7a4322+
1595.56 ms</title></circle><circle cx="571.1" cy="131.6" r="2.5" fill="#5aa9e6"><title>2026-09-28 07:44:47
5e8794e+
1850.17 ms</title></circle><circle cx="574.3" cy="133.1" r="2.5" fill="#5aa9e6"><title>2026-09-28 07:55:13
5e8794e+
1635.78 ms</title></circle><circle cx="577.5" cy="133.4" r="2.5" fill="#5aa9e6"><title>2026-09-28 08:53:12
2a6346f+
1577.81 ms</title></circle><circle cx="580.7" cy="133.1" r="2.5" fill="#5aa9e6"><title>2026-09-28 09:01:18
275c6a5+
1630.24 ms</title></circle><circle cx="583.9" cy="131.3" r="2.5" fill="#5aa9e6"><title>2026-09-28 12:04:20
8a53e5e+
1893.57 ms</title></circle><circle cx="587.1" cy="133.5" r="2.5" fill="#5aa9e6"><title>2026-09-28 12:07:35
8a53e5e+
1573.37 ms</title></circle><circle cx="590.3" cy="128.0" r="2.5" fill="#5aa9e6"><title>2026-09-30 08:23:08
5eaac45
2389.46 ms</title></circle><circle cx="593.5" cy="128.1" r="2.5" fill="#5aa9e6"><title>2026-09-30 08:23:22
5eaac45+
2382.98 ms</title></circle><circle cx="596.7" cy="133.1" r="2.5" fill="#5aa9e6"><title>2026-09-30 09:07:25
613c1d9+
1635.80 ms</title></circle><circle cx="599.9" cy="119.0" r="2.5" fill="#5aa9e6"><title>2026-09-30 09:18:31
613c1d9+
3732.47 ms</title></circle><circle cx="603.1" cy="132.4" r="2.5" fill="#5aa9e6"><title>2026-09-30 09:20:33
613c1d9+
1727.19 ms</title></circle><circle cx="606.3" cy="132.7" r="2.5" fill="#5aa9e6"><title>2026-09-30 09:28:13
429a8d6+
1685.89 ms</title></circle><circle cx="609.5" cy="132.9" r="2.5" fill="#5aa9e6"><title>2026-09-30 09:44:12
b9ffa16+
1662.10 ms</title></circle><circle cx="612.7" cy="133.6" r="2.5" fill="#5aa9e6"><title>2026-10-03 10:09:49
021a522+
1548.38 ms</title></circle><circle cx="615.9" cy="132.5" r="2.5" fill="#5aa9e6"><title>2026-10-03 10:19:42
fafba6d+
1715.48 ms</title></circle><circle cx="619.1" cy="133.8" r="2.5" fill="#5aa9e6"><title>2026-10-03 10:36:34
e295194+
1525.03 ms</title></circle><circle cx="622.3" cy="133.0" r="2.5" fill="#5aa9e6"><title>2026-10-03 10:54:40
297a9f1+
1638.41 ms</title></circle><circle cx="625.5" cy="133.5" r="2.5" fill="#5aa9e6"><title>2026-10-03 11:01:54
3ea25f6+
1567.88 ms</title></circle><circle cx="628.8" cy="131.5" r="2.5" fill="#5aa9e6"><title>2026-10-03 11:06:06
1060dc0+
1872.49 ms</title></circle><circle cx="632.0" cy="132.8" r="2.5" fill="#5aa9e6"><title>2026-10-03 11:18:22
9e1f78e+
1677.05 ms</title></circle><circle cx="635.2" cy="133.3" r="2.5" fill="#5aa9e6"><title>2026-10-03 11:32:39
9199117+
1596.35 ms</title></circle><circle cx="638.4" cy="133.2" r="2.5" fill="#5aa9e6"><title>2026-10-03 11:34:31
9199117+
1622.13 ms</title></circle><circle cx="641.6" cy="132.1" r="2.5" fill="#5aa9e6"><title>2026-10-03 11:57:47
472ac9c+
1778.85 ms</title></circle><circle cx="644.8" cy="132.5" r="2.5" fill="#5aa9e6"><title>2026-10-03 12:12:20
4b0c129+
1725.73 ms</title></circle><circle cx="648.0" cy="132.4" r="2.5" fill="#5aa9e6"><title>2026-10-03 15:06:03
a9dfd05+
1738.85 ms</title></circle><circle cx="651.2" cy="132.0" r="2.5" fill="#5aa9e6"><title>2026-10-03 15:08:57
a9dfd05+
1792.86 ms</title></circle><circle cx="654.4" cy="132.9" r="2.5" fill="#5aa9e6"><title>2026-10-03 16:01:35
b59a87f+
1655.79 ms</title></circle><circle cx="657.6" cy="133.0" r="2.5" fill="#5aa9e6"><title>2026-10-03 16:46:44
bced935+
1648.83 ms</title></circle><circle cx="660.8" cy="133.4" r="2.5" fill="#5aa9e6"><title>2026-10-04 07:05:50
5f6429f
1578.17 ms</title></circle><circle cx="664.0" cy="135.4" r="2.5" fill="#5aa9e6"><title>2026-10-04 07:10:25
5f6429f+
1287.54 ms</title></circle></g></g></g><g transform="translate(0 260)"><rect x="0" y="0" width="680" height="30" fill="#252525"/><text x="52" y="22" font-size="12" font-weight="bold" fill="#e8e8e8">jul-examples</text><text x="668" y="22" text-anchor="end" font-size="9" fill="#999">3 Messungen</text><g transform="translate(0 30)"><g transform="translate(0 0)"><rect x="6" y="4" width="668" height="178" fill="none" stroke="#333"/><text x="52" y="20" font-size="11" font-weight="bold" fill="#e8e8e8">parse+check</text><text x="52" y="33" font-size="9" fill="#999">19.45 ms (-9% seit 2026-09-09)</text><line x1="52" y1="144.0" x2="664" y2="144.0" stroke="#3a3a3a"/><text x="46" y="144.0" text-anchor="end" dominant-baseline="middle" font-size="9" fill="#999">0.00</text><line x1="52" y1="92.0" x2="664" y2="92.0" stroke="#3a3a3a"/><text x="46" y="92.0" text-anchor="end" dominant-baseline="middle" font-size="9" fill="#999">12.23</text><line x1="52" y1="40.0" x2="664" y2="40.0" stroke="#3a3a3a"/><text x="46" y="40.0" text-anchor="end" dominant-baseline="middle" font-size="9" fill="#999">24.46</text><text x="52" y="158" font-size="9" fill="#999">2026-09-09</text><text x="664" y="158" text-anchor="end" font-size="9" fill="#999">2026-09-10</text><polyline fill="none" stroke="#5aa9e6" stroke-width="1.5" points="52.0,53.6 358.0,58.1 664.0,61.3"/><circle cx="52.0" cy="53.6" r="2.5" fill="#5aa9e6"><title>2026-09-09 22:08:42
4f4700e+
21.27 ms</title></circle><circle cx="358.0" cy="58.1" r="2.5" fill="#5aa9e6"><title>2026-09-09 22:28:47
4f4700e+
20.20 ms</title></circle><circle cx="664.0" cy="61.3" r="2.5" fill="#5aa9e6"><title>2026-09-10 09:43:20
3dae426+
19.45 ms</title></circle></g></g></g></svg>