<svg xmlns="http://www.w3.org/2000/svg" width="680" height="500" font-family="sans-serif"><rect width="680" height="500" fill="#1e1e1e"/><text x="52" y="22" font-size="14" font-weight="bold" fill="#e8e8e8">Benchmarks auf ADV-DEV-56627</text><g transform="translate(0 40)"><rect x="0" y="0" width="680" height="30" fill="#252525"/><text x="52" y="22" font-size="12" font-weight="bold" fill="#e8e8e8">yugioh</text><text x="668" y="22" text-anchor="end" font-size="9" fill="#999">164 Messungen</text><g transform="translate(0 30)"><g transform="translate(0 0)"><rect x="6" y="4" width="668" height="178" fill="none" stroke="#333"/><text x="52" y="20" font-size="11" font-weight="bold" fill="#e8e8e8">parse+check</text><text x="52" y="33" font-size="9" fill="#999">1635.78 ms (-57% seit 2026-09-08)</text><line x1="52" y1="144.0" x2="664" y2="144.0" stroke="#3a3a3a"/><text x="46" y="144.0" text-anchor="end" dominant-baseline="middle" font-size="9" fill="#999">0.00</text><line x1="52" y1="92.0" x2="664" y2="92.0" stroke="#3a3a3a"/><text x="46" y="92.0" text-anchor="end" dominant-baseline="middle" font-size="9" fill="#999">7774.42</text><line x1="52" y1="40.0" x2="664" y2="40.0" stroke="#3a3a3a"/><text x="46" y="40.0" text-anchor="end" dominant-baseline="middle" font-size="9" fill="#999">15548.84</text><text x="52" y="158" font-size="9" fill="#999">2026-09-08</text><text x="664" y="158" text-anchor="end" font-size="9" fill="#999">2026-09-28</text><polyline fill="none" stroke="#5aa9e6" stroke-width="1.5" points="52.0,118.7 55.8,120.1 59.5,120.8 63.3,119.8 67.0,121.4 70.8,119.4 74.5,121.3 78.3,121.8 82.0,121.1 85.8,121.3 89.5,120.3 93.3,121.0 97.1,121.1 100.8,120.6 104.6,120.9 108.3,121.2 112.1,119.7 115.8,117.3 119.6,120.8 123.3,119.5 127.1,119.0 130.8,117.6 134.6,75.1 138.4,116.9 142.1,121.4 145.9,120.5 149.6,120.3 153.4,119.9 157.1,120.5 160.9,119.7 164.6,111.2 168.4,115.9 172.1,112.6 175.9,117.8 179.7,120.9 183.4,119.6 187.2,120.3 190.9,101.6 194.7,81.3 198.4,119.9 202.2,118.9 205.9,118.5 209.7,117.4 213.4,119.9 217.2,119.6 221.0,119.4 224.7,119.7 228.5,119.4 232.2,118.6 236.0,118.0 239.7,117.7 243.5,119.3 247.2,119.4 251.0,119.6 254.7,119.6 258.5,118.0 262.3,110.1 266.0,111.0 269.8,119.0 273.5,117.3 277.3,118.8 281.0,119.1 284.8,118.1 288.5,118.6 292.3,118.2 296.0,118.5 299.8,118.2 303.6,118.7 307.3,117.6 311.1,119.0 314.8,118.8 318.6,114.7 322.3,118.8 326.1,118.9 329.8,118.2 333.6,114.5 337.3,115.9 341.1,115.4 344.9,116.1 348.6,116.3 352.4,114.7 356.1,114.4 359.9,117.3 363.6,116.9 367.4,118.4 371.1,116.1 374.9,119.2 378.7,116.6 382.4,119.1 386.2,120.8 389.9,121.8 393.7,119.8 397.4,118.4 401.2,112.1 404.9,119.9 408.7,119.0 412.4,119.3 416.2,120.0 420.0,118.3 423.7,120.0 427.5,118.0 431.2,118.9 435.0,119.4 438.7,118.5 442.5,119.5 446.2,119.3 450.0,53.6 453.7,118.0 457.5,118.1 461.3,119.6 465.0,118.7 468.8,119.5 472.5,120.2 476.3,117.8 480.0,135.9 483.8,72.9 487.5,134.5 491.3,135.1 495.0,134.2 498.8,134.7 502.6,134.9 506.3,135.3 510.1,129.2 513.8,130.1 517.6,130.3 521.3,134.7 525.1,135.0 528.8,135.0 532.6,135.2 536.3,135.4 540.1,133.9 543.9,133.3 547.6,133.6 551.4,134.3 555.1,134.8 558.9,134.2 562.6,134.7 566.4,134.8 570.1,133.7 573.9,134.7 577.6,134.0 581.4,134.7 585.2,134.0 588.9,134.8 592.7,134.8 596.4,134.4 600.2,134.7 603.9,133.6 607.7,133.6 611.4,134.2 615.2,130.9 618.9,134.2 622.7,131.9 626.5,133.6 630.2,133.2 634.0,132.8 637.7,133.1 641.5,133.1 645.2,133.1 649.0,133.9 652.7,133.9 656.5,133.3 660.2,131.6 664.0,133.1"/><circle cx="52.0" cy="118.7" r="2.5" fill="#5aa9e6"><title>2026-09-08 11:10:48
78cb717+
3778.63 ms</title></circle><circle cx="55.8" cy="120.1" r="2.5" fill="#5aa9e6"><title>2026-09-08 15:38:38
58b008f+
3574.07 ms</title></circle><circle cx="59.5" cy="120.8" r="2.5" fill="#5aa9e6"><title>2026-09-08 15:55:19
58b008f+
3470.54 ms</title></circle><circle cx="63.3" cy="119.8" r="2.5" fill="#5aa9e6"><title>2026-09-09 10:10:45
4bc1cab+
3612.75 ms</title></circle><circle cx="67.0" cy="121.4" r="2.5" fill="#5aa9e6"><title>2026-09-09 10:32:05
4bc1cab+
3382.16 ms</title></circle><circle cx="70.8" cy="119.4" r="2.5" fill="#5aa9e6"><title>2026-09-09 11:24:34
2f37659+
3684.55 ms</title></circle><circle cx="74.5" cy="121.3" r="2.5" fill="#5aa9e6"><title>2026-09-09 14:23:34
2f37659+
3397.82 ms</title></circle><circle cx="78.3" cy="121.8" r="2.5" fill="#5aa9e6"><title>2026-09-09 18:44:40
2961841
3316.90 ms</title></circle><circle cx="82.0" cy="121.1" r="2.5" fill="#5aa9e6"><title>2026-09-09 19:15:16
2961841+
3419.49 ms</title></circle><circle cx="85.8" cy="121.3" r="2.5" fill="#5aa9e6"><title>2026-09-09 20:10:35
c494862+
3390.08 ms</title></circle><circle cx="89.5" cy="120.3" r="2.5" fill="#5aa9e6"><title>2026-09-09 22:08:08
4f4700e+
3544.51 ms</title></circle><circle cx="93.3" cy="121.0" r="2.5" fill="#5aa9e6"><title>2026-09-10 09:47:53
3dae426+
3433.64 ms</title></circle><circle cx="97.1" cy="121.1" r="2.5" fill="#5aa9e6"><title>2026-09-10 10:06:41
1cb6051+
3425.68 ms</title></circle><circle cx="100.8" cy="120.6" r="2.5" fill="#5aa9e6"><title>2026-09-10 10:35:04
bd049c8+
3495.44 ms</title></circle><circle cx="104.6" cy="120.9" r="2.5" fill="#5aa9e6"><title>2026-09-10 12:19:19
139fbde+
3460.11 ms</title></circle><circle cx="108.3" cy="121.2" r="2.5" fill="#5aa9e6"><title>2026-09-10 12:22:12
139fbde+
3402.61 ms</title></circle><circle cx="112.1" cy="119.7" r="2.5" fill="#5aa9e6"><title>2026-09-10 12:38:01
9d05a26+
3627.45 ms</title></circle><circle cx="115.8" cy="117.3" r="2.5" fill="#5aa9e6"><title>2026-09-10 12:41:04
9d05a26+
3993.20 ms</title></circle><circle cx="119.6" cy="120.8" r="2.5" fill="#5aa9e6"><title>2026-09-10 14:12:55
0dbc86b
3469.60 ms</title></circle><circle cx="123.3" cy="119.5" r="2.5" fill="#5aa9e6"><title>2026-09-10 14:31:07
66641a8+
3665.74 ms</title></circle><circle cx="127.1" cy="119.0" r="2.5" fill="#5aa9e6"><title>2026-09-10 14:35:56
977056a+
3744.47 ms</title></circle><circle cx="130.8" cy="117.6" r="2.5" fill="#5aa9e6"><title>2026-09-10 14:45:03
9fb37a0+
3942.61 ms</title></circle><circle cx="134.6" cy="75.1" r="2.5" fill="#5aa9e6"><title>2026-09-10 14:59:54
9c22e50+
10294.39 ms</title></circle><circle cx="138.4" cy="116.9" r="2.5" fill="#5aa9e6"><title>2026-09-10 15:03:38
9c22e50+
4046.82 ms</title></circle><circle cx="142.1" cy="121.4" r="2.5" fill="#5aa9e6"><title>2026-09-10 15:23:19
7db6623+
3383.02 ms</title></circle><circle cx="145.9" cy="120.5" r="2.5" fill="#5aa9e6"><title>2026-09-10 15:37:09
16c5e89+
3515.81 ms</title></circle><circle cx="149.6" cy="120.3" r="2.5" fill="#5aa9e6"><title>2026-09-10 15:48:06
2277f04+
3550.16 ms</title></circle><circle cx="153.4" cy="119.9" r="2.5" fill="#5aa9e6"><title>2026-09-10 16:01:55
733e44d+
3601.40 ms</title></circle><circle cx="157.1" cy="120.5" r="2.5" fill="#5aa9e6"><title>2026-09-10 16:08:43
a35c8ba+
3512.89 ms</title></circle><circle cx="160.9" cy="119.7" r="2.5" fill="#5aa9e6"><title>2026-09-10 16:15:52
dca69d5+
3629.24 ms</title></circle><circle cx="164.6" cy="111.2" r="2.5" fill="#5aa9e6"><title>2026-09-10 16:22:14
dca69d5+
4898.61 ms</title></circle><circle cx="168.4" cy="115.9" r="2.5" fill="#5aa9e6"><title>2026-09-10 16:45:12
dca69d5+
4208.41 ms</title></circle><circle cx="172.1" cy="112.6" r="2.5" fill="#5aa9e6"><title>2026-09-10 17:12:56
ea2a1f3+
4697.28 ms</title></circle><circle cx="175.9" cy="117.8" r="2.5" fill="#5aa9e6"><title>2026-09-10 17:25:13
7ed9a84+
3913.62 ms</title></circle><circle cx="179.7" cy="120.9" r="2.5" fill="#5aa9e6"><title>2026-09-10 17:45:18
7ed9a84+
3453.40 ms</title></circle><circle cx="183.4" cy="119.6" r="2.5" fill="#5aa9e6"><title>2026-09-10 17:55:59
398e670+
3652.58 ms</title></circle><circle cx="187.2" cy="120.3" r="2.5" fill="#5aa9e6"><title>2026-09-10 18:11:17
a1efc13+
3543.16 ms</title></circle><circle cx="190.9" cy="101.6" r="2.5" fill="#5aa9e6"><title>2026-09-11 08:37:52
67e9c86+
6333.85 ms</title></circle><circle cx="194.7" cy="81.3" r="2.5" fill="#5aa9e6"><title>2026-09-11 09:11:59
837efef+
9368.46 ms</title></circle><circle cx="198.4" cy="119.9" r="2.5" fill="#5aa9e6"><title>2026-09-11 09:23:39
837efef+
3601.33 ms</title></circle><circle cx="202.2" cy="118.9" r="2.5" fill="#5aa9e6"><title>2026-09-11 09:42:05
9e714a1+
3753.73 ms</title></circle><circle cx="205.9" cy="118.5" r="2.5" fill="#5aa9e6"><title>2026-09-11 15:40:30
549a23b+
3807.36 ms</title></circle><circle cx="209.7" cy="117.4" r="2.5" fill="#5aa9e6"><title>2026-09-11 17:04:23
d8bb361+
3972.56 ms</title></circle><circle cx="213.4" cy="119.9" r="2.5" fill="#5aa9e6"><title>2026-09-11 19:30:11
2a27a92+
3607.67 ms</title></circle><circle cx="217.2" cy="119.6" r="2.5" fill="#5aa9e6"><title>2026-09-11 23:25:44
e0beea7
3655.47 ms</title></circle><circle cx="221.0" cy="119.4" r="2.5" fill="#5aa9e6"><title>2026-09-11 23:29:37
e0beea7+
3674.17 ms</title></circle><circle cx="224.7" cy="119.7" r="2.5" fill="#5aa9e6"><title>2026-09-11 23:34:05
dfd708d+
3638.65 ms</title></circle><circle cx="228.5" cy="119.4" r="2.5" fill="#5aa9e6"><title>2026-09-11 23:55:53
8899bc6+
3677.67 ms</title></circle><circle cx="232.2" cy="118.6" r="2.5" fill="#5aa9e6"><title>2026-09-12 00:01:20
8899bc6+
3800.17 ms</title></circle><circle cx="236.0" cy="118.0" r="2.5" fill="#5aa9e6"><title>2026-09-12 00:14:24
6b05802+
3884.05 ms</title></circle><circle cx="239.7" cy="117.7" r="2.5" fill="#5aa9e6"><title>2026-09-12 00:29:43
6b05802+
3927.75 ms</title></circle><circle cx="243.5" cy="119.3" r="2.5" fill="#5aa9e6"><title>2026-09-12 01:02:44
49d047c+
3696.56 ms</title></circle><circle cx="247.2" cy="119.4" r="2.5" fill="#5aa9e6"><title>2026-09-12 01:20:50
49d047c+
3679.63 ms</title></circle><circle cx="251.0" cy="119.6" r="2.5" fill="#5aa9e6"><title>2026-09-12 01:48:53
06da68e+
3645.90 ms</title></circle><circle cx="254.7" cy="119.6" r="2.5" fill="#5aa9e6"><title>2026-09-12 13:24:06
68c1f99+
3652.50 ms</title></circle><circle cx="258.5" cy="118.0" r="2.5" fill="#5aa9e6"><title>2026-09-12 14:28:22
6a2fb8d+
3888.90 ms</title></circle><circle cx="262.3" cy="110.1" r="2.5" fill="#5aa9e6"><title>2026-09-12 14:31:18
6a2fb8d+
5070.34 ms</title></circle><circle cx="266.0" cy="111.0" r="2.5" fill="#5aa9e6"><title>2026-09-12 14:34:45
6a2fb8d+
4939.52 ms</title></circle><circle cx="269.8" cy="119.0" r="2.5" fill="#5aa9e6"><title>2026-09-12 19:38:50
e4ac2d6+
3733.65 ms</title></circle><circle cx="273.5" cy="117.3" r="2.5" fill="#5aa9e6"><title>2026-09-12 20:01:53
4dc8177+
3985.65 ms</title></circle><circle cx="277.3" cy="118.8" r="2.5" fill="#5aa9e6"><title>2026-09-12 20:06:48
c30feb6
3774.58 ms</title></circle><circle cx="281.0" cy="119.1" r="2.5" fill="#5aa9e6"><title>2026-09-12 20:13:48
c30feb6+
3726.04 ms</title></circle><circle cx="284.8" cy="118.1" r="2.5" fill="#5aa9e6"><title>2026-09-12 20:26:20
71ccc28+
3867.61 ms</title></circle><circle cx="288.5" cy="118.6" r="2.5" fill="#5aa9e6"><title>2026-09-12 20:34:32
71ccc28+
3792.08 ms</title></circle><circle cx="292.3" cy="118.2" r="2.5" fill="#5aa9e6"><title>2026-09-12 21:14:50
1b9aaf6+
3863.89 ms</title></circle><circle cx="296.0" cy="118.5" r="2.5" fill="#5aa9e6"><title>2026-09-12 21:20:47
fe73419+
3806.14 ms</title></circle><circle cx="299.8" cy="118.2" r="2.5" fill="#5aa9e6"><title>2026-09-13 06:57:26
b985b0b+
3862.21 ms</title></circle><circle cx="303.6" cy="118.7" r="2.5" fill="#5aa9e6"><title>2026-09-13 07:18:34
1c92171
3775.60 ms</title></circle><circle cx="307.3" cy="117.6" r="2.5" fill="#5aa9e6"><title>2026-09-13 07:19:05
1c92171+
3946.74 ms</title></circle><circle cx="311.1" cy="119.0" r="2.5" fill="#5aa9e6"><title>2026-09-13 07:19:59
1c92171+
3737.96 ms</title></circle><circle cx="314.8" cy="118.8" r="2.5" fill="#5aa9e6"><title>2026-09-13 07:20:55
1c92171+
3774.32 ms</title></circle><circle cx="318.6" cy="114.7" r="2.5" fill="#5aa9e6"><title>2026-09-13 07:34:23
b3c389c+
4382.56 ms</title></circle><circle cx="322.3" cy="118.8" r="2.5" fill="#5aa9e6"><title>2026-09-13 07:35:50
b3c389c+
3770.70 ms</title></circle><circle cx="326.1" cy="118.9" r="2.5" fill="#5aa9e6"><title>2026-09-13 07:41:50
b3c389c+
3753.91 ms</title></circle><circle cx="329.8" cy="118.2" r="2.5" fill="#5aa9e6"><title>2026-09-13 08:19:36
0fe302e+
3854.47 ms</title></circle><circle cx="333.6" cy="114.5" r="2.5" fill="#5aa9e6"><title>2026-09-13 09:05:03
5726ca5+
4403.79 ms</title></circle><circle cx="337.3" cy="115.9" r="2.5" fill="#5aa9e6"><title>2026-09-13 09:11:00
5726ca5+
4199.44 ms</title></circle><circle cx="341.1" cy="115.4" r="2.5" fill="#5aa9e6"><title>2026-09-13 10:40:52
020b631
4270.42 ms</title></circle><circle cx="344.9" cy="116.1" r="2.5" fill="#5aa9e6"><title>2026-09-13 10:41:34
020b631+
4163.98 ms</title></circle><circle cx="348.6" cy="116.3" r="2.5" fill="#5aa9e6"><title>2026-09-13 10:48:48
730a947
4137.05 ms</title></circle><circle cx="352.4" cy="114.7" r="2.5" fill="#5aa9e6"><title>2026-09-13 11:59:24
0fd01d0+
4387.37 ms</title></circle><circle cx="356.1" cy="114.4" r="2.5" fill="#5aa9e6"><title>2026-09-13 12:04:27
0fd01d0+
4421.66 ms</title></circle><circle cx="359.9" cy="117.3" r="2.5" fill="#5aa9e6"><title>2026-09-13 12:16:31
bef9732
3991.98 ms</title></circle><circle cx="363.6" cy="116.9" r="2.5" fill="#5aa9e6"><title>2026-09-13 12:27:13
7046c1e+
4046.44 ms</title></circle><circle cx="367.4" cy="118.4" r="2.5" fill="#5aa9e6"><title>2026-09-13 12:36:33
e115c97+
3828.26 ms</title></circle><circle cx="371.1" cy="116.1" r="2.5" fill="#5aa9e6"><title>2026-09-13 13:22:29
a6856e4
4176.43 ms</title></circle><circle cx="374.9" cy="119.2" r="2.5" fill="#5aa9e6"><title>2026-09-16 11:37:47
8509628
3701.78 ms</title></circle><circle cx="378.7" cy="116.6" r="2.5" fill="#5aa9e6"><title>2026-09-16 11:57:32
8509628+
4090.96 ms</title></circle><circle cx="382.4" cy="119.1" r="2.5" fill="#5aa9e6"><title>2026-09-16 16:45:48
5038bbd
3721.21 ms</title></circle><circle cx="386.2" cy="120.8" r="2.5" fill="#5aa9e6"><title>2026-09-17 12:21:19
0fbf0cf
3473.96 ms</title></circle><circle cx="389.9" cy="121.8" r="2.5" fill="#5aa9e6"><title>2026-09-21 09:35:00
eedaa94
3312.24 ms</title></circle><circle cx="393.7" cy="119.8" r="2.5" fill="#5aa9e6"><title>2026-09-21 09:35:25
2836862+
3613.71 ms</title></circle><circle cx="397.4" cy="118.4" r="2.5" fill="#5aa9e6"><title>2026-09-22 10:13:01
546656d+
3824.12 ms</title></circle><circle cx="401.2" cy="112.1" r="2.5" fill="#5aa9e6"><title>2026-09-22 10:29:51
546656d+
4775.74 ms</title></circle><circle cx="404.9" cy="119.9" r="2.5" fill="#5aa9e6"><title>2026-09-22 17:39:19
d4ec271+
3610.47 ms</title></circle><circle cx="408.7" cy="119.0" r="2.5" fill="#5aa9e6"><title>2026-09-22 17:50:22
2452abf+
3737.80 ms</title></circle><circle cx="412.4" cy="119.3" r="2.5" fill="#5aa9e6"><title>2026-09-22 17:52:57
2452abf+
3698.49 ms</title></circle><circle cx="416.2" cy="120.0" r="2.5" fill="#5aa9e6"><title>2026-09-23 09:08:01
b7693a9
3584.53 ms</title></circle><circle cx="420.0" cy="118.3" r="2.5" fill="#5aa9e6"><title>2026-09-23 09:45:27
fc0dbc8+
3846.65 ms</title></circle><circle cx="423.7" cy="120.0" r="2.5" fill="#5aa9e6"><title>2026-09-23 11:02:21
2635535
3589.39 ms</title></circle><circle cx="427.5" cy="118.0" r="2.5" fill="#5aa9e6"><title>2026-09-23 11:40:46
ba86e2f+
3882.63 ms</title></circle><circle cx="431.2" cy="118.9" r="2.5" fill="#5aa9e6"><title>2026-09-23 12:01:27
1e7f2d7+
3752.40 ms</title></circle><circle cx="435.0" cy="119.4" r="2.5" fill="#5aa9e6"><title>2026-09-23 12:06:46
1e7f2d7+
3681.27 ms</title></circle><circle cx="438.7" cy="118.5" r="2.5" fill="#5aa9e6"><title>2026-09-23 12:29:29
1e7f2d7+
3817.61 ms</title></circle><circle cx="442.5" cy="119.5" r="2.5" fill="#5aa9e6"><title>2026-09-23 13:01:29
a814359+
3670.00 ms</title></circle><circle cx="446.2" cy="119.3" r="2.5" fill="#5aa9e6"><title>2026-09-24 08:45:53
177a7bd+
3693.47 ms</title></circle><circle cx="450.0" cy="53.6" r="2.5" fill="#5aa9e6"><title>2026-09-24 08:58:37
17cd907
13520.73 ms</title></circle><circle cx="453.7" cy="118.0" r="2.5" fill="#5aa9e6"><title>2026-09-24 09:01:24
17cd907+
3885.73 ms</title></circle><circle cx="457.5" cy="118.1" r="2.5" fill="#5aa9e6"><title>2026-09-24 15:33:51
a744a34+
3868.64 ms</title></circle><circle cx="461.3" cy="119.6" r="2.5" fill="#5aa9e6"><title>2026-09-24 18:38:03
3a09593
3643.33 ms</title></circle><circle cx="465.0" cy="118.7" r="2.5" fill="#5aa9e6"><title>2026-09-24 18:55:49
a859d87+
3778.63 ms</title></circle><circle cx="468.8" cy="119.5" r="2.5" fill="#5aa9e6"><title>2026-09-24 19:32:57
aa873a6+
3668.01 ms</title></circle><circle cx="472.5" cy="120.2" r="2.5" fill="#5aa9e6"><title>2026-09-24 19:35:14
aa873a6+
3561.63 ms</title></circle><circle cx="476.3" cy="117.8" r="2.5" fill="#5aa9e6"><title>2026-09-24 19:45:43
4d0d742+
3919.89 ms</title></circle><circle cx="480.0" cy="135.9" r="2.5" fill="#5aa9e6"><title>2026-09-24 20:34:09
4d0d742+
1204.95 ms</title></circle><circle cx="483.8" cy="72.9" r="2.5" fill="#5aa9e6"><title>2026-09-25 08:31:25
600ec3f+
10635.22 ms</title></circle><circle cx="487.5" cy="134.5" r="2.5" fill="#5aa9e6"><title>2026-09-25 08:48:47
600ec3f+
1418.32 ms</title></circle><circle cx="491.3" cy="135.1" r="2.5" fill="#5aa9e6"><title>2026-09-25 10:16:23
c68184a+
1336.54 ms</title></circle><circle cx="495.0" cy="134.2" r="2.5" fill="#5aa9e6"><title>2026-09-25 10:30:14
7e26875+
1464.30 ms</title></circle><circle cx="498.8" cy="134.7" r="2.5" fill="#5aa9e6"><title>2026-09-25 10:50:18
ef8cdeb+
1387.12 ms</title></circle><circle cx="502.6" cy="134.9" r="2.5" fill="#5aa9e6"><title>2026-09-25 10:56:22
ef8cdeb+
1361.24 ms</title></circle><circle cx="506.3" cy="135.3" r="2.5" fill="#5aa9e6"><title>2026-09-25 11:05:24
c01e970+
1305.46 ms</title></circle><circle cx="510.1" cy="129.2" r="2.5" fill="#5aa9e6"><title>2026-09-25 11:31:43
cd3399c+
2217.95 ms</title></circle><circle cx="513.8" cy="130.1" r="2.5" fill="#5aa9e6"><title>2026-09-25 11:46:47
72972ac
2083.42 ms</title></circle><circle cx="517.6" cy="130.3" r="2.5" fill="#5aa9e6"><title>2026-09-25 11:54:38
72972ac+
2042.38 ms</title></circle><circle cx="521.3" cy="134.7" r="2.5" fill="#5aa9e6"><title>2026-09-25 13:33:13
6fc3cdc+
1384.78 ms</title></circle><circle cx="525.1" cy="135.0" r="2.5" fill="#5aa9e6"><title>2026-09-25 13:52:44
6fc3cdc+
1345.34 ms</title></circle><circle cx="528.8" cy="135.0" r="2.5" fill="#5aa9e6"><title>2026-09-25 14:04:05
b637150+
1345.27 ms</title></circle><circle cx="532.6" cy="135.2" r="2.5" fill="#5aa9e6"><title>2026-09-26 10:06:41
17c9c34
1316.85 ms</title></circle><circle cx="536.3" cy="135.4" r="2.5" fill="#5aa9e6"><title>2026-09-26 10:18:40
17c9c34+
1290.38 ms</title></circle><circle cx="540.1" cy="133.9" r="2.5" fill="#5aa9e6"><title>2026-09-26 10:54:09
595b0b9
1512.24 ms</title></circle><circle cx="543.9" cy="133.3" r="2.5" fill="#5aa9e6"><title>2026-09-26 14:52:46
8084930+
1599.96 ms</title></circle><circle cx="547.6" cy="133.6" r="2.5" fill="#5aa9e6"><title>2026-09-26 15:04:38
8084930+
1551.87 ms</title></circle><circle cx="551.4" cy="134.3" r="2.5" fill="#5aa9e6"><title>2026-09-26 15:11:45
83ef5b6+
1451.85 ms</title></circle><circle cx="555.1" cy="134.8" r="2.5" fill="#5aa9e6"><title>2026-09-26 15:13:08
83ef5b6+
1371.09 ms</title></circle><circle cx="558.9" cy="134.2" r="2.5" fill="#5aa9e6"><title>2026-09-26 15:41:09
83ef5b6+
1466.04 ms</title></circle><circle cx="562.6" cy="134.7" r="2.5" fill="#5aa9e6"><title>2026-09-26 15:58:36
c0e2241+
1397.29 ms</title></circle><circle cx="566.4" cy="134.8" r="2.5" fill="#5aa9e6"><title>2026-09-26 16:00:52
c0e2241+
1378.00 ms</title></circle><circle cx="570.1" cy="133.7" r="2.5" fill="#5aa9e6"><title>2026-09-27 08:42:14
291a43e+
1533.06 ms</title></circle><circle cx="573.9" cy="134.7" r="2.5" fill="#5aa9e6"><title>2026-09-27 08:45:45
291a43e+
1393.71 ms</title></circle><circle cx="577.6" cy="134.0" r="2.5" fill="#5aa9e6"><title>2026-09-27 10:04:37
e0f4ecf+
1497.49 ms</title></circle><circle cx="581.4" cy="134.7" r="2.5" fill="#5aa9e6"><title>2026-09-27 10:21:19
e0f4ecf+
1392.26 ms</title></circle><circle cx="585.2" cy="134.0" r="2.5" fill="#5aa9e6"><title>2026-09-27 10:53:25
e0f4ecf+
1497.74 ms</title></circle><circle cx="588.9" cy="134.8" r="2.5" fill="#5aa9e6"><title>2026-09-27 12:32:13
ef1a297
1378.01 ms</title></circle><circle cx="592.7" cy="134.8" r="2.5" fill="#5aa9e6"><title>2026-09-27 12:36:58
ef1a297+
1374.34 ms</title></circle><circle cx="596.4" cy="134.4" r="2.5" fill="#5aa9e6"><title>2026-09-27 12:45:18
3e6ecd3+
1434.65 ms</title></circle><circle cx="600.2" cy="134.7" r="2.5" fill="#5aa9e6"><title>2026-09-27 12:48:07
3e6ecd3+
1396.82 ms</title></circle><circle cx="603.9" cy="133.6" r="2.5" fill="#5aa9e6"><title>2026-09-27 12:56:35
3e6ecd3+
1557.98 ms</title></circle><circle cx="607.7" cy="133.6" r="2.5" fill="#5aa9e6"><title>2026-09-27 13:00:00
3e6ecd3+
1549.36 ms</title></circle><circle cx="611.4" cy="134.2" r="2.5" fill="#5aa9e6"><title>2026-09-27 13:35:20
68321d7+
1461.89 ms</title></circle><circle cx="615.2" cy="130.9" r="2.5" fill="#5aa9e6"><title>2026-09-27 14:17:04
3d7bf03+
1955.89 ms</title></circle><circle cx="618.9" cy="134.2" r="2.5" fill="#5aa9e6"><title>2026-09-27 14:21:04
3d7bf03+
1459.32 ms</title></circle><circle cx="622.7" cy="131.9" r="2.5" fill="#5aa9e6"><title>2026-09-27 16:02:17
61f2e0a+
1816.20 ms</title></circle><circle cx="626.5" cy="133.6" r="2.5" fill="#5aa9e6"><title>2026-09-27 17:01:36
12d5738+
1560.84 ms</title></circle><circle cx="630.2" cy="133.2" r="2.5" fill="#5aa9e6"><title>2026-09-27 17:12:10
12d5738+
1615.21 ms</title></circle><circle cx="634.0" cy="132.8" r="2.5" fill="#5aa9e6"><title>2026-09-27 17:29:06
56028fa+
1681.10 ms</title></circle><circle cx="637.7" cy="133.1" r="2.5" fill="#5aa9e6"><title>2026-09-27 17:36:13
614d410+
1622.69 ms</title></circle><circle cx="641.5" cy="133.1" r="2.5" fill="#5aa9e6"><title>2026-09-27 17:40:32
614d410+
1635.74 ms</title></circle><circle cx="645.2" cy="133.1" r="2.5" fill="#5aa9e6"><title>2026-09-27 17:42:14
614d410+
1624.30 ms</title></circle><circle cx="649.0" cy="133.9" r="2.5" fill="#5aa9e6"><title>2026-09-27 17:52:11
d407122+
1502.91 ms</title></circle><circle cx="652.7" cy="133.9" r="2.5" fill="#5aa9e6"><title>2026-09-27 17:55:42
d407122+
1505.89 ms</title></circle><circle cx="656.5" cy="133.3" r="2.5" fill="#5aa9e6"><title>2026-09-27 18:03:05
a7a4322+
1595.56 ms</title></circle><circle cx="660.2" cy="131.6" r="2.5" fill="#5aa9e6"><title>2026-09-28 07:44:47
5e8794e+
1850.17 ms</title></circle><circle cx="664.0" cy="133.1" r="2.5" fill="#5aa9e6"><title>2026-09-28 07:55:13
5e8794e+
1635.78 ms</title></circle></g></g></g><g transform="translate(0 260)"><rect x="0" y="0" width="680" height="30" fill="#252525"/><text x="52" y="22" font-size="12" font-weight="bold" fill="#e8e8e8">jul-examples</text><text x="668" y="22" text-anchor="end" font-size="9" fill="#999">3 Messungen</text><g transform="translate(0 30)"><g transform="translate(0 0)"><rect x="6" y="4" width="668" height="178" fill="none" stroke="#333"/><text x="52" y="20" font-size="11" font-weight="bold" fill="#e8e8e8">parse+check</text><text x="52" y="33" font-size="9" fill="#999">19.45 ms (-9% seit 2026-09-09)</text><line x1="52" y1="144.0" x2="664" y2="144.0" stroke="#3a3a3a"/><text x="46" y="144.0" text-anchor="end" dominant-baseline="middle" font-size="9" fill="#999">0.00</text><line x1="52" y1="92.0" x2="664" y2="92.0" stroke="#3a3a3a"/><text x="46" y="92.0" text-anchor="end" dominant-baseline="middle" font-size="9" fill="#999">12.23</text><line x1="52" y1="40.0" x2="664" y2="40.0" stroke="#3a3a3a"/><text x="46" y="40.0" text-anchor="end" dominant-baseline="middle" font-size="9" fill="#999">24.46</text><text x="52" y="158" font-size="9" fill="#999">2026-09-09</text><text x="664" y="158" text-anchor="end" font-size="9" fill="#999">2026-09-10</text><polyline fill="none" stroke="#5aa9e6" stroke-width="1.5" points="52.0,53.6 358.0,58.1 664.0,61.3"/><circle cx="52.0" cy="53.6" r="2.5" fill="#5aa9e6"><title>2026-09-09 22:08:42
4f4700e+
21.27 ms</title></circle><circle cx="358.0" cy="58.1" r="2.5" fill="#5aa9e6"><title>2026-09-09 22:28:47
4f4700e+
20.20 ms</title></circle><circle cx="664.0" cy="61.3" r="2.5" fill="#5aa9e6"><title>2026-09-10 09:43:20
3dae426+
19.45 ms</title></circle></g></g></g></svg>