<svg xmlns="http://www.w3.org/2000/svg" width="680" height="500" font-family="sans-serif"><rect width="680" height="500" fill="#1e1e1e"/><text x="52" y="22" font-size="14" font-weight="bold" fill="#e8e8e8">Benchmarks auf ADV-DEV-56627</text><g transform="translate(0 40)"><rect x="0" y="0" width="680" height="30" fill="#252525"/><text x="52" y="22" font-size="12" font-weight="bold" fill="#e8e8e8">yugioh</text><text x="668" y="22" text-anchor="end" font-size="9" fill="#999">109 Messungen</text><g transform="translate(0 30)"><g transform="translate(0 0)"><rect x="6" y="4" width="668" height="178" fill="none" stroke="#333"/><text x="52" y="20" font-size="11" font-weight="bold" fill="#e8e8e8">parse+check</text><text x="52" y="33" font-size="9" fill="#999">3868.64 ms (+2% seit 2026-09-08)</text><line x1="52" y1="144.0" x2="664" y2="144.0" stroke="#3a3a3a"/><text x="46" y="144.0" text-anchor="end" dominant-baseline="middle" font-size="9" fill="#999">0.00</text><line x1="52" y1="92.0" x2="664" y2="92.0" stroke="#3a3a3a"/><text x="46" y="92.0" text-anchor="end" dominant-baseline="middle" font-size="9" fill="#999">7774.42</text><line x1="52" y1="40.0" x2="664" y2="40.0" stroke="#3a3a3a"/><text x="46" y="40.0" text-anchor="end" dominant-baseline="middle" font-size="9" fill="#999">15548.84</text><text x="52" y="158" font-size="9" fill="#999">2026-09-08</text><text x="664" y="158" text-anchor="end" font-size="9" fill="#999">2026-09-24</text><polyline fill="none" stroke="#5aa9e6" stroke-width="1.5" points="52.0,118.7 57.7,120.1 63.3,120.8 69.0,119.8 74.7,121.4 80.3,119.4 86.0,121.3 91.7,121.8 97.3,121.1 103.0,121.3 108.7,120.3 114.3,121.0 120.0,121.1 125.7,120.6 131.3,120.9 137.0,121.2 142.7,119.7 148.3,117.3 154.0,120.8 159.7,119.5 165.3,119.0 171.0,117.6 176.7,75.1 182.3,116.9 188.0,121.4 193.7,120.5 199.3,120.3 205.0,119.9 210.7,120.5 216.3,119.7 222.0,111.2 227.7,115.9 233.3,112.6 239.0,117.8 244.7,120.9 250.3,119.6 256.0,120.3 261.7,101.6 267.3,81.3 273.0,119.9 278.7,118.9 284.3,118.5 290.0,117.4 295.7,119.9 301.3,119.6 307.0,119.4 312.7,119.7 318.3,119.4 324.0,118.6 329.7,118.0 335.3,117.7 341.0,119.3 346.7,119.4 352.3,119.6 358.0,119.6 363.7,118.0 369.3,110.1 375.0,111.0 380.7,119.0 386.3,117.3 392.0,118.8 397.7,119.1 403.3,118.1 409.0,118.6 414.7,118.2 420.3,118.5 426.0,118.2 431.7,118.7 437.3,117.6 443.0,119.0 448.7,118.8 454.3,114.7 460.0,118.8 465.7,118.9 471.3,118.2 477.0,114.5 482.7,115.9 488.3,115.4 494.0,116.1 499.7,116.3 505.3,114.7 511.0,114.4 516.7,117.3 522.3,116.9 528.0,118.4 533.7,116.1 539.3,119.2 545.0,116.6 550.7,119.1 556.3,120.8 562.0,121.8 567.7,119.8 573.3,118.4 579.0,112.1 584.7,119.9 590.3,119.0 596.0,119.3 601.7,120.0 607.3,118.3 613.0,120.0 618.7,118.0 624.3,118.9 630.0,119.4 635.7,118.5 641.3,119.5 647.0,119.3 652.7,53.6 658.3,118.0 664.0,118.1"/><circle cx="52.0" cy="118.7" r="2.5" fill="#5aa9e6"><title>2026-09-08 11:10:48
78cb717+
3778.63 ms</title></circle><circle cx="57.7" cy="120.1" r="2.5" fill="#5aa9e6"><title>2026-09-08 15:38:38
58b008f+
3574.07 ms</title></circle><circle cx="63.3" cy="120.8" r="2.5" fill="#5aa9e6"><title>2026-09-08 15:55:19
58b008f+
3470.54 ms</title></circle><circle cx="69.0" cy="119.8" r="2.5" fill="#5aa9e6"><title>2026-09-09 10:10:45
4bc1cab+
3612.75 ms</title></circle><circle cx="74.7" cy="121.4" r="2.5" fill="#5aa9e6"><title>2026-09-09 10:32:05
4bc1cab+
3382.16 ms</title></circle><circle cx="80.3" cy="119.4" r="2.5" fill="#5aa9e6"><title>2026-09-09 11:24:34
2f37659+
3684.55 ms</title></circle><circle cx="86.0" cy="121.3" r="2.5" fill="#5aa9e6"><title>2026-09-09 14:23:34
2f37659+
3397.82 ms</title></circle><circle cx="91.7" cy="121.8" r="2.5" fill="#5aa9e6"><title>2026-09-09 18:44:40
2961841
3316.90 ms</title></circle><circle cx="97.3" cy="121.1" r="2.5" fill="#5aa9e6"><title>2026-09-09 19:15:16
2961841+
3419.49 ms</title></circle><circle cx="103.0" cy="121.3" r="2.5" fill="#5aa9e6"><title>2026-09-09 20:10:35
c494862+
3390.08 ms</title></circle><circle cx="108.7" cy="120.3" r="2.5" fill="#5aa9e6"><title>2026-09-09 22:08:08
4f4700e+
3544.51 ms</title></circle><circle cx="114.3" cy="121.0" r="2.5" fill="#5aa9e6"><title>2026-09-10 09:47:53
3dae426+
3433.64 ms</title></circle><circle cx="120.0" cy="121.1" r="2.5" fill="#5aa9e6"><title>2026-09-10 10:06:41
1cb6051+
3425.68 ms</title></circle><circle cx="125.7" cy="120.6" r="2.5" fill="#5aa9e6"><title>2026-09-10 10:35:04
bd049c8+
3495.44 ms</title></circle><circle cx="131.3" cy="120.9" r="2.5" fill="#5aa9e6"><title>2026-09-10 12:19:19
139fbde+
3460.11 ms</title></circle><circle cx="137.0" cy="121.2" r="2.5" fill="#5aa9e6"><title>2026-09-10 12:22:12
139fbde+
3402.61 ms</title></circle><circle cx="142.7" cy="119.7" r="2.5" fill="#5aa9e6"><title>2026-09-10 12:38:01
9d05a26+
3627.45 ms</title></circle><circle cx="148.3" cy="117.3" r="2.5" fill="#5aa9e6"><title>2026-09-10 12:41:04
9d05a26+
3993.20 ms</title></circle><circle cx="154.0" cy="120.8" r="2.5" fill="#5aa9e6"><title>2026-09-10 14:12:55
0dbc86b
3469.60 ms</title></circle><circle cx="159.7" cy="119.5" r="2.5" fill="#5aa9e6"><title>2026-09-10 14:31:07
66641a8+
3665.74 ms</title></circle><circle cx="165.3" cy="119.0" r="2.5" fill="#5aa9e6"><title>2026-09-10 14:35:56
977056a+
3744.47 ms</title></circle><circle cx="171.0" cy="117.6" r="2.5" fill="#5aa9e6"><title>2026-09-10 14:45:03
9fb37a0+
3942.61 ms</title></circle><circle cx="176.7" cy="75.1" r="2.5" fill="#5aa9e6"><title>2026-09-10 14:59:54
9c22e50+
10294.39 ms</title></circle><circle cx="182.3" cy="116.9" r="2.5" fill="#5aa9e6"><title>2026-09-10 15:03:38
9c22e50+
4046.82 ms</title></circle><circle cx="188.0" cy="121.4" r="2.5" fill="#5aa9e6"><title>2026-09-10 15:23:19
7db6623+
3383.02 ms</title></circle><circle cx="193.7" cy="120.5" r="2.5" fill="#5aa9e6"><title>2026-09-10 15:37:09
16c5e89+
3515.81 ms</title></circle><circle cx="199.3" cy="120.3" r="2.5" fill="#5aa9e6"><title>2026-09-10 15:48:06
2277f04+
3550.16 ms</title></circle><circle cx="205.0" cy="119.9" r="2.5" fill="#5aa9e6"><title>2026-09-10 16:01:55
733e44d+
3601.40 ms</title></circle><circle cx="210.7" cy="120.5" r="2.5" fill="#5aa9e6"><title>2026-09-10 16:08:43
a35c8ba+
3512.89 ms</title></circle><circle cx="216.3" cy="119.7" r="2.5" fill="#5aa9e6"><title>2026-09-10 16:15:52
dca69d5+
3629.24 ms</title></circle><circle cx="222.0" cy="111.2" r="2.5" fill="#5aa9e6"><title>2026-09-10 16:22:14
dca69d5+
4898.61 ms</title></circle><circle cx="227.7" cy="115.9" r="2.5" fill="#5aa9e6"><title>2026-09-10 16:45:12
dca69d5+
4208.41 ms</title></circle><circle cx="233.3" cy="112.6" r="2.5" fill="#5aa9e6"><title>2026-09-10 17:12:56
ea2a1f3+
4697.28 ms</title></circle><circle cx="239.0" cy="117.8" r="2.5" fill="#5aa9e6"><title>2026-09-10 17:25:13
7ed9a84+
3913.62 ms</title></circle><circle cx="244.7" cy="120.9" r="2.5" fill="#5aa9e6"><title>2026-09-10 17:45:18
7ed9a84+
3453.40 ms</title></circle><circle cx="250.3" cy="119.6" r="2.5" fill="#5aa9e6"><title>2026-09-10 17:55:59
398e670+
3652.58 ms</title></circle><circle cx="256.0" cy="120.3" r="2.5" fill="#5aa9e6"><title>2026-09-10 18:11:17
a1efc13+
3543.16 ms</title></circle><circle cx="261.7" cy="101.6" r="2.5" fill="#5aa9e6"><title>2026-09-11 08:37:52
67e9c86+
6333.85 ms</title></circle><circle cx="267.3" cy="81.3" r="2.5" fill="#5aa9e6"><title>2026-09-11 09:11:59
837efef+
9368.46 ms</title></circle><circle cx="273.0" cy="119.9" r="2.5" fill="#5aa9e6"><title>2026-09-11 09:23:39
837efef+
3601.33 ms</title></circle><circle cx="278.7" cy="118.9" r="2.5" fill="#5aa9e6"><title>2026-09-11 09:42:05
9e714a1+
3753.73 ms</title></circle><circle cx="284.3" cy="118.5" r="2.5" fill="#5aa9e6"><title>2026-09-11 15:40:30
549a23b+
3807.36 ms</title></circle><circle cx="290.0" cy="117.4" r="2.5" fill="#5aa9e6"><title>2026-09-11 17:04:23
d8bb361+
3972.56 ms</title></circle><circle cx="295.7" cy="119.9" r="2.5" fill="#5aa9e6"><title>2026-09-11 19:30:11
2a27a92+
3607.67 ms</title></circle><circle cx="301.3" cy="119.6" r="2.5" fill="#5aa9e6"><title>2026-09-11 23:25:44
e0beea7
3655.47 ms</title></circle><circle cx="307.0" cy="119.4" r="2.5" fill="#5aa9e6"><title>2026-09-11 23:29:37
e0beea7+
3674.17 ms</title></circle><circle cx="312.7" cy="119.7" r="2.5" fill="#5aa9e6"><title>2026-09-11 23:34:05
dfd708d+
3638.65 ms</title></circle><circle cx="318.3" cy="119.4" r="2.5" fill="#5aa9e6"><title>2026-09-11 23:55:53
8899bc6+
3677.67 ms</title></circle><circle cx="324.0" cy="118.6" r="2.5" fill="#5aa9e6"><title>2026-09-12 00:01:20
8899bc6+
3800.17 ms</title></circle><circle cx="329.7" cy="118.0" r="2.5" fill="#5aa9e6"><title>2026-09-12 00:14:24
6b05802+
3884.05 ms</title></circle><circle cx="335.3" cy="117.7" r="2.5" fill="#5aa9e6"><title>2026-09-12 00:29:43
6b05802+
3927.75 ms</title></circle><circle cx="341.0" cy="119.3" r="2.5" fill="#5aa9e6"><title>2026-09-12 01:02:44
49d047c+
3696.56 ms</title></circle><circle cx="346.7" cy="119.4" r="2.5" fill="#5aa9e6"><title>2026-09-12 01:20:50
49d047c+
3679.63 ms</title></circle><circle cx="352.3" cy="119.6" r="2.5" fill="#5aa9e6"><title>2026-09-12 01:48:53
06da68e+
3645.90 ms</title></circle><circle cx="358.0" cy="119.6" r="2.5" fill="#5aa9e6"><title>2026-09-12 13:24:06
68c1f99+
3652.50 ms</title></circle><circle cx="363.7" cy="118.0" r="2.5" fill="#5aa9e6"><title>2026-09-12 14:28:22
6a2fb8d+
3888.90 ms</title></circle><circle cx="369.3" cy="110.1" r="2.5" fill="#5aa9e6"><title>2026-09-12 14:31:18
6a2fb8d+
5070.34 ms</title></circle><circle cx="375.0" cy="111.0" r="2.5" fill="#5aa9e6"><title>2026-09-12 14:34:45
6a2fb8d+
4939.52 ms</title></circle><circle cx="380.7" cy="119.0" r="2.5" fill="#5aa9e6"><title>2026-09-12 19:38:50
e4ac2d6+
3733.65 ms</title></circle><circle cx="386.3" cy="117.3" r="2.5" fill="#5aa9e6"><title>2026-09-12 20:01:53
4dc8177+
3985.65 ms</title></circle><circle cx="392.0" cy="118.8" r="2.5" fill="#5aa9e6"><title>2026-09-12 20:06:48
c30feb6
3774.58 ms</title></circle><circle cx="397.7" cy="119.1" r="2.5" fill="#5aa9e6"><title>2026-09-12 20:13:48
c30feb6+
3726.04 ms</title></circle><circle cx="403.3" cy="118.1" r="2.5" fill="#5aa9e6"><title>2026-09-12 20:26:20
71ccc28+
3867.61 ms</title></circle><circle cx="409.0" cy="118.6" r="2.5" fill="#5aa9e6"><title>2026-09-12 20:34:32
71ccc28+
3792.08 ms</title></circle><circle cx="414.7" cy="118.2" r="2.5" fill="#5aa9e6"><title>2026-09-12 21:14:50
1b9aaf6+
3863.89 ms</title></circle><circle cx="420.3" cy="118.5" r="2.5" fill="#5aa9e6"><title>2026-09-12 21:20:47
fe73419+
3806.14 ms</title></circle><circle cx="426.0" cy="118.2" r="2.5" fill="#5aa9e6"><title>2026-09-13 06:57:26
b985b0b+
3862.21 ms</title></circle><circle cx="431.7" cy="118.7" r="2.5" fill="#5aa9e6"><title>2026-09-13 07:18:34
1c92171
3775.60 ms</title></circle><circle cx="437.3" cy="117.6" r="2.5" fill="#5aa9e6"><title>2026-09-13 07:19:05
1c92171+
3946.74 ms</title></circle><circle cx="443.0" cy="119.0" r="2.5" fill="#5aa9e6"><title>2026-09-13 07:19:59
1c92171+
3737.96 ms</title></circle><circle cx="448.7" cy="118.8" r="2.5" fill="#5aa9e6"><title>2026-09-13 07:20:55
1c92171+
3774.32 ms</title></circle><circle cx="454.3" cy="114.7" r="2.5" fill="#5aa9e6"><title>2026-09-13 07:34:23
b3c389c+
4382.56 ms</title></circle><circle cx="460.0" cy="118.8" r="2.5" fill="#5aa9e6"><title>2026-09-13 07:35:50
b3c389c+
3770.70 ms</title></circle><circle cx="465.7" cy="118.9" r="2.5" fill="#5aa9e6"><title>2026-09-13 07:41:50
b3c389c+
3753.91 ms</title></circle><circle cx="471.3" cy="118.2" r="2.5" fill="#5aa9e6"><title>2026-09-13 08:19:36
0fe302e+
3854.47 ms</title></circle><circle cx="477.0" cy="114.5" r="2.5" fill="#5aa9e6"><title>2026-09-13 09:05:03
5726ca5+
4403.79 ms</title></circle><circle cx="482.7" cy="115.9" r="2.5" fill="#5aa9e6"><title>2026-09-13 09:11:00
5726ca5+
4199.44 ms</title></circle><circle cx="488.3" cy="115.4" r="2.5" fill="#5aa9e6"><title>2026-09-13 10:40:52
020b631
4270.42 ms</title></circle><circle cx="494.0" cy="116.1" r="2.5" fill="#5aa9e6"><title>2026-09-13 10:41:34
020b631+
4163.98 ms</title></circle><circle cx="499.7" cy="116.3" r="2.5" fill="#5aa9e6"><title>2026-09-13 10:48:48
730a947
4137.05 ms</title></circle><circle cx="505.3" cy="114.7" r="2.5" fill="#5aa9e6"><title>2026-09-13 11:59:24
0fd01d0+
4387.37 ms</title></circle><circle cx="511.0" cy="114.4" r="2.5" fill="#5aa9e6"><title>2026-09-13 12:04:27
0fd01d0+
4421.66 ms</title></circle><circle cx="516.7" cy="117.3" r="2.5" fill="#5aa9e6"><title>2026-09-13 12:16:31
bef9732
3991.98 ms</title></circle><circle cx="522.3" cy="116.9" r="2.5" fill="#5aa9e6"><title>2026-09-13 12:27:13
7046c1e+
4046.44 ms</title></circle><circle cx="528.0" cy="118.4" r="2.5" fill="#5aa9e6"><title>2026-09-13 12:36:33
e115c97+
3828.26 ms</title></circle><circle cx="533.7" cy="116.1" r="2.5" fill="#5aa9e6"><title>2026-09-13 13:22:29
a6856e4
4176.43 ms</title></circle><circle cx="539.3" cy="119.2" r="2.5" fill="#5aa9e6"><title>2026-09-16 11:37:47
8509628
3701.78 ms</title></circle><circle cx="545.0" cy="116.6" r="2.5" fill="#5aa9e6"><title>2026-09-16 11:57:32
8509628+
4090.96 ms</title></circle><circle cx="550.7" cy="119.1" r="2.5" fill="#5aa9e6"><title>2026-09-16 16:45:48
5038bbd
3721.21 ms</title></circle><circle cx="556.3" cy="120.8" r="2.5" fill="#5aa9e6"><title>2026-09-17 12:21:19
0fbf0cf
3473.96 ms</title></circle><circle cx="562.0" cy="121.8" r="2.5" fill="#5aa9e6"><title>2026-09-21 09:35:00
eedaa94
3312.24 ms</title></circle><circle cx="567.7" cy="119.8" r="2.5" fill="#5aa9e6"><title>2026-09-21 09:35:25
2836862+
3613.71 ms</title></circle><circle cx="573.3" cy="118.4" r="2.5" fill="#5aa9e6"><title>2026-09-22 10:13:01
546656d+
3824.12 ms</title></circle><circle cx="579.0" cy="112.1" r="2.5" fill="#5aa9e6"><title>2026-09-22 10:29:51
546656d+
4775.74 ms</title></circle><circle cx="584.7" cy="119.9" r="2.5" fill="#5aa9e6"><title>2026-09-22 17:39:19
d4ec271+
3610.47 ms</title></circle><circle cx="590.3" cy="119.0" r="2.5" fill="#5aa9e6"><title>2026-09-22 17:50:22
2452abf+
3737.80 ms</title></circle><circle cx="596.0" cy="119.3" r="2.5" fill="#5aa9e6"><title>2026-09-22 17:52:57
2452abf+
3698.49 ms</title></circle><circle cx="601.7" cy="120.0" r="2.5" fill="#5aa9e6"><title>2026-09-23 09:08:01
b7693a9
3584.53 ms</title></circle><circle cx="607.3" cy="118.3" r="2.5" fill="#5aa9e6"><title>2026-09-23 09:45:27
fc0dbc8+
3846.65 ms</title></circle><circle cx="613.0" cy="120.0" r="2.5" fill="#5aa9e6"><title>2026-09-23 11:02:21
2635535
3589.39 ms</title></circle><circle cx="618.7" cy="118.0" r="2.5" fill="#5aa9e6"><title>2026-09-23 11:40:46
ba86e2f+
3882.63 ms</title></circle><circle cx="624.3" cy="118.9" r="2.5" fill="#5aa9e6"><title>2026-09-23 12:01:27
1e7f2d7+
3752.40 ms</title></circle><circle cx="630.0" cy="119.4" r="2.5" fill="#5aa9e6"><title>2026-09-23 12:06:46
1e7f2d7+
3681.27 ms</title></circle><circle cx="635.7" cy="118.5" r="2.5" fill="#5aa9e6"><title>2026-09-23 12:29:29
1e7f2d7+
3817.61 ms</title></circle><circle cx="641.3" cy="119.5" r="2.5" fill="#5aa9e6"><title>2026-09-23 13:01:29
a814359+
3670.00 ms</title></circle><circle cx="647.0" cy="119.3" r="2.5" fill="#5aa9e6"><title>2026-09-24 08:45:53
177a7bd+
3693.47 ms</title></circle><circle cx="652.7" cy="53.6" r="2.5" fill="#5aa9e6"><title>2026-09-24 08:58:37
17cd907
13520.73 ms</title></circle><circle cx="658.3" cy="118.0" r="2.5" fill="#5aa9e6"><title>2026-09-24 09:01:24
17cd907+
3885.73 ms</title></circle><circle cx="664.0" cy="118.1" r="2.5" fill="#5aa9e6"><title>2026-09-24 15:33:51
a744a34+
3868.64 ms</title></circle></g></g></g><g transform="translate(0 260)"><rect x="0" y="0" width="680" height="30" fill="#252525"/><text x="52" y="22" font-size="12" font-weight="bold" fill="#e8e8e8">jul-examples</text><text x="668" y="22" text-anchor="end" font-size="9" fill="#999">3 Messungen</text><g transform="translate(0 30)"><g transform="translate(0 0)"><rect x="6" y="4" width="668" height="178" fill="none" stroke="#333"/><text x="52" y="20" font-size="11" font-weight="bold" fill="#e8e8e8">parse+check</text><text x="52" y="33" font-size="9" fill="#999">19.45 ms (-9% seit 2026-09-09)</text><line x1="52" y1="144.0" x2="664" y2="144.0" stroke="#3a3a3a"/><text x="46" y="144.0" text-anchor="end" dominant-baseline="middle" font-size="9" fill="#999">0.00</text><line x1="52" y1="92.0" x2="664" y2="92.0" stroke="#3a3a3a"/><text x="46" y="92.0" text-anchor="end" dominant-baseline="middle" font-size="9" fill="#999">12.23</text><line x1="52" y1="40.0" x2="664" y2="40.0" stroke="#3a3a3a"/><text x="46" y="40.0" text-anchor="end" dominant-baseline="middle" font-size="9" fill="#999">24.46</text><text x="52" y="158" font-size="9" fill="#999">2026-09-09</text><text x="664" y="158" text-anchor="end" font-size="9" fill="#999">2026-09-10</text><polyline fill="none" stroke="#5aa9e6" stroke-width="1.5" points="52.0,53.6 358.0,58.1 664.0,61.3"/><circle cx="52.0" cy="53.6" r="2.5" fill="#5aa9e6"><title>2026-09-09 22:08:42
4f4700e+
21.27 ms</title></circle><circle cx="358.0" cy="58.1" r="2.5" fill="#5aa9e6"><title>2026-09-09 22:28:47
4f4700e+
20.20 ms</title></circle><circle cx="664.0" cy="61.3" r="2.5" fill="#5aa9e6"><title>2026-09-10 09:43:20
3dae426+
19.45 ms</title></circle></g></g></g></svg>