<svg xmlns="http://www.w3.org/2000/svg" width="680" height="1040" font-family="sans-serif"><rect width="680" height="1040" fill="#1e1e1e"/><text x="52" y="22" font-size="14" font-weight="bold" fill="#e8e8e8">Benchmarks auf ADV-DEV-56627</text><g transform="translate(0 40)"><rect x="0" y="0" width="680" height="30" fill="#252525"/><text x="52" y="22" font-size="12" font-weight="bold" fill="#e8e8e8">bench-runtime</text><text x="668" y="22" text-anchor="end" font-size="9" fill="#999">17 Messungen</text><g transform="translate(0 30)"><g transform="translate(0 0)"><rect x="6" y="4" width="328" height="178" fill="none" stroke="#333"/><text x="52" y="20" font-size="11" font-weight="bold" fill="#e8e8e8">branching/emptyOrComplex</text><text x="52" y="33" font-size="9" fill="#999">4.27 ms (-100% seit 2026-09-25)</text><line x1="52" y1="144.0" x2="324" y2="144.0" stroke="#3a3a3a"/><text x="46" y="144.0" text-anchor="end" dominant-baseline="middle" font-size="9" fill="#999">0.00</text><line x1="52" y1="92.0" x2="324" y2="92.0" stroke="#3a3a3a"/><text x="46" y="92.0" text-anchor="end" dominant-baseline="middle" font-size="9" fill="#999">2175.09</text><line x1="52" y1="40.0" x2="324" y2="40.0" stroke="#3a3a3a"/><text x="46" y="40.0" text-anchor="end" dominant-baseline="middle" font-size="9" fill="#999">4350.17</text><text x="52" y="158" font-size="9" fill="#999">2026-09-25</text><text x="324" y="158" text-anchor="end" font-size="9" fill="#999">2026-09-28</text><polyline fill="none" stroke="#5aa9e6" stroke-width="1.5" points="52.0,53.6 66.3,143.9 80.6,143.9 94.9,143.9 109.3,143.9 123.6,143.9 137.9,143.9 152.2,143.9 166.5,143.9 180.8,143.9 195.2,143.9 209.5,143.9 223.8,143.9 238.1,143.9 252.4,143.9 266.7,143.9 281.1,143.9 295.4,143.9 309.7,143.9 324.0,143.9"/><circle cx="52.0" cy="53.6" r="2.5" fill="#5aa9e6"><title>2026-09-25 15:03:30
7820997+
3782.76 ms</title></circle><circle cx="66.3" cy="143.9" r="2.5" fill="#5aa9e6"><title>2026-09-25 15:03:33
7820997+
4.78 ms</title></circle><circle cx="80.6" cy="143.9" r="2.5" fill="#5aa9e6"><title>2026-09-25 15:48:25
7e773f9+
3.81 ms</title></circle><circle cx="94.9" cy="143.9" r="2.5" fill="#5aa9e6"><title>2026-09-26 10:06:47
17c9c34+
4.16 ms</title></circle><circle cx="109.3" cy="143.9" r="2.5" fill="#5aa9e6"><title>2026-09-26 10:18:42
17c9c34+
3.78 ms</title></circle><circle cx="123.6" cy="143.9" r="2.5" fill="#5aa9e6"><title>2026-09-26 10:27:27
17c9c34+
4.05 ms</title></circle><circle cx="137.9" cy="143.9" r="2.5" fill="#5aa9e6"><title>2026-09-26 14:05:30
e54a9b8
4.04 ms</title></circle><circle cx="152.2" cy="143.9" r="2.5" fill="#5aa9e6"><title>2026-09-26 14:16:44
e54a9b8+
4.76 ms</title></circle><circle cx="166.5" cy="143.9" r="2.5" fill="#5aa9e6"><title>2026-09-26 15:11:30
83ef5b6+
4.01 ms</title></circle><circle cx="180.8" cy="143.9" r="2.5" fill="#5aa9e6"><title>2026-09-26 15:12:59
83ef5b6+
4.37 ms</title></circle><circle cx="195.2" cy="143.9" r="2.5" fill="#5aa9e6"><title>2026-09-26 15:39:45
83ef5b6+
4.06 ms</title></circle><circle cx="209.5" cy="143.9" r="2.5" fill="#5aa9e6"><title>2026-09-26 15:40:51
83ef5b6+
4.23 ms</title></circle><circle cx="223.8" cy="143.9" r="2.5" fill="#5aa9e6"><title>2026-09-27 06:32:21
d96f7e4+
4.18 ms</title></circle><circle cx="238.1" cy="143.9" r="2.5" fill="#5aa9e6"><title>2026-09-27 06:52:35
d96f7e4+
3.96 ms</title></circle><circle cx="252.4" cy="143.9" r="2.5" fill="#5aa9e6"><title>2026-09-27 10:04:44
e0f4ecf+
4.94 ms</title></circle><circle cx="266.7" cy="143.9" r="2.5" fill="#5aa9e6"><title>2026-09-27 10:53:32
e0f4ecf+
4.75 ms</title></circle><circle cx="281.1" cy="143.9" r="2.5" fill="#5aa9e6"><title>2026-09-27 13:20:23
4eeadb1+
3.74 ms</title></circle><circle cx="295.4" cy="143.9" r="2.5" fill="#5aa9e6"><title>2026-09-27 13:35:28
68321d7+
4.13 ms</title></circle><circle cx="309.7" cy="143.9" r="2.5" fill="#5aa9e6"><title>2026-09-28 10:06:11
9bf4348+
4.03 ms</title></circle><circle cx="324.0" cy="143.9" r="2.5" fill="#5aa9e6"><title>2026-09-28 10:15:55
9bf4348+
4.27 ms</title></circle></g><g transform="translate(340 0)"><rect x="6" y="4" width="328" height="178" fill="none" stroke="#333"/><text x="52" y="20" font-size="11" font-weight="bold" fill="#e8e8e8">branching/textListOrDictionary</text><text x="52" y="33" font-size="9" fill="#999">7.35 ms (-100% seit 2026-09-25)</text><line x1="52" y1="144.0" x2="324" y2="144.0" stroke="#3a3a3a"/><text x="46" y="144.0" text-anchor="end" dominant-baseline="middle" font-size="9" fill="#999">0.00</text><line x1="52" y1="92.0" x2="324" y2="92.0" stroke="#3a3a3a"/><text x="46" y="92.0" text-anchor="end" dominant-baseline="middle" font-size="9" fill="#999">5130.42</text><line x1="52" y1="40.0" x2="324" y2="40.0" stroke="#3a3a3a"/><text x="46" y="40.0" text-anchor="end" dominant-baseline="middle" font-size="9" fill="#999">10260.84</text><text x="52" y="158" font-size="9" fill="#999">2026-09-25</text><text x="324" y="158" text-anchor="end" font-size="9" fill="#999">2026-09-28</text><polyline fill="none" stroke="#5aa9e6" stroke-width="1.5" points="52.0,53.6 66.3,143.9 80.6,143.9 94.9,143.9 109.3,143.9 123.6,143.9 137.9,143.9 152.2,143.9 166.5,143.9 180.8,143.9 195.2,143.9 209.5,143.9 223.8,143.9 238.1,143.9 252.4,143.9 266.7,143.9 281.1,143.9 295.4,143.9 309.7,143.9 324.0,143.9"/><circle cx="52.0" cy="53.6" r="2.5" fill="#5aa9e6"><title>2026-09-25 15:03:30
7820997+
8922.47 ms</title></circle><circle cx="66.3" cy="143.9" r="2.5" fill="#5aa9e6"><title>2026-09-25 15:03:33
7820997+
7.79 ms</title></circle><circle cx="80.6" cy="143.9" r="2.5" fill="#5aa9e6"><title>2026-09-25 15:48:25
7e773f9+
6.75 ms</title></circle><circle cx="94.9" cy="143.9" r="2.5" fill="#5aa9e6"><title>2026-09-26 10:06:47
17c9c34+
7.74 ms</title></circle><circle cx="109.3" cy="143.9" r="2.5" fill="#5aa9e6"><title>2026-09-26 10:18:42
17c9c34+
7.35 ms</title></circle><circle cx="123.6" cy="143.9" r="2.5" fill="#5aa9e6"><title>2026-09-26 10:27:27
17c9c34+
7.55 ms</title></circle><circle cx="137.9" cy="143.9" r="2.5" fill="#5aa9e6"><title>2026-09-26 14:05:30
e54a9b8
7.45 ms</title></circle><circle cx="152.2" cy="143.9" r="2.5" fill="#5aa9e6"><title>2026-09-26 14:16:44
e54a9b8+
7.59 ms</title></circle><circle cx="166.5" cy="143.9" r="2.5" fill="#5aa9e6"><title>2026-09-26 15:11:30
83ef5b6+
8.00 ms</title></circle><circle cx="180.8" cy="143.9" r="2.5" fill="#5aa9e6"><title>2026-09-26 15:12:59
83ef5b6+
7.32 ms</title></circle><circle cx="195.2" cy="143.9" r="2.5" fill="#5aa9e6"><title>2026-09-26 15:39:45
83ef5b6+
7.57 ms</title></circle><circle cx="209.5" cy="143.9" r="2.5" fill="#5aa9e6"><title>2026-09-26 15:40:51
83ef5b6+
7.37 ms</title></circle><circle cx="223.8" cy="143.9" r="2.5" fill="#5aa9e6"><title>2026-09-27 06:32:21
d96f7e4+
7.87 ms</title></circle><circle cx="238.1" cy="143.9" r="2.5" fill="#5aa9e6"><title>2026-09-27 06:52:35
d96f7e4+
7.14 ms</title></circle><circle cx="252.4" cy="143.9" r="2.5" fill="#5aa9e6"><title>2026-09-27 10:04:44
e0f4ecf+
7.59 ms</title></circle><circle cx="266.7" cy="143.9" r="2.5" fill="#5aa9e6"><title>2026-09-27 10:53:32
e0f4ecf+
7.52 ms</title></circle><circle cx="281.1" cy="143.9" r="2.5" fill="#5aa9e6"><title>2026-09-27 13:20:23
4eeadb1+
7.92 ms</title></circle><circle cx="295.4" cy="143.9" r="2.5" fill="#5aa9e6"><title>2026-09-27 13:35:28
68321d7+
7.92 ms</title></circle><circle cx="309.7" cy="143.9" r="2.5" fill="#5aa9e6"><title>2026-09-28 10:06:11
9bf4348+
6.82 ms</title></circle><circle cx="324.0" cy="143.9" r="2.5" fill="#5aa9e6"><title>2026-09-28 10:15:55
9bf4348+
7.35 ms</title></circle></g><g transform="translate(0 190)"><rect x="6" y="4" width="328" height="178" fill="none" stroke="#333"/><text x="52" y="20" font-size="11" font-weight="bold" fill="#e8e8e8">branching/tagField</text><text x="52" y="33" font-size="9" fill="#999">7.40 ms (-100% seit 2026-09-25)</text><line x1="52" y1="144.0" x2="324" y2="144.0" stroke="#3a3a3a"/><text x="46" y="144.0" text-anchor="end" dominant-baseline="middle" font-size="9" fill="#999">0.00</text><line x1="52" y1="92.0" x2="324" y2="92.0" stroke="#3a3a3a"/><text x="46" y="92.0" text-anchor="end" dominant-baseline="middle" font-size="9" fill="#999">2565.54</text><line x1="52" y1="40.0" x2="324" y2="40.0" stroke="#3a3a3a"/><text x="46" y="40.0" text-anchor="end" dominant-baseline="middle" font-size="9" fill="#999">5131.08</text><text x="52" y="158" font-size="9" fill="#999">2026-09-25</text><text x="324" y="158" text-anchor="end" font-size="9" fill="#999">2026-09-28</text><polyline fill="none" stroke="#5aa9e6" stroke-width="1.5" points="52.0,53.6 66.3,143.8 80.6,143.8 94.9,143.8 109.3,143.8 123.6,143.8 137.9,143.9 152.2,143.8 166.5,143.8 180.8,143.8 195.2,143.8 209.5,143.8 223.8,143.8 238.1,143.8 252.4,143.8 266.7,143.8 281.1,143.9 295.4,143.8 309.7,143.8 324.0,143.9"/><circle cx="52.0" cy="53.6" r="2.5" fill="#5aa9e6"><title>2026-09-25 15:03:30
7820997+
4461.81 ms</title></circle><circle cx="66.3" cy="143.8" r="2.5" fill="#5aa9e6"><title>2026-09-25 15:03:33
7820997+
8.27 ms</title></circle><circle cx="80.6" cy="143.8" r="2.5" fill="#5aa9e6"><title>2026-09-25 15:48:25
7e773f9+
7.68 ms</title></circle><circle cx="94.9" cy="143.8" r="2.5" fill="#5aa9e6"><title>2026-09-26 10:06:47
17c9c34+
8.19 ms</title></circle><circle cx="109.3" cy="143.8" r="2.5" fill="#5aa9e6"><title>2026-09-26 10:18:42
17c9c34+
7.73 ms</title></circle><circle cx="123.6" cy="143.8" r="2.5" fill="#5aa9e6"><title>2026-09-26 10:27:27
17c9c34+
7.70 ms</title></circle><circle cx="137.9" cy="143.9" r="2.5" fill="#5aa9e6"><title>2026-09-26 14:05:30
e54a9b8
7.22 ms</title></circle><circle cx="152.2" cy="143.8" r="2.5" fill="#5aa9e6"><title>2026-09-26 14:16:44
e54a9b8+
7.47 ms</title></circle><circle cx="166.5" cy="143.8" r="2.5" fill="#5aa9e6"><title>2026-09-26 15:11:30
83ef5b6+
7.53 ms</title></circle><circle cx="180.8" cy="143.8" r="2.5" fill="#5aa9e6"><title>2026-09-26 15:12:59
83ef5b6+
7.63 ms</title></circle><circle cx="195.2" cy="143.8" r="2.5" fill="#5aa9e6"><title>2026-09-26 15:39:45
83ef5b6+
7.41 ms</title></circle><circle cx="209.5" cy="143.8" r="2.5" fill="#5aa9e6"><title>2026-09-26 15:40:51
83ef5b6+
7.75 ms</title></circle><circle cx="223.8" cy="143.8" r="2.5" fill="#5aa9e6"><title>2026-09-27 06:32:21
d96f7e4+
7.60 ms</title></circle><circle cx="238.1" cy="143.8" r="2.5" fill="#5aa9e6"><title>2026-09-27 06:52:35
d96f7e4+
7.70 ms</title></circle><circle cx="252.4" cy="143.8" r="2.5" fill="#5aa9e6"><title>2026-09-27 10:04:44
e0f4ecf+
8.13 ms</title></circle><circle cx="266.7" cy="143.8" r="2.5" fill="#5aa9e6"><title>2026-09-27 10:53:32
e0f4ecf+
7.59 ms</title></circle><circle cx="281.1" cy="143.9" r="2.5" fill="#5aa9e6"><title>2026-09-27 13:20:23
4eeadb1+
7.06 ms</title></circle><circle cx="295.4" cy="143.8" r="2.5" fill="#5aa9e6"><title>2026-09-27 13:35:28
68321d7+
7.87 ms</title></circle><circle cx="309.7" cy="143.8" r="2.5" fill="#5aa9e6"><title>2026-09-28 10:06:11
9bf4348+
7.75 ms</title></circle><circle cx="324.0" cy="143.9" r="2.5" fill="#5aa9e6"><title>2026-09-28 10:15:55
9bf4348+
7.40 ms</title></circle></g><g transform="translate(340 190)"><rect x="6" y="4" width="328" height="178" fill="none" stroke="#333"/><text x="52" y="20" font-size="11" font-weight="bold" fill="#e8e8e8">named-arguments/positional</text><text x="52" y="33" font-size="9" fill="#999">6.65 ms (-18% seit 2026-09-25)</text><line x1="52" y1="144.0" x2="324" y2="144.0" stroke="#3a3a3a"/><text x="46" y="144.0" text-anchor="end" dominant-baseline="middle" font-size="9" fill="#999">0.00</text><line x1="52" y1="92.0" x2="324" y2="92.0" stroke="#3a3a3a"/><text x="46" y="92.0" text-anchor="end" dominant-baseline="middle" font-size="9" fill="#999">4.66</text><line x1="52" y1="40.0" x2="324" y2="40.0" stroke="#3a3a3a"/><text x="46" y="40.0" text-anchor="end" dominant-baseline="middle" font-size="9" fill="#999">9.33</text><text x="52" y="158" font-size="9" fill="#999">2026-09-25</text><text x="324" y="158" text-anchor="end" font-size="9" fill="#999">2026-09-28</text><polyline fill="none" stroke="#5aa9e6" stroke-width="1.5" points="52.0,53.6 66.3,56.0 80.6,71.5 94.9,67.1 109.3,69.4 123.6,66.2 137.9,72.2 152.2,64.0 166.5,63.5 180.8,72.9 195.2,67.3 209.5,66.2 223.8,69.3 238.1,72.5 252.4,68.2 266.7,69.8 281.1,71.7 295.4,63.7 309.7,66.1 324.0,69.8"/><circle cx="52.0" cy="53.6" r="2.5" fill="#5aa9e6"><title>2026-09-25 15:03:30
7820997+
8.11 ms</title></circle><circle cx="66.3" cy="56.0" r="2.5" fill="#5aa9e6"><title>2026-09-25 15:03:33
7820997+
7.89 ms</title></circle><circle cx="80.6" cy="71.5" r="2.5" fill="#5aa9e6"><title>2026-09-25 15:48:25
7e773f9+
6.50 ms</title></circle><circle cx="94.9" cy="67.1" r="2.5" fill="#5aa9e6"><title>2026-09-26 10:06:47
17c9c34+
6.90 ms</title></circle><circle cx="109.3" cy="69.4" r="2.5" fill="#5aa9e6"><title>2026-09-26 10:18:42
17c9c34+
6.69 ms</title></circle><circle cx="123.6" cy="66.2" r="2.5" fill="#5aa9e6"><title>2026-09-26 10:27:27
17c9c34+
6.98 ms</title></circle><circle cx="137.9" cy="72.2" r="2.5" fill="#5aa9e6"><title>2026-09-26 14:05:30
e54a9b8
6.44 ms</title></circle><circle cx="152.2" cy="64.0" r="2.5" fill="#5aa9e6"><title>2026-09-26 14:16:44
e54a9b8+
7.17 ms</title></circle><circle cx="166.5" cy="63.5" r="2.5" fill="#5aa9e6"><title>2026-09-26 15:11:30
83ef5b6+
7.22 ms</title></circle><circle cx="180.8" cy="72.9" r="2.5" fill="#5aa9e6"><title>2026-09-26 15:12:59
83ef5b6+
6.38 ms</title></circle><circle cx="195.2" cy="67.3" r="2.5" fill="#5aa9e6"><title>2026-09-26 15:39:45
83ef5b6+
6.88 ms</title></circle><circle cx="209.5" cy="66.2" r="2.5" fill="#5aa9e6"><title>2026-09-26 15:40:51
83ef5b6+
6.98 ms</title></circle><circle cx="223.8" cy="69.3" r="2.5" fill="#5aa9e6"><title>2026-09-27 06:32:21
d96f7e4+
6.70 ms</title></circle><circle cx="238.1" cy="72.5" r="2.5" fill="#5aa9e6"><title>2026-09-27 06:52:35
d96f7e4+
6.41 ms</title></circle><circle cx="252.4" cy="68.2" r="2.5" fill="#5aa9e6"><title>2026-09-27 10:04:44
e0f4ecf+
6.80 ms</title></circle><circle cx="266.7" cy="69.8" r="2.5" fill="#5aa9e6"><title>2026-09-27 10:53:32
e0f4ecf+
6.65 ms</title></circle><circle cx="281.1" cy="71.7" r="2.5" fill="#5aa9e6"><title>2026-09-27 13:20:23
4eeadb1+
6.48 ms</title></circle><circle cx="295.4" cy="63.7" r="2.5" fill="#5aa9e6"><title>2026-09-27 13:35:28
68321d7+
7.20 ms</title></circle><circle cx="309.7" cy="66.1" r="2.5" fill="#5aa9e6"><title>2026-09-28 10:06:11
9bf4348+
6.99 ms</title></circle><circle cx="324.0" cy="69.8" r="2.5" fill="#5aa9e6"><title>2026-09-28 10:15:55
9bf4348+
6.65 ms</title></circle></g><g transform="translate(0 380)"><rect x="6" y="4" width="328" height="178" fill="none" stroke="#333"/><text x="52" y="20" font-size="11" font-weight="bold" fill="#e8e8e8">named-arguments/namedInOrder</text><text x="52" y="33" font-size="9" fill="#999">6.66 ms (-83% seit 2026-09-25)</text><line x1="52" y1="144.0" x2="324" y2="144.0" stroke="#3a3a3a"/><text x="46" y="144.0" text-anchor="end" dominant-baseline="middle" font-size="9" fill="#999">0.00</text><line x1="52" y1="92.0" x2="324" y2="92.0" stroke="#3a3a3a"/><text x="46" y="92.0" text-anchor="end" dominant-baseline="middle" font-size="9" fill="#999">22.24</text><line x1="52" y1="40.0" x2="324" y2="40.0" stroke="#3a3a3a"/><text x="46" y="40.0" text-anchor="end" dominant-baseline="middle" font-size="9" fill="#999">44.47</text><text x="52" y="158" font-size="9" fill="#999">2026-09-25</text><text x="324" y="158" text-anchor="end" font-size="9" fill="#999">2026-09-28</text><polyline fill="none" stroke="#5aa9e6" stroke-width="1.5" points="52.0,53.6 66.3,62.8 80.6,129.9 94.9,127.6 109.3,127.8 123.6,128.8 137.9,128.3 152.2,127.9 166.5,127.9 180.8,127.1 195.2,128.2 209.5,128.5 223.8,128.4 238.1,128.8 252.4,125.6 266.7,128.6 281.1,128.6 295.4,128.6 309.7,128.6 324.0,128.4"/><circle cx="52.0" cy="53.6" r="2.5" fill="#5aa9e6"><title>2026-09-25 15:03:30
7820997+
38.67 ms</title></circle><circle cx="66.3" cy="62.8" r="2.5" fill="#5aa9e6"><title>2026-09-25 15:03:33
7820997+
34.73 ms</title></circle><circle cx="80.6" cy="129.9" r="2.5" fill="#5aa9e6"><title>2026-09-25 15:48:25
7e773f9+
6.03 ms</title></circle><circle cx="94.9" cy="127.6" r="2.5" fill="#5aa9e6"><title>2026-09-26 10:06:47
17c9c34+
7.02 ms</title></circle><circle cx="109.3" cy="127.8" r="2.5" fill="#5aa9e6"><title>2026-09-26 10:18:42
17c9c34+
6.94 ms</title></circle><circle cx="123.6" cy="128.8" r="2.5" fill="#5aa9e6"><title>2026-09-26 10:27:27
17c9c34+
6.48 ms</title></circle><circle cx="137.9" cy="128.3" r="2.5" fill="#5aa9e6"><title>2026-09-26 14:05:30
e54a9b8
6.71 ms</title></circle><circle cx="152.2" cy="127.9" r="2.5" fill="#5aa9e6"><title>2026-09-26 14:16:44
e54a9b8+
6.87 ms</title></circle><circle cx="166.5" cy="127.9" r="2.5" fill="#5aa9e6"><title>2026-09-26 15:11:30
83ef5b6+
6.89 ms</title></circle><circle cx="180.8" cy="127.1" r="2.5" fill="#5aa9e6"><title>2026-09-26 15:12:59
83ef5b6+
7.21 ms</title></circle><circle cx="195.2" cy="128.2" r="2.5" fill="#5aa9e6"><title>2026-09-26 15:39:45
83ef5b6+
6.76 ms</title></circle><circle cx="209.5" cy="128.5" r="2.5" fill="#5aa9e6"><title>2026-09-26 15:40:51
83ef5b6+
6.64 ms</title></circle><circle cx="223.8" cy="128.4" r="2.5" fill="#5aa9e6"><title>2026-09-27 06:32:21
d96f7e4+
6.67 ms</title></circle><circle cx="238.1" cy="128.8" r="2.5" fill="#5aa9e6"><title>2026-09-27 06:52:35
d96f7e4+
6.51 ms</title></circle><circle cx="252.4" cy="125.6" r="2.5" fill="#5aa9e6"><title>2026-09-27 10:04:44
e0f4ecf+
7.88 ms</title></circle><circle cx="266.7" cy="128.6" r="2.5" fill="#5aa9e6"><title>2026-09-27 10:53:32
e0f4ecf+
6.58 ms</title></circle><circle cx="281.1" cy="128.6" r="2.5" fill="#5aa9e6"><title>2026-09-27 13:20:23
4eeadb1+
6.58 ms</title></circle><circle cx="295.4" cy="128.6" r="2.5" fill="#5aa9e6"><title>2026-09-27 13:35:28
68321d7+
6.59 ms</title></circle><circle cx="309.7" cy="128.6" r="2.5" fill="#5aa9e6"><title>2026-09-28 10:06:11
9bf4348+
6.60 ms</title></circle><circle cx="324.0" cy="128.4" r="2.5" fill="#5aa9e6"><title>2026-09-28 10:15:55
9bf4348+
6.66 ms</title></circle></g><g transform="translate(340 380)"><rect x="6" y="4" width="328" height="178" fill="none" stroke="#333"/><text x="52" y="20" font-size="11" font-weight="bold" fill="#e8e8e8">named-arguments/namedSwapped</text><text x="52" y="33" font-size="9" fill="#999">6.51 ms (-83% seit 2026-09-25)</text><line x1="52" y1="144.0" x2="324" y2="144.0" stroke="#3a3a3a"/><text x="46" y="144.0" text-anchor="end" dominant-baseline="middle" font-size="9" fill="#999">0.00</text><line x1="52" y1="92.0" x2="324" y2="92.0" stroke="#3a3a3a"/><text x="46" y="92.0" text-anchor="end" dominant-baseline="middle" font-size="9" fill="#999">22.47</text><line x1="52" y1="40.0" x2="324" y2="40.0" stroke="#3a3a3a"/><text x="46" y="40.0" text-anchor="end" dominant-baseline="middle" font-size="9" fill="#999">44.94</text><text x="52" y="158" font-size="9" fill="#999">2026-09-25</text><text x="324" y="158" text-anchor="end" font-size="9" fill="#999">2026-09-28</text><polyline fill="none" stroke="#5aa9e6" stroke-width="1.5" points="52.0,53.6 66.3,61.6 80.6,129.6 94.9,128.6 109.3,129.0 123.6,128.3 137.9,129.3 152.2,127.6 166.5,128.2 180.8,128.4 195.2,128.4 209.5,127.4 223.8,128.6 238.1,128.8 252.4,128.1 266.7,127.5 281.1,128.7 295.4,128.8 309.7,128.4 324.0,128.9"/><circle cx="52.0" cy="53.6" r="2.5" fill="#5aa9e6"><title>2026-09-25 15:03:30
7820997+
39.08 ms</title></circle><circle cx="66.3" cy="61.6" r="2.5" fill="#5aa9e6"><title>2026-09-25 15:03:33
7820997+
35.59 ms</title></circle><circle cx="80.6" cy="129.6" r="2.5" fill="#5aa9e6"><title>2026-09-25 15:48:25
7e773f9+
6.23 ms</title></circle><circle cx="94.9" cy="128.6" r="2.5" fill="#5aa9e6"><title>2026-09-26 10:06:47
17c9c34+
6.64 ms</title></circle><circle cx="109.3" cy="129.0" r="2.5" fill="#5aa9e6"><title>2026-09-26 10:18:42
17c9c34+
6.50 ms</title></circle><circle cx="123.6" cy="128.3" r="2.5" fill="#5aa9e6"><title>2026-09-26 10:27:27
17c9c34+
6.77 ms</title></circle><circle cx="137.9" cy="129.3" r="2.5" fill="#5aa9e6"><title>2026-09-26 14:05:30
e54a9b8
6.34 ms</title></circle><circle cx="152.2" cy="127.6" r="2.5" fill="#5aa9e6"><title>2026-09-26 14:16:44
e54a9b8+
7.07 ms</title></circle><circle cx="166.5" cy="128.2" r="2.5" fill="#5aa9e6"><title>2026-09-26 15:11:30
83ef5b6+
6.84 ms</title></circle><circle cx="180.8" cy="128.4" r="2.5" fill="#5aa9e6"><title>2026-09-26 15:12:59
83ef5b6+
6.75 ms</title></circle><circle cx="195.2" cy="128.4" r="2.5" fill="#5aa9e6"><title>2026-09-26 15:39:45
83ef5b6+
6.73 ms</title></circle><circle cx="209.5" cy="127.4" r="2.5" fill="#5aa9e6"><title>2026-09-26 15:40:51
83ef5b6+
7.16 ms</title></circle><circle cx="223.8" cy="128.6" r="2.5" fill="#5aa9e6"><title>2026-09-27 06:32:21
d96f7e4+
6.65 ms</title></circle><circle cx="238.1" cy="128.8" r="2.5" fill="#5aa9e6"><title>2026-09-27 06:52:35
d96f7e4+
6.59 ms</title></circle><circle cx="252.4" cy="128.1" r="2.5" fill="#5aa9e6"><title>2026-09-27 10:04:44
e0f4ecf+
6.89 ms</title></circle><circle cx="266.7" cy="127.5" r="2.5" fill="#5aa9e6"><title>2026-09-27 10:53:32
e0f4ecf+
7.12 ms</title></circle><circle cx="281.1" cy="128.7" r="2.5" fill="#5aa9e6"><title>2026-09-27 13:20:23
4eeadb1+
6.61 ms</title></circle><circle cx="295.4" cy="128.8" r="2.5" fill="#5aa9e6"><title>2026-09-27 13:35:28
68321d7+
6.57 ms</title></circle><circle cx="309.7" cy="128.4" r="2.5" fill="#5aa9e6"><title>2026-09-28 10:06:11
9bf4348+
6.74 ms</title></circle><circle cx="324.0" cy="128.9" r="2.5" fill="#5aa9e6"><title>2026-09-28 10:15:55
9bf4348+
6.51 ms</title></circle></g><g transform="translate(0 570)"><rect x="6" y="4" width="328" height="178" fill="none" stroke="#333"/><text x="52" y="20" font-size="11" font-weight="bold" fill="#e8e8e8">json/small</text><text x="52" y="33" font-size="9" fill="#999">3751.23 ms (-5% seit 2026-09-26)</text><line x1="52" y1="144.0" x2="324" y2="144.0" stroke="#3a3a3a"/><text x="46" y="144.0" text-anchor="end" dominant-baseline="middle" font-size="9" fill="#999">0.00</text><line x1="52" y1="92.0" x2="324" y2="92.0" stroke="#3a3a3a"/><text x="46" y="92.0" text-anchor="end" dominant-baseline="middle" font-size="9" fill="#999">3994.54</text><line x1="52" y1="40.0" x2="324" y2="40.0" stroke="#3a3a3a"/><text x="46" y="40.0" text-anchor="end" dominant-baseline="middle" font-size="9" fill="#999">7989.07</text><text x="52" y="158" font-size="9" fill="#999">2026-09-26</text><text x="324" y="158" text-anchor="end" font-size="9" fill="#999">2026-09-28</text><polyline fill="none" stroke="#5aa9e6" stroke-width="1.5" points="52.0,92.4 76.7,53.6 101.5,89.7 126.2,93.8 150.9,94.5 175.6,94.9 200.4,95.1 225.1,95.7 249.8,95.2 274.5,94.0 299.3,91.5 324.0,95.2"/><circle cx="52.0" cy="92.4" r="2.5" fill="#5aa9e6"><title>2026-09-26 15:11:30
83ef5b6+
3965.55 ms</title></circle><circle cx="76.7" cy="53.6" r="2.5" fill="#5aa9e6"><title>2026-09-26 15:12:59
83ef5b6+
6947.02 ms</title></circle><circle cx="101.5" cy="89.7" r="2.5" fill="#5aa9e6"><title>2026-09-26 15:39:45
83ef5b6+
4170.79 ms</title></circle><circle cx="126.2" cy="93.8" r="2.5" fill="#5aa9e6"><title>2026-09-26 15:40:51
83ef5b6+
3853.81 ms</title></circle><circle cx="150.9" cy="94.5" r="2.5" fill="#5aa9e6"><title>2026-09-27 06:32:21
d96f7e4+
3801.94 ms</title></circle><circle cx="175.6" cy="94.9" r="2.5" fill="#5aa9e6"><title>2026-09-27 06:52:35
d96f7e4+
3773.71 ms</title></circle><circle cx="200.4" cy="95.1" r="2.5" fill="#5aa9e6"><title>2026-09-27 10:04:44
e0f4ecf+
3752.74 ms</title></circle><circle cx="225.1" cy="95.7" r="2.5" fill="#5aa9e6"><title>2026-09-27 10:53:32
e0f4ecf+
3712.72 ms</title></circle><circle cx="249.8" cy="95.2" r="2.5" fill="#5aa9e6"><title>2026-09-27 13:20:23
4eeadb1+
3749.44 ms</title></circle><circle cx="274.5" cy="94.0" r="2.5" fill="#5aa9e6"><title>2026-09-27 13:35:28
68321d7+
3840.58 ms</title></circle><circle cx="299.3" cy="91.5" r="2.5" fill="#5aa9e6"><title>2026-09-28 10:06:11
9bf4348+
4030.71 ms</title></circle><circle cx="324.0" cy="95.2" r="2.5" fill="#5aa9e6"><title>2026-09-28 10:15:55
9bf4348+
3751.23 ms</title></circle></g><g transform="translate(340 570)"><rect x="6" y="4" width="328" height="178" fill="none" stroke="#333"/><text x="52" y="20" font-size="11" font-weight="bold" fill="#e8e8e8">json/large</text><text x="52" y="33" font-size="9" fill="#999">3711256.00 ms (+2% seit 2026-09-26)</text><line x1="52" y1="144.0" x2="324" y2="144.0" stroke="#3a3a3a"/><text x="46" y="144.0" text-anchor="end" dominant-baseline="middle" font-size="9" fill="#999">0.00</text><line x1="52" y1="92.0" x2="324" y2="92.0" stroke="#3a3a3a"/><text x="46" y="92.0" text-anchor="end" dominant-baseline="middle" font-size="9" fill="#999">2846596.15</text><line x1="52" y1="40.0" x2="324" y2="40.0" stroke="#3a3a3a"/><text x="46" y="40.0" text-anchor="end" dominant-baseline="middle" font-size="9" fill="#999">5693192.30</text><text x="52" y="158" font-size="9" fill="#999">2026-09-26</text><text x="324" y="158" text-anchor="end" font-size="9" fill="#999">2026-09-28</text><polyline fill="none" stroke="#5aa9e6" stroke-width="1.5" points="52.0,77.7 76.7,53.6 101.5,73.5 126.2,66.2 150.9,77.2 175.6,77.1 200.4,76.2 225.1,77.1 249.8,77.0 274.5,76.5 299.3,75.1 324.0,76.2"/><circle cx="52.0" cy="77.7" r="2.5" fill="#5aa9e6"><title>2026-09-26 15:11:30
83ef5b6+
3627718.00 ms</title></circle><circle cx="76.7" cy="53.6" r="2.5" fill="#5aa9e6"><title>2026-09-26 15:12:59
83ef5b6+
4950602.00 ms</title></circle><circle cx="101.5" cy="73.5" r="2.5" fill="#5aa9e6"><title>2026-09-26 15:39:45
83ef5b6+
3860526.00 ms</title></circle><circle cx="126.2" cy="66.2" r="2.5" fill="#5aa9e6"><title>2026-09-26 15:40:51
83ef5b6+
4256344.00 ms</title></circle><circle cx="150.9" cy="77.2" r="2.5" fill="#5aa9e6"><title>2026-09-27 06:32:21
d96f7e4+
3655976.00 ms</title></circle><circle cx="175.6" cy="77.1" r="2.5" fill="#5aa9e6"><title>2026-09-27 06:52:35
d96f7e4+
3662708.00 ms</title></circle><circle cx="200.4" cy="76.2" r="2.5" fill="#5aa9e6"><title>2026-09-27 10:04:44
e0f4ecf+
3711258.00 ms</title></circle><circle cx="225.1" cy="77.1" r="2.5" fill="#5aa9e6"><title>2026-09-27 10:53:32
e0f4ecf+
3662914.00 ms</title></circle><circle cx="249.8" cy="77.0" r="2.5" fill="#5aa9e6"><title>2026-09-27 13:20:23
4eeadb1+
3667842.00 ms</title></circle><circle cx="274.5" cy="76.5" r="2.5" fill="#5aa9e6"><title>2026-09-27 13:35:28
68321d7+
3693146.00 ms</title></circle><circle cx="299.3" cy="75.1" r="2.5" fill="#5aa9e6"><title>2026-09-28 10:06:11
9bf4348+
3772944.00 ms</title></circle><circle cx="324.0" cy="76.2" r="2.5" fill="#5aa9e6"><title>2026-09-28 10:15:55
9bf4348+
3711256.00 ms</title></circle></g><g transform="translate(0 760)"><rect x="6" y="4" width="328" height="178" fill="none" stroke="#333"/><text x="52" y="20" font-size="11" font-weight="bold" fill="#e8e8e8">json/texts</text><text x="52" y="33" font-size="9" fill="#999">444430.00 ms (-6% seit 2026-09-26)</text><line x1="52" y1="144.0" x2="324" y2="144.0" stroke="#3a3a3a"/><text x="46" y="144.0" text-anchor="end" dominant-baseline="middle" font-size="9" fill="#999">0.00</text><line x1="52" y1="92.0" x2="324" y2="92.0" stroke="#3a3a3a"/><text x="46" y="92.0" text-anchor="end" dominant-baseline="middle" font-size="9" fill="#999">272861.36</text><line x1="52" y1="40.0" x2="324" y2="40.0" stroke="#3a3a3a"/><text x="46" y="40.0" text-anchor="end" dominant-baseline="middle" font-size="9" fill="#999">545722.72</text><text x="52" y="158" font-size="9" fill="#999">2026-09-26</text><text x="324" y="158" text-anchor="end" font-size="9" fill="#999">2026-09-28</text><polyline fill="none" stroke="#5aa9e6" stroke-width="1.5" points="52.0,53.6 86.0,59.5 120.0,60.0 154.0,58.9 188.0,63.2 222.0,62.6 256.0,59.6 290.0,58.4 324.0,59.3"/><circle cx="52.0" cy="53.6" r="2.5" fill="#5aa9e6"><title>2026-09-26 15:40:51
83ef5b6+
474541.50 ms</title></circle><circle cx="86.0" cy="59.5" r="2.5" fill="#5aa9e6"><title>2026-09-27 06:32:21
d96f7e4+
443277.00 ms</title></circle><circle cx="120.0" cy="60.0" r="2.5" fill="#5aa9e6"><title>2026-09-27 06:52:35
d96f7e4+
440690.50 ms</title></circle><circle cx="154.0" cy="58.9" r="2.5" fill="#5aa9e6"><title>2026-09-27 10:04:44
e0f4ecf+
446597.50 ms</title></circle><circle cx="188.0" cy="63.2" r="2.5" fill="#5aa9e6"><title>2026-09-27 10:53:32
e0f4ecf+
423873.50 ms</title></circle><circle cx="222.0" cy="62.6" r="2.5" fill="#5aa9e6"><title>2026-09-27 13:20:23
4eeadb1+
427364.00 ms</title></circle><circle cx="256.0" cy="59.6" r="2.5" fill="#5aa9e6"><title>2026-09-27 13:35:28
68321d7+
443074.50 ms</title></circle><circle cx="290.0" cy="58.4" r="2.5" fill="#5aa9e6"><title>2026-09-28 10:06:11
9bf4348+
449361.00 ms</title></circle><circle cx="324.0" cy="59.3" r="2.5" fill="#5aa9e6"><title>2026-09-28 10:15:55
9bf4348+
444430.00 ms</title></circle></g></g></g></svg>