<svg xmlns="http://www.w3.org/2000/svg" width="680" height="500" font-family="sans-serif"><rect width="680" height="500" fill="#1e1e1e"/><text x="52" y="22" font-size="14" font-weight="bold" fill="#e8e8e8">Benchmarks auf ADV-DEV-56627</text><g transform="translate(0 40)"><rect x="0" y="0" width="680" height="30" fill="#252525"/><text x="52" y="22" font-size="12" font-weight="bold" fill="#e8e8e8">yugioh</text><text x="668" y="22" text-anchor="end" font-size="9" fill="#999">86 Messungen</text><g transform="translate(0 30)"><g transform="translate(0 0)"><rect x="6" y="4" width="328" height="178" fill="none" stroke="#333"/><text x="52" y="20" font-size="11" font-weight="bold" fill="#e8e8e8">parse+check</text><text x="52" y="33" font-size="9" fill="#999">4176.43 ms (+11% seit 2026-09-08)</text><line x1="52" y1="144.0" x2="324" y2="144.0" stroke="#3a3a3a"/><text x="46" y="144.0" text-anchor="end" dominant-baseline="middle" font-size="9" fill="#999">0.00</text><line x1="52" y1="92.0" x2="324" y2="92.0" stroke="#3a3a3a"/><text x="46" y="92.0" text-anchor="end" dominant-baseline="middle" font-size="9" fill="#999">5919.27</text><line x1="52" y1="40.0" x2="324" y2="40.0" stroke="#3a3a3a"/><text x="46" y="40.0" text-anchor="end" dominant-baseline="middle" font-size="9" fill="#999">11838.55</text><text x="52" y="158" font-size="9" fill="#999">2026-09-08</text><text x="324" y="158" text-anchor="end" font-size="9" fill="#999">2026-09-13</text><polyline fill="none" stroke="#5aa9e6" stroke-width="1.5" points="52.0,110.8 55.2,112.6 58.4,113.5 61.6,112.3 64.8,114.3 68.0,111.6 71.2,114.2 74.4,114.9 77.6,114.0 80.8,114.2 84.0,112.9 87.2,113.8 90.4,113.9 93.6,113.3 96.8,113.6 100.0,114.1 103.2,112.1 106.4,108.9 109.6,113.5 112.8,111.8 116.0,111.1 119.2,109.4 122.4,53.6 125.6,108.4 128.8,114.3 132.0,113.1 135.2,112.8 138.4,112.4 141.6,113.1 144.8,112.1 148.0,101.0 151.2,107.0 154.4,102.7 157.6,109.6 160.8,113.7 164.0,111.9 167.2,112.9 170.4,88.4 173.6,61.7 176.8,112.4 180.0,111.0 183.2,110.6 186.4,109.1 189.6,112.3 192.8,111.9 196.0,111.7 199.2,112.0 202.4,111.7 205.6,110.6 208.8,109.9 212.0,109.5 215.2,111.5 218.4,111.7 221.6,112.0 224.8,111.9 228.0,109.8 231.2,99.5 234.4,100.6 237.6,111.2 240.8,109.0 244.0,110.8 247.2,111.3 250.4,110.0 253.6,110.7 256.8,110.1 260.0,110.6 263.2,110.1 266.4,110.8 269.6,109.3 272.8,111.2 276.0,110.8 279.2,105.5 282.4,110.9 285.6,111.0 288.8,110.1 292.0,105.3 295.2,107.1 298.4,106.5 301.6,107.4 304.8,107.7 308.0,105.5 311.2,105.2 314.4,108.9 317.6,108.5 320.8,110.4 324.0,107.3"/><circle cx="52.0" cy="110.8" r="2.5" fill="#5aa9e6"><title>2026-09-08 11:10:48
78cb717+
3778.63 ms</title></circle><circle cx="55.2" cy="112.6" r="2.5" fill="#5aa9e6"><title>2026-09-08 15:38:38
58b008f+
3574.07 ms</title></circle><circle cx="58.4" cy="113.5" r="2.5" fill="#5aa9e6"><title>2026-09-08 15:55:19
58b008f+
3470.54 ms</title></circle><circle cx="61.6" cy="112.3" r="2.5" fill="#5aa9e6"><title>2026-09-09 10:10:45
4bc1cab+
3612.75 ms</title></circle><circle cx="64.8" cy="114.3" r="2.5" fill="#5aa9e6"><title>2026-09-09 10:32:05
4bc1cab+
3382.16 ms</title></circle><circle cx="68.0" cy="111.6" r="2.5" fill="#5aa9e6"><title>2026-09-09 11:24:34
2f37659+
3684.55 ms</title></circle><circle cx="71.2" cy="114.2" r="2.5" fill="#5aa9e6"><title>2026-09-09 14:23:34
2f37659+
3397.82 ms</title></circle><circle cx="74.4" cy="114.9" r="2.5" fill="#5aa9e6"><title>2026-09-09 18:44:40
2961841
3316.90 ms</title></circle><circle cx="77.6" cy="114.0" r="2.5" fill="#5aa9e6"><title>2026-09-09 19:15:16
2961841+
3419.49 ms</title></circle><circle cx="80.8" cy="114.2" r="2.5" fill="#5aa9e6"><title>2026-09-09 20:10:35
c494862+
3390.08 ms</title></circle><circle cx="84.0" cy="112.9" r="2.5" fill="#5aa9e6"><title>2026-09-09 22:08:08
4f4700e+
3544.51 ms</title></circle><circle cx="87.2" cy="113.8" r="2.5" fill="#5aa9e6"><title>2026-09-10 09:47:53
3dae426+
3433.64 ms</title></circle><circle cx="90.4" cy="113.9" r="2.5" fill="#5aa9e6"><title>2026-09-10 10:06:41
1cb6051+
3425.68 ms</title></circle><circle cx="93.6" cy="113.3" r="2.5" fill="#5aa9e6"><title>2026-09-10 10:35:04
bd049c8+
3495.44 ms</title></circle><circle cx="96.8" cy="113.6" r="2.5" fill="#5aa9e6"><title>2026-09-10 12:19:19
139fbde+
3460.11 ms</title></circle><circle cx="100.0" cy="114.1" r="2.5" fill="#5aa9e6"><title>2026-09-10 12:22:12
139fbde+
3402.61 ms</title></circle><circle cx="103.2" cy="112.1" r="2.5" fill="#5aa9e6"><title>2026-09-10 12:38:01
9d05a26+
3627.45 ms</title></circle><circle cx="106.4" cy="108.9" r="2.5" fill="#5aa9e6"><title>2026-09-10 12:41:04
9d05a26+
3993.20 ms</title></circle><circle cx="109.6" cy="113.5" r="2.5" fill="#5aa9e6"><title>2026-09-10 14:12:55
0dbc86b
3469.60 ms</title></circle><circle cx="112.8" cy="111.8" r="2.5" fill="#5aa9e6"><title>2026-09-10 14:31:07
66641a8+
3665.74 ms</title></circle><circle cx="116.0" cy="111.1" r="2.5" fill="#5aa9e6"><title>2026-09-10 14:35:56
977056a+
3744.47 ms</title></circle><circle cx="119.2" cy="109.4" r="2.5" fill="#5aa9e6"><title>2026-09-10 14:45:03
9fb37a0+
3942.61 ms</title></circle><circle cx="122.4" cy="53.6" r="2.5" fill="#5aa9e6"><title>2026-09-10 14:59:54
9c22e50+
10294.39 ms</title></circle><circle cx="125.6" cy="108.4" r="2.5" fill="#5aa9e6"><title>2026-09-10 15:03:38
9c22e50+
4046.82 ms</title></circle><circle cx="128.8" cy="114.3" r="2.5" fill="#5aa9e6"><title>2026-09-10 15:23:19
7db6623+
3383.02 ms</title></circle><circle cx="132.0" cy="113.1" r="2.5" fill="#5aa9e6"><title>2026-09-10 15:37:09
16c5e89+
3515.81 ms</title></circle><circle cx="135.2" cy="112.8" r="2.5" fill="#5aa9e6"><title>2026-09-10 15:48:06
2277f04+
3550.16 ms</title></circle><circle cx="138.4" cy="112.4" r="2.5" fill="#5aa9e6"><title>2026-09-10 16:01:55
733e44d+
3601.40 ms</title></circle><circle cx="141.6" cy="113.1" r="2.5" fill="#5aa9e6"><title>2026-09-10 16:08:43
a35c8ba+
3512.89 ms</title></circle><circle cx="144.8" cy="112.1" r="2.5" fill="#5aa9e6"><title>2026-09-10 16:15:52
dca69d5+
3629.24 ms</title></circle><circle cx="148.0" cy="101.0" r="2.5" fill="#5aa9e6"><title>2026-09-10 16:22:14
dca69d5+
4898.61 ms</title></circle><circle cx="151.2" cy="107.0" r="2.5" fill="#5aa9e6"><title>2026-09-10 16:45:12
dca69d5+
4208.41 ms</title></circle><circle cx="154.4" cy="102.7" r="2.5" fill="#5aa9e6"><title>2026-09-10 17:12:56
ea2a1f3+
4697.28 ms</title></circle><circle cx="157.6" cy="109.6" r="2.5" fill="#5aa9e6"><title>2026-09-10 17:25:13
7ed9a84+
3913.62 ms</title></circle><circle cx="160.8" cy="113.7" r="2.5" fill="#5aa9e6"><title>2026-09-10 17:45:18
7ed9a84+
3453.40 ms</title></circle><circle cx="164.0" cy="111.9" r="2.5" fill="#5aa9e6"><title>2026-09-10 17:55:59
398e670+
3652.58 ms</title></circle><circle cx="167.2" cy="112.9" r="2.5" fill="#5aa9e6"><title>2026-09-10 18:11:17
a1efc13+
3543.16 ms</title></circle><circle cx="170.4" cy="88.4" r="2.5" fill="#5aa9e6"><title>2026-09-11 08:37:52
67e9c86+
6333.85 ms</title></circle><circle cx="173.6" cy="61.7" r="2.5" fill="#5aa9e6"><title>2026-09-11 09:11:59
837efef+
9368.46 ms</title></circle><circle cx="176.8" cy="112.4" r="2.5" fill="#5aa9e6"><title>2026-09-11 09:23:39
837efef+
3601.33 ms</title></circle><circle cx="180.0" cy="111.0" r="2.5" fill="#5aa9e6"><title>2026-09-11 09:42:05
9e714a1+
3753.73 ms</title></circle><circle cx="183.2" cy="110.6" r="2.5" fill="#5aa9e6"><title>2026-09-11 15:40:30
549a23b+
3807.36 ms</title></circle><circle cx="186.4" cy="109.1" r="2.5" fill="#5aa9e6"><title>2026-09-11 17:04:23
d8bb361+
3972.56 ms</title></circle><circle cx="189.6" cy="112.3" r="2.5" fill="#5aa9e6"><title>2026-09-11 19:30:11
2a27a92+
3607.67 ms</title></circle><circle cx="192.8" cy="111.9" r="2.5" fill="#5aa9e6"><title>2026-09-11 23:25:44
e0beea7
3655.47 ms</title></circle><circle cx="196.0" cy="111.7" r="2.5" fill="#5aa9e6"><title>2026-09-11 23:29:37
e0beea7+
3674.17 ms</title></circle><circle cx="199.2" cy="112.0" r="2.5" fill="#5aa9e6"><title>2026-09-11 23:34:05
dfd708d+
3638.65 ms</title></circle><circle cx="202.4" cy="111.7" r="2.5" fill="#5aa9e6"><title>2026-09-11 23:55:53
8899bc6+
3677.67 ms</title></circle><circle cx="205.6" cy="110.6" r="2.5" fill="#5aa9e6"><title>2026-09-12 00:01:20
8899bc6+
3800.17 ms</title></circle><circle cx="208.8" cy="109.9" r="2.5" fill="#5aa9e6"><title>2026-09-12 00:14:24
6b05802+
3884.05 ms</title></circle><circle cx="212.0" cy="109.5" r="2.5" fill="#5aa9e6"><title>2026-09-12 00:29:43
6b05802+
3927.75 ms</title></circle><circle cx="215.2" cy="111.5" r="2.5" fill="#5aa9e6"><title>2026-09-12 01:02:44
49d047c+
3696.56 ms</title></circle><circle cx="218.4" cy="111.7" r="2.5" fill="#5aa9e6"><title>2026-09-12 01:20:50
49d047c+
3679.63 ms</title></circle><circle cx="221.6" cy="112.0" r="2.5" fill="#5aa9e6"><title>2026-09-12 01:48:53
06da68e+
3645.90 ms</title></circle><circle cx="224.8" cy="111.9" r="2.5" fill="#5aa9e6"><title>2026-09-12 13:24:06
68c1f99+
3652.50 ms</title></circle><circle cx="228.0" cy="109.8" r="2.5" fill="#5aa9e6"><title>2026-09-12 14:28:22
6a2fb8d+
3888.90 ms</title></circle><circle cx="231.2" cy="99.5" r="2.5" fill="#5aa9e6"><title>2026-09-12 14:31:18
6a2fb8d+
5070.34 ms</title></circle><circle cx="234.4" cy="100.6" r="2.5" fill="#5aa9e6"><title>2026-09-12 14:34:45
6a2fb8d+
4939.52 ms</title></circle><circle cx="237.6" cy="111.2" r="2.5" fill="#5aa9e6"><title>2026-09-12 19:38:50
e4ac2d6+
3733.65 ms</title></circle><circle cx="240.8" cy="109.0" r="2.5" fill="#5aa9e6"><title>2026-09-12 20:01:53
4dc8177+
3985.65 ms</title></circle><circle cx="244.0" cy="110.8" r="2.5" fill="#5aa9e6"><title>2026-09-12 20:06:48
c30feb6
3774.58 ms</title></circle><circle cx="247.2" cy="111.3" r="2.5" fill="#5aa9e6"><title>2026-09-12 20:13:48
c30feb6+
3726.04 ms</title></circle><circle cx="250.4" cy="110.0" r="2.5" fill="#5aa9e6"><title>2026-09-12 20:26:20
71ccc28+
3867.61 ms</title></circle><circle cx="253.6" cy="110.7" r="2.5" fill="#5aa9e6"><title>2026-09-12 20:34:32
71ccc28+
3792.08 ms</title></circle><circle cx="256.8" cy="110.1" r="2.5" fill="#5aa9e6"><title>2026-09-12 21:14:50
1b9aaf6+
3863.89 ms</title></circle><circle cx="260.0" cy="110.6" r="2.5" fill="#5aa9e6"><title>2026-09-12 21:20:47
fe73419+
3806.14 ms</title></circle><circle cx="263.2" cy="110.1" r="2.5" fill="#5aa9e6"><title>2026-09-13 06:57:26
b985b0b+
3862.21 ms</title></circle><circle cx="266.4" cy="110.8" r="2.5" fill="#5aa9e6"><title>2026-09-13 07:18:34
1c92171
3775.60 ms</title></circle><circle cx="269.6" cy="109.3" r="2.5" fill="#5aa9e6"><title>2026-09-13 07:19:05
1c92171+
3946.74 ms</title></circle><circle cx="272.8" cy="111.2" r="2.5" fill="#5aa9e6"><title>2026-09-13 07:19:59
1c92171+
3737.96 ms</title></circle><circle cx="276.0" cy="110.8" r="2.5" fill="#5aa9e6"><title>2026-09-13 07:20:55
1c92171+
3774.32 ms</title></circle><circle cx="279.2" cy="105.5" r="2.5" fill="#5aa9e6"><title>2026-09-13 07:34:23
b3c389c+
4382.56 ms</title></circle><circle cx="282.4" cy="110.9" r="2.5" fill="#5aa9e6"><title>2026-09-13 07:35:50
b3c389c+
3770.70 ms</title></circle><circle cx="285.6" cy="111.0" r="2.5" fill="#5aa9e6"><title>2026-09-13 07:41:50
b3c389c+
3753.91 ms</title></circle><circle cx="288.8" cy="110.1" r="2.5" fill="#5aa9e6"><title>2026-09-13 08:19:36
0fe302e+
3854.47 ms</title></circle><circle cx="292.0" cy="105.3" r="2.5" fill="#5aa9e6"><title>2026-09-13 09:05:03
5726ca5+
4403.79 ms</title></circle><circle cx="295.2" cy="107.1" r="2.5" fill="#5aa9e6"><title>2026-09-13 09:11:00
5726ca5+
4199.44 ms</title></circle><circle cx="298.4" cy="106.5" r="2.5" fill="#5aa9e6"><title>2026-09-13 10:40:52
020b631
4270.42 ms</title></circle><circle cx="301.6" cy="107.4" r="2.5" fill="#5aa9e6"><title>2026-09-13 10:41:34
020b631+
4163.98 ms</title></circle><circle cx="304.8" cy="107.7" r="2.5" fill="#5aa9e6"><title>2026-09-13 10:48:48
730a947
4137.05 ms</title></circle><circle cx="308.0" cy="105.5" r="2.5" fill="#5aa9e6"><title>2026-09-13 11:59:24
0fd01d0+
4387.37 ms</title></circle><circle cx="311.2" cy="105.2" r="2.5" fill="#5aa9e6"><title>2026-09-13 12:04:27
0fd01d0+
4421.66 ms</title></circle><circle cx="314.4" cy="108.9" r="2.5" fill="#5aa9e6"><title>2026-09-13 12:16:31
bef9732
3991.98 ms</title></circle><circle cx="317.6" cy="108.5" r="2.5" fill="#5aa9e6"><title>2026-09-13 12:27:13
7046c1e+
4046.44 ms</title></circle><circle cx="320.8" cy="110.4" r="2.5" fill="#5aa9e6"><title>2026-09-13 12:36:33
e115c97+
3828.26 ms</title></circle><circle cx="324.0" cy="107.3" r="2.5" fill="#5aa9e6"><title>2026-09-13 13:22:29
a6856e4
4176.43 ms</title></circle></g></g></g><g transform="translate(0 260)"><rect x="0" y="0" width="680" height="30" fill="#252525"/><text x="52" y="22" font-size="12" font-weight="bold" fill="#e8e8e8">jul-examples</text><text x="668" y="22" text-anchor="end" font-size="9" fill="#999">3 Messungen</text><g transform="translate(0 30)"><g transform="translate(0 0)"><rect x="6" y="4" width="328" height="178" fill="none" stroke="#333"/><text x="52" y="20" font-size="11" font-weight="bold" fill="#e8e8e8">parse+check</text><text x="52" y="33" font-size="9" fill="#999">19.45 ms (-9% seit 2026-09-09)</text><line x1="52" y1="144.0" x2="324" y2="144.0" stroke="#3a3a3a"/><text x="46" y="144.0" text-anchor="end" dominant-baseline="middle" font-size="9" fill="#999">0.00</text><line x1="52" y1="92.0" x2="324" y2="92.0" stroke="#3a3a3a"/><text x="46" y="92.0" text-anchor="end" dominant-baseline="middle" font-size="9" fill="#999">12.23</text><line x1="52" y1="40.0" x2="324" y2="40.0" stroke="#3a3a3a"/><text x="46" y="40.0" text-anchor="end" dominant-baseline="middle" font-size="9" fill="#999">24.46</text><text x="52" y="158" font-size="9" fill="#999">2026-09-09</text><text x="324" y="158" text-anchor="end" font-size="9" fill="#999">2026-09-10</text><polyline fill="none" stroke="#5aa9e6" stroke-width="1.5" points="52.0,53.6 188.0,58.1 324.0,61.3"/><circle cx="52.0" cy="53.6" r="2.5" fill="#5aa9e6"><title>2026-09-09 22:08:42
4f4700e+
21.27 ms</title></circle><circle cx="188.0" cy="58.1" r="2.5" fill="#5aa9e6"><title>2026-09-09 22:28:47
4f4700e+
20.20 ms</title></circle><circle cx="324.0" cy="61.3" r="2.5" fill="#5aa9e6"><title>2026-09-10 09:43:20
3dae426+
19.45 ms</title></circle></g></g></g></svg>