<svg xmlns="http://www.w3.org/2000/svg" width="680" height="500" font-family="sans-serif"><rect width="680" height="500" fill="#1e1e1e"/><text x="52" y="22" font-size="14" font-weight="bold" fill="#e8e8e8">Benchmarks auf ADV-DEV-56627</text><g transform="translate(0 40)"><rect x="0" y="0" width="680" height="30" fill="#252525"/><text x="52" y="22" font-size="12" font-weight="bold" fill="#e8e8e8">yugioh</text><text x="668" y="22" text-anchor="end" font-size="9" fill="#999">111 Messungen</text><g transform="translate(0 30)"><g transform="translate(0 0)"><rect x="6" y="4" width="668" height="178" fill="none" stroke="#333"/><text x="52" y="20" font-size="11" font-weight="bold" fill="#e8e8e8">parse+check</text><text x="52" y="33" font-size="9" fill="#999">3778.63 ms (+0% seit 2026-09-08)</text><line x1="52" y1="144.0" x2="664" y2="144.0" stroke="#3a3a3a"/><text x="46" y="144.0" text-anchor="end" dominant-baseline="middle" font-size="9" fill="#999">0.00</text><line x1="52" y1="92.0" x2="664" y2="92.0" stroke="#3a3a3a"/><text x="46" y="92.0" text-anchor="end" dominant-baseline="middle" font-size="9" fill="#999">7774.42</text><line x1="52" y1="40.0" x2="664" y2="40.0" stroke="#3a3a3a"/><text x="46" y="40.0" text-anchor="end" dominant-baseline="middle" font-size="9" fill="#999">15548.84</text><text x="52" y="158" font-size="9" fill="#999">2026-09-08</text><text x="664" y="158" text-anchor="end" font-size="9" fill="#999">2026-09-24</text><polyline fill="none" stroke="#5aa9e6" stroke-width="1.5" points="52.0,118.7 57.6,120.1 63.1,120.8 68.7,119.8 74.3,121.4 79.8,119.4 85.4,121.3 90.9,121.8 96.5,121.1 102.1,121.3 107.6,120.3 113.2,121.0 118.8,121.1 124.3,120.6 129.9,120.9 135.5,121.2 141.0,119.7 146.6,117.3 152.1,120.8 157.7,119.5 163.3,119.0 168.8,117.6 174.4,75.1 180.0,116.9 185.5,121.4 191.1,120.5 196.7,120.3 202.2,119.9 207.8,120.5 213.3,119.7 218.9,111.2 224.5,115.9 230.0,112.6 235.6,117.8 241.2,120.9 246.7,119.6 252.3,120.3 257.9,101.6 263.4,81.3 269.0,119.9 274.5,118.9 280.1,118.5 285.7,117.4 291.2,119.9 296.8,119.6 302.4,119.4 307.9,119.7 313.5,119.4 319.1,118.6 324.6,118.0 330.2,117.7 335.7,119.3 341.3,119.4 346.9,119.6 352.4,119.6 358.0,118.0 363.6,110.1 369.1,111.0 374.7,119.0 380.3,117.3 385.8,118.8 391.4,119.1 396.9,118.1 402.5,118.6 408.1,118.2 413.6,118.5 419.2,118.2 424.8,118.7 430.3,117.6 435.9,119.0 441.5,118.8 447.0,114.7 452.6,118.8 458.1,118.9 463.7,118.2 469.3,114.5 474.8,115.9 480.4,115.4 486.0,116.1 491.5,116.3 497.1,114.7 502.7,114.4 508.2,117.3 513.8,116.9 519.3,118.4 524.9,116.1 530.5,119.2 536.0,116.6 541.6,119.1 547.2,120.8 552.7,121.8 558.3,119.8 563.9,118.4 569.4,112.1 575.0,119.9 580.5,119.0 586.1,119.3 591.7,120.0 597.2,118.3 602.8,120.0 608.4,118.0 613.9,118.9 619.5,119.4 625.1,118.5 630.6,119.5 636.2,119.3 641.7,53.6 647.3,118.0 652.9,118.1 658.4,119.6 664.0,118.7"/><circle cx="52.0" cy="118.7" r="2.5" fill="#5aa9e6"><title>2026-09-08 11:10:48
78cb717+
3778.63 ms</title></circle><circle cx="57.6" cy="120.1" r="2.5" fill="#5aa9e6"><title>2026-09-08 15:38:38
58b008f+
3574.07 ms</title></circle><circle cx="63.1" cy="120.8" r="2.5" fill="#5aa9e6"><title>2026-09-08 15:55:19
58b008f+
3470.54 ms</title></circle><circle cx="68.7" cy="119.8" r="2.5" fill="#5aa9e6"><title>2026-09-09 10:10:45
4bc1cab+
3612.75 ms</title></circle><circle cx="74.3" cy="121.4" r="2.5" fill="#5aa9e6"><title>2026-09-09 10:32:05
4bc1cab+
3382.16 ms</title></circle><circle cx="79.8" cy="119.4" r="2.5" fill="#5aa9e6"><title>2026-09-09 11:24:34
2f37659+
3684.55 ms</title></circle><circle cx="85.4" cy="121.3" r="2.5" fill="#5aa9e6"><title>2026-09-09 14:23:34
2f37659+
3397.82 ms</title></circle><circle cx="90.9" cy="121.8" r="2.5" fill="#5aa9e6"><title>2026-09-09 18:44:40
2961841
3316.90 ms</title></circle><circle cx="96.5" cy="121.1" r="2.5" fill="#5aa9e6"><title>2026-09-09 19:15:16
2961841+
3419.49 ms</title></circle><circle cx="102.1" cy="121.3" r="2.5" fill="#5aa9e6"><title>2026-09-09 20:10:35
c494862+
3390.08 ms</title></circle><circle cx="107.6" cy="120.3" r="2.5" fill="#5aa9e6"><title>2026-09-09 22:08:08
4f4700e+
3544.51 ms</title></circle><circle cx="113.2" cy="121.0" r="2.5" fill="#5aa9e6"><title>2026-09-10 09:47:53
3dae426+
3433.64 ms</title></circle><circle cx="118.8" cy="121.1" r="2.5" fill="#5aa9e6"><title>2026-09-10 10:06:41
1cb6051+
3425.68 ms</title></circle><circle cx="124.3" cy="120.6" r="2.5" fill="#5aa9e6"><title>2026-09-10 10:35:04
bd049c8+
3495.44 ms</title></circle><circle cx="129.9" cy="120.9" r="2.5" fill="#5aa9e6"><title>2026-09-10 12:19:19
139fbde+
3460.11 ms</title></circle><circle cx="135.5" cy="121.2" r="2.5" fill="#5aa9e6"><title>2026-09-10 12:22:12
139fbde+
3402.61 ms</title></circle><circle cx="141.0" cy="119.7" r="2.5" fill="#5aa9e6"><title>2026-09-10 12:38:01
9d05a26+
3627.45 ms</title></circle><circle cx="146.6" cy="117.3" r="2.5" fill="#5aa9e6"><title>2026-09-10 12:41:04
9d05a26+
3993.20 ms</title></circle><circle cx="152.1" cy="120.8" r="2.5" fill="#5aa9e6"><title>2026-09-10 14:12:55
0dbc86b
3469.60 ms</title></circle><circle cx="157.7" cy="119.5" r="2.5" fill="#5aa9e6"><title>2026-09-10 14:31:07
66641a8+
3665.74 ms</title></circle><circle cx="163.3" cy="119.0" r="2.5" fill="#5aa9e6"><title>2026-09-10 14:35:56
977056a+
3744.47 ms</title></circle><circle cx="168.8" cy="117.6" r="2.5" fill="#5aa9e6"><title>2026-09-10 14:45:03
9fb37a0+
3942.61 ms</title></circle><circle cx="174.4" cy="75.1" r="2.5" fill="#5aa9e6"><title>2026-09-10 14:59:54
9c22e50+
10294.39 ms</title></circle><circle cx="180.0" cy="116.9" r="2.5" fill="#5aa9e6"><title>2026-09-10 15:03:38
9c22e50+
4046.82 ms</title></circle><circle cx="185.5" cy="121.4" r="2.5" fill="#5aa9e6"><title>2026-09-10 15:23:19
7db6623+
3383.02 ms</title></circle><circle cx="191.1" cy="120.5" r="2.5" fill="#5aa9e6"><title>2026-09-10 15:37:09
16c5e89+
3515.81 ms</title></circle><circle cx="196.7" cy="120.3" r="2.5" fill="#5aa9e6"><title>2026-09-10 15:48:06
2277f04+
3550.16 ms</title></circle><circle cx="202.2" cy="119.9" r="2.5" fill="#5aa9e6"><title>2026-09-10 16:01:55
733e44d+
3601.40 ms</title></circle><circle cx="207.8" cy="120.5" r="2.5" fill="#5aa9e6"><title>2026-09-10 16:08:43
a35c8ba+
3512.89 ms</title></circle><circle cx="213.3" cy="119.7" r="2.5" fill="#5aa9e6"><title>2026-09-10 16:15:52
dca69d5+
3629.24 ms</title></circle><circle cx="218.9" cy="111.2" r="2.5" fill="#5aa9e6"><title>2026-09-10 16:22:14
dca69d5+
4898.61 ms</title></circle><circle cx="224.5" cy="115.9" r="2.5" fill="#5aa9e6"><title>2026-09-10 16:45:12
dca69d5+
4208.41 ms</title></circle><circle cx="230.0" cy="112.6" r="2.5" fill="#5aa9e6"><title>2026-09-10 17:12:56
ea2a1f3+
4697.28 ms</title></circle><circle cx="235.6" cy="117.8" r="2.5" fill="#5aa9e6"><title>2026-09-10 17:25:13
7ed9a84+
3913.62 ms</title></circle><circle cx="241.2" cy="120.9" r="2.5" fill="#5aa9e6"><title>2026-09-10 17:45:18
7ed9a84+
3453.40 ms</title></circle><circle cx="246.7" cy="119.6" r="2.5" fill="#5aa9e6"><title>2026-09-10 17:55:59
398e670+
3652.58 ms</title></circle><circle cx="252.3" cy="120.3" r="2.5" fill="#5aa9e6"><title>2026-09-10 18:11:17
a1efc13+
3543.16 ms</title></circle><circle cx="257.9" cy="101.6" r="2.5" fill="#5aa9e6"><title>2026-09-11 08:37:52
67e9c86+
6333.85 ms</title></circle><circle cx="263.4" cy="81.3" r="2.5" fill="#5aa9e6"><title>2026-09-11 09:11:59
837efef+
9368.46 ms</title></circle><circle cx="269.0" cy="119.9" r="2.5" fill="#5aa9e6"><title>2026-09-11 09:23:39
837efef+
3601.33 ms</title></circle><circle cx="274.5" cy="118.9" r="2.5" fill="#5aa9e6"><title>2026-09-11 09:42:05
9e714a1+
3753.73 ms</title></circle><circle cx="280.1" cy="118.5" r="2.5" fill="#5aa9e6"><title>2026-09-11 15:40:30
549a23b+
3807.36 ms</title></circle><circle cx="285.7" cy="117.4" r="2.5" fill="#5aa9e6"><title>2026-09-11 17:04:23
d8bb361+
3972.56 ms</title></circle><circle cx="291.2" cy="119.9" r="2.5" fill="#5aa9e6"><title>2026-09-11 19:30:11
2a27a92+
3607.67 ms</title></circle><circle cx="296.8" cy="119.6" r="2.5" fill="#5aa9e6"><title>2026-09-11 23:25:44
e0beea7
3655.47 ms</title></circle><circle cx="302.4" cy="119.4" r="2.5" fill="#5aa9e6"><title>2026-09-11 23:29:37
e0beea7+
3674.17 ms</title></circle><circle cx="307.9" cy="119.7" r="2.5" fill="#5aa9e6"><title>2026-09-11 23:34:05
dfd708d+
3638.65 ms</title></circle><circle cx="313.5" cy="119.4" r="2.5" fill="#5aa9e6"><title>2026-09-11 23:55:53
8899bc6+
3677.67 ms</title></circle><circle cx="319.1" cy="118.6" r="2.5" fill="#5aa9e6"><title>2026-09-12 00:01:20
8899bc6+
3800.17 ms</title></circle><circle cx="324.6" cy="118.0" r="2.5" fill="#5aa9e6"><title>2026-09-12 00:14:24
6b05802+
3884.05 ms</title></circle><circle cx="330.2" cy="117.7" r="2.5" fill="#5aa9e6"><title>2026-09-12 00:29:43
6b05802+
3927.75 ms</title></circle><circle cx="335.7" cy="119.3" r="2.5" fill="#5aa9e6"><title>2026-09-12 01:02:44
49d047c+
3696.56 ms</title></circle><circle cx="341.3" cy="119.4" r="2.5" fill="#5aa9e6"><title>2026-09-12 01:20:50
49d047c+
3679.63 ms</title></circle><circle cx="346.9" cy="119.6" r="2.5" fill="#5aa9e6"><title>2026-09-12 01:48:53
06da68e+
3645.90 ms</title></circle><circle cx="352.4" cy="119.6" r="2.5" fill="#5aa9e6"><title>2026-09-12 13:24:06
68c1f99+
3652.50 ms</title></circle><circle cx="358.0" cy="118.0" r="2.5" fill="#5aa9e6"><title>2026-09-12 14:28:22
6a2fb8d+
3888.90 ms</title></circle><circle cx="363.6" cy="110.1" r="2.5" fill="#5aa9e6"><title>2026-09-12 14:31:18
6a2fb8d+
5070.34 ms</title></circle><circle cx="369.1" cy="111.0" r="2.5" fill="#5aa9e6"><title>2026-09-12 14:34:45
6a2fb8d+
4939.52 ms</title></circle><circle cx="374.7" cy="119.0" r="2.5" fill="#5aa9e6"><title>2026-09-12 19:38:50
e4ac2d6+
3733.65 ms</title></circle><circle cx="380.3" cy="117.3" r="2.5" fill="#5aa9e6"><title>2026-09-12 20:01:53
4dc8177+
3985.65 ms</title></circle><circle cx="385.8" cy="118.8" r="2.5" fill="#5aa9e6"><title>2026-09-12 20:06:48
c30feb6
3774.58 ms</title></circle><circle cx="391.4" cy="119.1" r="2.5" fill="#5aa9e6"><title>2026-09-12 20:13:48
c30feb6+
3726.04 ms</title></circle><circle cx="396.9" cy="118.1" r="2.5" fill="#5aa9e6"><title>2026-09-12 20:26:20
71ccc28+
3867.61 ms</title></circle><circle cx="402.5" cy="118.6" r="2.5" fill="#5aa9e6"><title>2026-09-12 20:34:32
71ccc28+
3792.08 ms</title></circle><circle cx="408.1" cy="118.2" r="2.5" fill="#5aa9e6"><title>2026-09-12 21:14:50
1b9aaf6+
3863.89 ms</title></circle><circle cx="413.6" cy="118.5" r="2.5" fill="#5aa9e6"><title>2026-09-12 21:20:47
fe73419+
3806.14 ms</title></circle><circle cx="419.2" cy="118.2" r="2.5" fill="#5aa9e6"><title>2026-09-13 06:57:26
b985b0b+
3862.21 ms</title></circle><circle cx="424.8" cy="118.7" r="2.5" fill="#5aa9e6"><title>2026-09-13 07:18:34
1c92171
3775.60 ms</title></circle><circle cx="430.3" cy="117.6" r="2.5" fill="#5aa9e6"><title>2026-09-13 07:19:05
1c92171+
3946.74 ms</title></circle><circle cx="435.9" cy="119.0" r="2.5" fill="#5aa9e6"><title>2026-09-13 07:19:59
1c92171+
3737.96 ms</title></circle><circle cx="441.5" cy="118.8" r="2.5" fill="#5aa9e6"><title>2026-09-13 07:20:55
1c92171+
3774.32 ms</title></circle><circle cx="447.0" cy="114.7" r="2.5" fill="#5aa9e6"><title>2026-09-13 07:34:23
b3c389c+
4382.56 ms</title></circle><circle cx="452.6" cy="118.8" r="2.5" fill="#5aa9e6"><title>2026-09-13 07:35:50
b3c389c+
3770.70 ms</title></circle><circle cx="458.1" cy="118.9" r="2.5" fill="#5aa9e6"><title>2026-09-13 07:41:50
b3c389c+
3753.91 ms</title></circle><circle cx="463.7" cy="118.2" r="2.5" fill="#5aa9e6"><title>2026-09-13 08:19:36
0fe302e+
3854.47 ms</title></circle><circle cx="469.3" cy="114.5" r="2.5" fill="#5aa9e6"><title>2026-09-13 09:05:03
5726ca5+
4403.79 ms</title></circle><circle cx="474.8" cy="115.9" r="2.5" fill="#5aa9e6"><title>2026-09-13 09:11:00
5726ca5+
4199.44 ms</title></circle><circle cx="480.4" cy="115.4" r="2.5" fill="#5aa9e6"><title>2026-09-13 10:40:52
020b631
4270.42 ms</title></circle><circle cx="486.0" cy="116.1" r="2.5" fill="#5aa9e6"><title>2026-09-13 10:41:34
020b631+
4163.98 ms</title></circle><circle cx="491.5" cy="116.3" r="2.5" fill="#5aa9e6"><title>2026-09-13 10:48:48
730a947
4137.05 ms</title></circle><circle cx="497.1" cy="114.7" r="2.5" fill="#5aa9e6"><title>2026-09-13 11:59:24
0fd01d0+
4387.37 ms</title></circle><circle cx="502.7" cy="114.4" r="2.5" fill="#5aa9e6"><title>2026-09-13 12:04:27
0fd01d0+
4421.66 ms</title></circle><circle cx="508.2" cy="117.3" r="2.5" fill="#5aa9e6"><title>2026-09-13 12:16:31
bef9732
3991.98 ms</title></circle><circle cx="513.8" cy="116.9" r="2.5" fill="#5aa9e6"><title>2026-09-13 12:27:13
7046c1e+
4046.44 ms</title></circle><circle cx="519.3" cy="118.4" r="2.5" fill="#5aa9e6"><title>2026-09-13 12:36:33
e115c97+
3828.26 ms</title></circle><circle cx="524.9" cy="116.1" r="2.5" fill="#5aa9e6"><title>2026-09-13 13:22:29
a6856e4
4176.43 ms</title></circle><circle cx="530.5" cy="119.2" r="2.5" fill="#5aa9e6"><title>2026-09-16 11:37:47
8509628
3701.78 ms</title></circle><circle cx="536.0" cy="116.6" r="2.5" fill="#5aa9e6"><title>2026-09-16 11:57:32
8509628+
4090.96 ms</title></circle><circle cx="541.6" cy="119.1" r="2.5" fill="#5aa9e6"><title>2026-09-16 16:45:48
5038bbd
3721.21 ms</title></circle><circle cx="547.2" cy="120.8" r="2.5" fill="#5aa9e6"><title>2026-09-17 12:21:19
0fbf0cf
3473.96 ms</title></circle><circle cx="552.7" cy="121.8" r="2.5" fill="#5aa9e6"><title>2026-09-21 09:35:00
eedaa94
3312.24 ms</title></circle><circle cx="558.3" cy="119.8" r="2.5" fill="#5aa9e6"><title>2026-09-21 09:35:25
2836862+
3613.71 ms</title></circle><circle cx="563.9" cy="118.4" r="2.5" fill="#5aa9e6"><title>2026-09-22 10:13:01
546656d+
3824.12 ms</title></circle><circle cx="569.4" cy="112.1" r="2.5" fill="#5aa9e6"><title>2026-09-22 10:29:51
546656d+
4775.74 ms</title></circle><circle cx="575.0" cy="119.9" r="2.5" fill="#5aa9e6"><title>2026-09-22 17:39:19
d4ec271+
3610.47 ms</title></circle><circle cx="580.5" cy="119.0" r="2.5" fill="#5aa9e6"><title>2026-09-22 17:50:22
2452abf+
3737.80 ms</title></circle><circle cx="586.1" cy="119.3" r="2.5" fill="#5aa9e6"><title>2026-09-22 17:52:57
2452abf+
3698.49 ms</title></circle><circle cx="591.7" cy="120.0" r="2.5" fill="#5aa9e6"><title>2026-09-23 09:08:01
b7693a9
3584.53 ms</title></circle><circle cx="597.2" cy="118.3" r="2.5" fill="#5aa9e6"><title>2026-09-23 09:45:27
fc0dbc8+
3846.65 ms</title></circle><circle cx="602.8" cy="120.0" r="2.5" fill="#5aa9e6"><title>2026-09-23 11:02:21
2635535
3589.39 ms</title></circle><circle cx="608.4" cy="118.0" r="2.5" fill="#5aa9e6"><title>2026-09-23 11:40:46
ba86e2f+
3882.63 ms</title></circle><circle cx="613.9" cy="118.9" r="2.5" fill="#5aa9e6"><title>2026-09-23 12:01:27
1e7f2d7+
3752.40 ms</title></circle><circle cx="619.5" cy="119.4" r="2.5" fill="#5aa9e6"><title>2026-09-23 12:06:46
1e7f2d7+
3681.27 ms</title></circle><circle cx="625.1" cy="118.5" r="2.5" fill="#5aa9e6"><title>2026-09-23 12:29:29
1e7f2d7+
3817.61 ms</title></circle><circle cx="630.6" cy="119.5" r="2.5" fill="#5aa9e6"><title>2026-09-23 13:01:29
a814359+
3670.00 ms</title></circle><circle cx="636.2" cy="119.3" r="2.5" fill="#5aa9e6"><title>2026-09-24 08:45:53
177a7bd+
3693.47 ms</title></circle><circle cx="641.7" cy="53.6" r="2.5" fill="#5aa9e6"><title>2026-09-24 08:58:37
17cd907
13520.73 ms</title></circle><circle cx="647.3" cy="118.0" r="2.5" fill="#5aa9e6"><title>2026-09-24 09:01:24
17cd907+
3885.73 ms</title></circle><circle cx="652.9" cy="118.1" r="2.5" fill="#5aa9e6"><title>2026-09-24 15:33:51
a744a34+
3868.64 ms</title></circle><circle cx="658.4" cy="119.6" r="2.5" fill="#5aa9e6"><title>2026-09-24 18:38:03
3a09593
3643.33 ms</title></circle><circle cx="664.0" cy="118.7" r="2.5" fill="#5aa9e6"><title>2026-09-24 18:55:49
a859d87+
3778.63 ms</title></circle></g></g></g><g transform="translate(0 260)"><rect x="0" y="0" width="680" height="30" fill="#252525"/><text x="52" y="22" font-size="12" font-weight="bold" fill="#e8e8e8">jul-examples</text><text x="668" y="22" text-anchor="end" font-size="9" fill="#999">3 Messungen</text><g transform="translate(0 30)"><g transform="translate(0 0)"><rect x="6" y="4" width="668" height="178" fill="none" stroke="#333"/><text x="52" y="20" font-size="11" font-weight="bold" fill="#e8e8e8">parse+check</text><text x="52" y="33" font-size="9" fill="#999">19.45 ms (-9% seit 2026-09-09)</text><line x1="52" y1="144.0" x2="664" y2="144.0" stroke="#3a3a3a"/><text x="46" y="144.0" text-anchor="end" dominant-baseline="middle" font-size="9" fill="#999">0.00</text><line x1="52" y1="92.0" x2="664" y2="92.0" stroke="#3a3a3a"/><text x="46" y="92.0" text-anchor="end" dominant-baseline="middle" font-size="9" fill="#999">12.23</text><line x1="52" y1="40.0" x2="664" y2="40.0" stroke="#3a3a3a"/><text x="46" y="40.0" text-anchor="end" dominant-baseline="middle" font-size="9" fill="#999">24.46</text><text x="52" y="158" font-size="9" fill="#999">2026-09-09</text><text x="664" y="158" text-anchor="end" font-size="9" fill="#999">2026-09-10</text><polyline fill="none" stroke="#5aa9e6" stroke-width="1.5" points="52.0,53.6 358.0,58.1 664.0,61.3"/><circle cx="52.0" cy="53.6" r="2.5" fill="#5aa9e6"><title>2026-09-09 22:08:42
4f4700e+
21.27 ms</title></circle><circle cx="358.0" cy="58.1" r="2.5" fill="#5aa9e6"><title>2026-09-09 22:28:47
4f4700e+
20.20 ms</title></circle><circle cx="664.0" cy="61.3" r="2.5" fill="#5aa9e6"><title>2026-09-10 09:43:20
3dae426+
19.45 ms</title></circle></g></g></g></svg>